{"glyphs":{"0":{"ha":833,"x_min":69,"x_max":764,"o":"m 417 988 q 676 856 588 988 q 764 483 764 724 q 676 109 764 242 q 417 -24 588 -24 q 158 109 246 -24 q 69 483 69 242 q 158 856 69 724 q 417 988 246 988 m 417 828 q 315 748 347 828 q 282 483 282 668 q 315 214 282 293 q 417 135 347 135 q 519 214 488 135 q 550 483 550 293 q 517 749 550 671 q 417 828 485 828 m 415 569 q 481 543 454 569 q 507 479 507 517 q 481 414 507 440 q 415 388 454 388 q 351 414 376 388 q 325 479 325 440 q 351 543 325 517 q 415 569 376 569 z "},"1":{"ha":833,"x_min":81,"x_max":765,"o":"m 765 167 l 765 0 l 140 0 l 140 167 l 372 167 l 372 747 l 174 622 l 81 774 l 392 963 l 586 963 l 586 167 l 765 167 z "},"2":{"ha":833,"x_min":56,"x_max":738,"o":"m 383 988 q 564 950 489 988 q 677 849 639 913 q 715 711 715 786 q 679 558 715 632 q 560 394 643 485 q 326 168 478 303 l 738 168 l 714 0 l 75 0 l 75 156 q 331 413 246 321 q 453 570 415 506 q 492 692 492 635 q 458 785 492 751 q 363 818 425 818 q 268 795 308 818 q 189 721 228 772 l 56 822 q 192 944 113 901 q 383 988 272 988 z "},"3":{"ha":833,"x_min":25,"x_max":736,"o":"m 378 988 q 552 954 478 988 q 666 865 626 921 q 706 740 706 808 q 653 594 706 651 q 508 510 601 538 q 736 271 736 479 q 691 122 736 189 q 561 15 646 54 q 364 -24 476 -24 q 172 14 258 -24 q 25 121 86 51 l 149 236 q 349 144 228 144 q 467 182 422 144 q 511 286 511 219 q 349 431 511 431 l 261 431 l 286 581 l 347 581 q 453 613 414 581 q 493 707 493 646 q 454 792 493 761 q 353 824 415 824 q 161 740 249 824 l 49 857 q 378 988 183 988 z "},"4":{"ha":833,"x_min":63,"x_max":768,"o":"m 768 203 l 672 203 l 672 0 l 463 0 l 461 203 l 63 203 l 63 347 l 329 988 l 515 918 l 289 367 l 461 367 l 486 599 l 672 599 l 672 367 l 768 367 l 768 203 z "},"5":{"ha":833,"x_min":54,"x_max":751,"o":"m 690 806 l 339 806 l 339 597 q 481 629 407 629 q 617 591 556 629 q 715 482 679 553 q 751 317 751 411 q 704 142 751 219 q 571 20 657 64 q 374 -24 485 -24 q 191 15 272 -24 q 54 121 110 53 l 181 236 q 260 168 215 192 q 357 144 306 144 q 479 191 433 144 q 525 313 525 238 q 394 478 525 478 q 278 446 335 478 l 129 446 l 129 963 l 715 963 l 690 806 z "},"6":{"ha":833,"x_min":69,"x_max":769,"o":"m 500 646 q 638 608 576 646 q 734 498 699 571 q 769 326 769 425 q 727 149 769 229 q 608 23 685 69 q 428 -24 531 -24 q 158 105 247 -24 q 69 435 69 233 q 120 722 69 597 q 265 917 171 847 q 488 988 360 988 q 696 925 606 988 l 613 792 q 490 831 557 831 q 358 759 410 831 q 299 558 306 688 q 394 624 340 601 q 500 646 447 646 m 431 133 q 520 183 490 133 q 550 314 550 233 q 523 452 550 410 q 443 494 496 494 q 367 475 404 494 q 299 421 329 456 q 330 203 300 272 q 431 133 360 133 z "},"7":{"ha":833,"x_min":94,"x_max":739,"o":"m 158 43 l 517 797 l 94 797 l 94 963 l 739 963 l 739 814 l 367 -22 l 158 43 z "},"8":{"ha":833,"x_min":60,"x_max":774,"o":"m 736 732 q 701 617 736 665 q 588 524 665 568 q 774 261 774 429 q 732 119 774 185 q 609 15 690 54 q 413 -24 528 -24 q 220 15 300 -24 q 100 116 140 53 q 60 256 60 179 q 106 398 60 336 q 236 496 153 460 q 128 594 160 544 q 97 721 97 643 q 139 862 97 801 q 253 955 181 922 q 418 988 326 988 q 583 956 511 988 q 696 867 656 925 q 736 732 736 810 m 306 721 q 339 638 306 671 q 446 576 372 604 q 510 643 492 610 q 528 719 528 676 q 500 806 528 774 q 418 838 472 838 q 335 808 364 838 q 306 721 306 778 m 554 263 q 535 340 554 310 q 479 391 517 369 q 371 438 442 413 q 279 269 279 379 q 315 170 279 207 q 418 133 350 133 q 520 170 486 133 q 554 263 554 207 z "},"9":{"ha":833,"x_min":61,"x_max":765,"o":"m 411 988 q 674 883 583 988 q 765 603 765 779 q 703 290 765 418 q 512 82 640 163 q 179 -42 383 1 l 133 113 q 401 227 306 156 q 529 411 497 299 q 438 352 485 372 q 333 332 390 332 q 196 371 258 332 q 97 480 133 410 q 61 640 61 550 q 107 822 61 743 q 232 944 153 900 q 411 988 311 988 m 282 647 q 315 525 282 564 q 401 486 347 486 q 539 542 472 486 q 530 707 540 646 q 492 799 519 768 q 410 831 464 831 q 315 785 349 831 q 282 647 282 740 z "},"\r":{"ha":833,"x_min":0,"x_max":0,"o":""}," ":{"ha":833,"x_min":0,"x_max":0,"o":""},"A":{"ha":833,"x_min":-15,"x_max":850,"o":"m 274 208 l 224 0 l -15 0 l 279 963 l 556 963 l 850 0 l 606 0 l 556 208 l 274 208 m 518 372 l 414 799 l 310 372 l 518 372 z "},"Á":{"ha":833,"x_min":-15,"x_max":850,"o":"m 274 208 l 224 0 l -15 0 l 279 963 l 556 963 l 850 0 l 606 0 l 556 208 l 274 208 m 518 372 l 414 799 l 310 372 l 518 372 m 607 1160 l 278 1043 l 225 1154 l 525 1324 l 607 1160 z "},"Ă":{"ha":833,"x_min":-15,"x_max":850,"o":"m 274 208 l 224 0 l -15 0 l 279 963 l 556 963 l 850 0 l 606 0 l 556 208 l 274 208 m 518 372 l 414 799 l 310 372 l 518 372 m 417 1043 q 249 1102 308 1043 q 178 1257 189 1161 l 299 1279 q 340 1216 313 1236 q 417 1196 368 1196 q 493 1216 465 1196 q 535 1279 521 1236 l 656 1257 q 585 1103 646 1163 q 417 1043 525 1043 z "},"Â":{"ha":833,"x_min":-15,"x_max":850,"o":"m 274 208 l 224 0 l -15 0 l 279 963 l 556 963 l 850 0 l 606 0 l 556 208 l 274 208 m 518 372 l 414 799 l 310 372 l 518 372 m 679 1129 l 601 1039 l 417 1157 l 232 1039 l 153 1129 l 350 1310 l 483 1310 l 679 1129 z "},"Ä":{"ha":833,"x_min":-15,"x_max":850,"o":"m 274 208 l 224 0 l -15 0 l 279 963 l 556 963 l 850 0 l 606 0 l 556 208 l 274 208 m 518 372 l 414 799 l 310 372 l 518 372 m 256 1058 q 175 1090 208 1058 q 142 1169 142 1122 q 175 1249 142 1217 q 256 1281 208 1281 q 337 1249 304 1281 q 369 1169 369 1217 q 337 1090 369 1122 q 256 1058 304 1058 m 578 1058 q 497 1091 531 1058 q 463 1169 463 1124 q 497 1248 463 1215 q 578 1281 531 1281 q 659 1249 626 1281 q 692 1169 692 1217 q 659 1090 692 1122 q 578 1058 626 1058 z "},"À":{"ha":833,"x_min":-15,"x_max":850,"o":"m 274 208 l 224 0 l -15 0 l 279 963 l 556 963 l 850 0 l 606 0 l 556 208 l 274 208 m 518 372 l 414 799 l 310 372 l 518 372 m 607 1154 l 556 1043 l 225 1160 l 308 1324 l 607 1154 z "},"Ā":{"ha":833,"x_min":-15,"x_max":850,"o":"m 274 208 l 224 0 l -15 0 l 279 963 l 556 963 l 850 0 l 606 0 l 556 208 l 274 208 m 518 372 l 414 799 l 310 372 l 518 372 m 204 1086 l 204 1239 l 628 1239 l 628 1086 l 204 1086 z "},"Ą":{"ha":833,"x_min":-15,"x_max":850,"o":"m 740 0 q 615 -68 650 -31 q 581 -153 581 -106 q 602 -203 581 -186 q 661 -221 624 -221 q 736 -211 694 -221 l 719 -340 q 638 -351 679 -351 q 487 -306 546 -351 q 428 -181 428 -261 q 472 -54 428 -104 q 599 31 515 -4 l 556 208 l 274 208 l 224 0 l -15 0 l 279 963 l 556 963 l 850 0 l 740 0 m 518 372 l 414 799 l 310 372 l 518 372 z "},"Å":{"ha":833,"x_min":-15,"x_max":850,"o":"m 274 208 l 224 0 l -15 0 l 279 963 l 556 963 l 850 0 l 606 0 l 556 208 l 274 208 m 518 372 l 414 799 l 310 372 l 518 372 m 415 1375 q 556 1322 503 1375 q 608 1193 608 1269 q 555 1063 608 1117 q 415 1008 501 1008 q 276 1063 329 1008 q 224 1193 224 1117 q 276 1322 224 1269 q 415 1375 329 1375 m 415 1261 q 371 1244 388 1261 q 354 1193 354 1226 q 371 1140 354 1158 q 415 1122 388 1122 q 461 1140 444 1122 q 478 1193 478 1158 q 461 1244 478 1226 q 415 1261 444 1261 z "},"Ã":{"ha":833,"x_min":-15,"x_max":850,"o":"m 274 208 l 224 0 l -15 0 l 279 963 l 556 963 l 850 0 l 606 0 l 556 208 l 274 208 m 518 372 l 414 799 l 310 372 l 518 372 m 494 1056 q 442 1065 464 1056 q 393 1093 419 1075 q 336 1118 358 1118 q 296 1104 311 1118 q 263 1057 281 1090 l 153 1110 q 227 1228 182 1183 q 332 1274 272 1274 q 387 1264 364 1274 q 436 1236 410 1254 q 467 1217 454 1224 q 493 1211 479 1211 q 531 1225 515 1211 q 565 1271 546 1239 l 675 1218 q 599 1100 646 1144 q 494 1056 553 1056 z "},"Æ":{"ha":833,"x_min":-17,"x_max":838,"o":"m 240 213 l 201 0 l -17 0 l 226 963 l 785 963 l 761 808 l 508 808 l 554 564 l 772 564 l 772 411 l 582 411 l 632 154 l 838 154 l 838 0 l 469 0 l 435 213 l 240 213 m 411 368 l 340 810 l 265 368 l 411 368 z "},"Ǽ":{"ha":833,"x_min":-17,"x_max":838,"o":"m 240 213 l 201 0 l -17 0 l 226 963 l 785 963 l 761 808 l 508 808 l 554 564 l 772 564 l 772 411 l 582 411 l 632 154 l 838 154 l 838 0 l 469 0 l 435 213 l 240 213 m 411 368 l 340 810 l 265 368 l 411 368 m 678 1160 l 349 1043 l 296 1154 l 596 1324 l 678 1160 z "},"B":{"ha":833,"x_min":78,"x_max":793,"o":"m 793 282 q 684 64 793 128 q 397 0 575 0 l 78 0 l 78 963 l 383 963 q 650 905 549 963 q 751 717 751 847 q 701 582 751 635 q 575 510 651 529 q 730 441 667 494 q 793 282 793 388 m 522 693 q 487 776 522 750 q 375 801 451 801 l 306 801 l 306 578 l 383 578 q 489 605 456 578 q 522 693 522 632 m 558 292 q 517 394 558 364 q 399 425 476 425 l 306 425 l 306 167 l 389 167 q 513 193 468 167 q 558 292 558 219 z "},"C":{"ha":833,"x_min":47,"x_max":818,"o":"m 497 988 q 669 961 597 988 q 806 882 742 935 l 694 747 q 503 818 607 818 q 344 735 404 818 q 283 483 283 651 q 343 234 283 315 q 507 153 403 153 q 617 175 571 153 q 715 239 663 197 l 818 107 q 494 -24 690 -24 q 262 35 363 -24 q 104 208 161 93 q 47 483 47 322 q 106 754 47 640 q 267 928 164 868 q 497 988 369 988 z "},"Ć":{"ha":833,"x_min":47,"x_max":818,"o":"m 497 988 q 669 961 597 988 q 806 882 742 935 l 694 747 q 503 818 607 818 q 344 735 404 818 q 283 483 283 651 q 343 234 283 315 q 507 153 403 153 q 617 175 571 153 q 715 239 663 197 l 818 107 q 494 -24 690 -24 q 262 35 363 -24 q 104 208 161 93 q 47 483 47 322 q 106 754 47 640 q 267 928 164 868 q 497 988 369 988 m 692 1160 l 363 1043 l 310 1154 l 610 1324 l 692 1160 z "},"Č":{"ha":833,"x_min":47,"x_max":818,"o":"m 497 988 q 669 961 597 988 q 806 882 742 935 l 694 747 q 503 818 607 818 q 344 735 404 818 q 283 483 283 651 q 343 234 283 315 q 507 153 403 153 q 617 175 571 153 q 715 239 663 197 l 818 107 q 494 -24 690 -24 q 262 35 363 -24 q 104 208 161 93 q 47 483 47 322 q 106 754 47 640 q 267 928 164 868 q 497 988 369 988 m 764 1224 l 568 1043 l 435 1043 l 238 1224 l 317 1314 l 501 1196 l 686 1314 l 764 1224 z "},"Ç":{"ha":833,"x_min":47,"x_max":818,"o":"m 531 -67 q 638 -111 601 -75 q 674 -204 674 -147 q 617 -319 674 -275 q 467 -364 560 -364 q 377 -352 419 -364 q 304 -322 335 -340 l 354 -221 q 443 -244 401 -244 q 517 -201 517 -244 q 486 -165 517 -175 q 389 -156 456 -156 l 404 -15 q 144 142 240 13 q 47 483 47 271 q 106 754 47 640 q 267 928 164 868 q 497 988 369 988 q 669 961 597 988 q 806 882 742 935 l 694 747 q 503 818 607 818 q 344 735 404 818 q 283 483 283 651 q 343 234 283 315 q 507 153 403 153 q 617 175 571 153 q 715 239 663 197 l 818 107 q 531 -22 703 -11 l 531 -67 z "},"Ĉ":{"ha":833,"x_min":47,"x_max":818,"o":"m 497 988 q 669 961 597 988 q 806 882 742 935 l 694 747 q 503 818 607 818 q 344 735 404 818 q 283 483 283 651 q 343 234 283 315 q 507 153 403 153 q 617 175 571 153 q 715 239 663 197 l 818 107 q 494 -24 690 -24 q 262 35 363 -24 q 104 208 161 93 q 47 483 47 322 q 106 754 47 640 q 267 928 164 868 q 497 988 369 988 m 764 1129 l 686 1039 l 501 1157 l 317 1039 l 238 1129 l 435 1310 l 568 1310 l 764 1129 z "},"Ċ":{"ha":833,"x_min":47,"x_max":818,"o":"m 497 988 q 669 961 597 988 q 806 882 742 935 l 694 747 q 503 818 607 818 q 344 735 404 818 q 283 483 283 651 q 343 234 283 315 q 507 153 403 153 q 617 175 571 153 q 715 239 663 197 l 818 107 q 494 -24 690 -24 q 262 35 363 -24 q 104 208 161 93 q 47 483 47 322 q 106 754 47 640 q 267 928 164 868 q 497 988 369 988 m 501 1297 q 594 1262 557 1297 q 631 1174 631 1226 q 594 1085 631 1121 q 501 1050 557 1050 q 407 1085 443 1050 q 371 1174 371 1119 q 408 1262 371 1226 q 501 1297 444 1297 z "},"D":{"ha":833,"x_min":72,"x_max":797,"o":"m 797 486 q 332 0 797 0 l 72 0 l 72 963 l 315 963 q 665 860 533 963 q 797 486 797 758 m 563 486 q 507 731 563 665 q 349 797 451 797 l 300 797 l 300 165 l 349 165 q 508 237 453 165 q 563 486 563 308 z "},"Ð":{"ha":833,"x_min":13,"x_max":815,"o":"m 333 963 q 683 860 551 963 q 815 486 815 758 q 350 0 815 0 l 90 0 l 90 421 l 13 421 l 13 560 l 90 560 l 90 963 l 333 963 m 367 165 q 524 236 469 165 q 579 486 579 307 q 552 678 579 610 q 479 772 525 746 q 367 797 433 797 l 318 797 l 318 560 l 485 560 l 485 421 l 318 421 l 318 165 l 367 165 z "},"Ď":{"ha":833,"x_min":72,"x_max":797,"o":"m 797 486 q 332 0 797 0 l 72 0 l 72 963 l 315 963 q 665 860 533 963 q 797 486 797 758 m 563 486 q 507 731 563 665 q 349 797 451 797 l 300 797 l 300 165 l 349 165 q 508 237 453 165 q 563 486 563 308 m 661 1224 l 465 1043 l 332 1043 l 135 1224 l 214 1314 l 399 1196 l 583 1314 l 661 1224 z "},"Đ":{"ha":833,"x_min":13,"x_max":815,"o":"m 333 963 q 683 860 551 963 q 815 486 815 758 q 350 0 815 0 l 90 0 l 90 421 l 13 421 l 13 560 l 90 560 l 90 963 l 333 963 m 367 165 q 524 236 469 165 q 579 486 579 307 q 552 678 579 610 q 479 772 525 746 q 367 797 433 797 l 318 797 l 318 560 l 485 560 l 485 421 l 318 421 l 318 165 l 367 165 z "},"E":{"ha":833,"x_min":129,"x_max":758,"o":"m 357 568 l 690 568 l 690 410 l 357 410 l 357 164 l 758 164 l 758 0 l 129 0 l 129 963 l 758 963 l 735 800 l 357 800 l 357 568 z "},"É":{"ha":833,"x_min":129,"x_max":758,"o":"m 357 568 l 690 568 l 690 410 l 357 410 l 357 164 l 758 164 l 758 0 l 129 0 l 129 963 l 758 963 l 735 800 l 357 800 l 357 568 m 635 1160 l 306 1043 l 253 1154 l 553 1324 l 635 1160 z "},"Ĕ":{"ha":833,"x_min":129,"x_max":758,"o":"m 357 568 l 690 568 l 690 410 l 357 410 l 357 164 l 758 164 l 758 0 l 129 0 l 129 963 l 758 963 l 735 800 l 357 800 l 357 568 m 444 1043 q 276 1102 336 1043 q 206 1257 217 1161 l 326 1279 q 368 1216 340 1236 q 444 1196 396 1196 q 521 1216 493 1196 q 563 1279 549 1236 l 683 1257 q 613 1103 674 1163 q 444 1043 553 1043 z "},"Ě":{"ha":833,"x_min":129,"x_max":758,"o":"m 357 568 l 690 568 l 690 410 l 357 410 l 357 164 l 758 164 l 758 0 l 129 0 l 129 963 l 758 963 l 735 800 l 357 800 l 357 568 m 707 1224 l 511 1043 l 378 1043 l 181 1224 l 260 1314 l 444 1196 l 629 1314 l 707 1224 z "},"Ê":{"ha":833,"x_min":129,"x_max":758,"o":"m 357 568 l 690 568 l 690 410 l 357 410 l 357 164 l 758 164 l 758 0 l 129 0 l 129 963 l 758 963 l 735 800 l 357 800 l 357 568 m 707 1129 l 629 1039 l 444 1157 l 260 1039 l 181 1129 l 378 1310 l 511 1310 l 707 1129 z "},"Ë":{"ha":833,"x_min":129,"x_max":758,"o":"m 357 568 l 690 568 l 690 410 l 357 410 l 357 164 l 758 164 l 758 0 l 129 0 l 129 963 l 758 963 l 735 800 l 357 800 l 357 568 m 283 1058 q 203 1090 236 1058 q 169 1169 169 1122 q 203 1249 169 1217 q 283 1281 236 1281 q 365 1249 332 1281 q 397 1169 397 1217 q 365 1090 397 1122 q 283 1058 332 1058 m 606 1058 q 524 1091 558 1058 q 490 1169 490 1124 q 524 1248 490 1215 q 606 1281 558 1281 q 687 1249 654 1281 q 719 1169 719 1217 q 687 1090 719 1122 q 606 1058 654 1058 z "},"Ė":{"ha":833,"x_min":129,"x_max":758,"o":"m 357 568 l 690 568 l 690 410 l 357 410 l 357 164 l 758 164 l 758 0 l 129 0 l 129 963 l 758 963 l 735 800 l 357 800 l 357 568 m 444 1297 q 537 1262 500 1297 q 574 1174 574 1226 q 537 1085 574 1121 q 444 1050 500 1050 q 350 1085 386 1050 q 314 1174 314 1119 q 351 1262 314 1226 q 444 1297 388 1297 z "},"È":{"ha":833,"x_min":129,"x_max":758,"o":"m 357 568 l 690 568 l 690 410 l 357 410 l 357 164 l 758 164 l 758 0 l 129 0 l 129 963 l 758 963 l 735 800 l 357 800 l 357 568 m 635 1154 l 583 1043 l 253 1160 l 336 1324 l 635 1154 z "},"Ē":{"ha":833,"x_min":129,"x_max":758,"o":"m 357 568 l 690 568 l 690 410 l 357 410 l 357 164 l 758 164 l 758 0 l 129 0 l 129 963 l 758 963 l 735 800 l 357 800 l 357 568 m 232 1086 l 232 1239 l 656 1239 l 656 1086 l 232 1086 z "},"Ę":{"ha":833,"x_min":129,"x_max":758,"o":"m 758 164 l 758 0 l 649 0 q 524 -68 558 -31 q 489 -153 489 -106 q 510 -203 489 -186 q 569 -221 532 -221 q 644 -211 603 -221 l 628 -340 q 546 -351 588 -351 q 395 -306 454 -351 q 336 -181 336 -261 q 447 0 336 -65 l 129 0 l 129 963 l 758 963 l 735 800 l 357 800 l 357 568 l 690 568 l 690 410 l 357 410 l 357 164 l 758 164 z "},"F":{"ha":833,"x_min":150,"x_max":782,"o":"m 379 546 l 715 546 l 715 382 l 379 382 l 379 0 l 150 0 l 150 963 l 782 963 l 760 800 l 379 800 l 379 546 z "},"G":{"ha":833,"x_min":32,"x_max":789,"o":"m 453 -24 q 140 106 247 -24 q 32 483 32 236 q 90 757 32 643 q 251 929 149 871 q 479 988 353 988 q 651 956 578 988 q 785 868 724 925 l 665 744 q 580 803 619 785 q 490 821 540 821 q 326 738 386 821 q 267 482 267 656 q 311 219 267 296 q 454 143 356 143 q 574 172 519 143 l 574 393 l 453 393 l 431 551 l 789 551 l 789 74 q 453 -24 631 -24 z "},"Ğ":{"ha":833,"x_min":32,"x_max":789,"o":"m 453 -24 q 140 106 247 -24 q 32 483 32 236 q 90 757 32 643 q 251 929 149 871 q 479 988 353 988 q 651 956 578 988 q 785 868 724 925 l 665 744 q 580 803 619 785 q 490 821 540 821 q 326 738 386 821 q 267 482 267 656 q 311 219 267 296 q 454 143 356 143 q 574 172 519 143 l 574 393 l 453 393 l 431 551 l 789 551 l 789 74 q 453 -24 631 -24 m 458 1043 q 290 1102 350 1043 q 219 1257 231 1161 l 340 1279 q 382 1216 354 1236 q 458 1196 410 1196 q 535 1216 507 1196 q 576 1279 563 1236 l 697 1257 q 627 1103 688 1163 q 458 1043 567 1043 z "},"Ĝ":{"ha":833,"x_min":32,"x_max":789,"o":"m 453 -24 q 140 106 247 -24 q 32 483 32 236 q 90 757 32 643 q 251 929 149 871 q 479 988 353 988 q 651 956 578 988 q 785 868 724 925 l 665 744 q 580 803 619 785 q 490 821 540 821 q 326 738 386 821 q 267 482 267 656 q 311 219 267 296 q 454 143 356 143 q 574 172 519 143 l 574 393 l 453 393 l 431 551 l 789 551 l 789 74 q 453 -24 631 -24 m 721 1129 l 643 1039 l 458 1157 l 274 1039 l 194 1129 l 392 1310 l 525 1310 l 721 1129 z "},"Ģ":{"ha":833,"x_min":32,"x_max":789,"o":"m 453 -24 q 140 106 247 -24 q 32 483 32 236 q 90 757 32 643 q 251 929 149 871 q 479 988 353 988 q 651 956 578 988 q 785 868 724 925 l 665 744 q 580 803 619 785 q 490 821 540 821 q 326 738 386 821 q 267 482 267 656 q 311 219 267 296 q 454 143 356 143 q 574 172 519 143 l 574 393 l 453 393 l 431 551 l 789 551 l 789 74 q 453 -24 631 -24 m 454 -90 q 532 -121 501 -90 q 563 -199 563 -151 q 531 -312 563 -249 l 463 -447 l 351 -447 l 389 -287 q 344 -199 344 -250 q 376 -122 344 -153 q 454 -90 407 -90 z "},"Ġ":{"ha":833,"x_min":32,"x_max":789,"o":"m 453 -24 q 140 106 247 -24 q 32 483 32 236 q 90 757 32 643 q 251 929 149 871 q 479 988 353 988 q 651 956 578 988 q 785 868 724 925 l 665 744 q 580 803 619 785 q 490 821 540 821 q 326 738 386 821 q 267 482 267 656 q 311 219 267 296 q 454 143 356 143 q 574 172 519 143 l 574 393 l 453 393 l 431 551 l 789 551 l 789 74 q 453 -24 631 -24 m 458 1297 q 551 1262 514 1297 q 588 1174 588 1226 q 551 1085 588 1121 q 458 1050 514 1050 q 364 1085 400 1050 q 328 1174 328 1119 q 365 1262 328 1226 q 458 1297 401 1297 z "},"H":{"ha":833,"x_min":72,"x_max":761,"o":"m 533 406 l 300 406 l 300 0 l 72 0 l 72 963 l 300 963 l 300 593 l 533 593 l 533 963 l 761 963 l 761 0 l 533 0 l 533 406 z "},"Ħ":{"ha":833,"x_min":3,"x_max":831,"o":"m 831 694 l 754 694 l 754 0 l 526 0 l 526 413 l 307 413 l 307 0 l 79 0 l 79 694 l 3 694 l 3 822 l 79 822 l 79 963 l 307 963 l 307 822 l 526 822 l 526 963 l 754 963 l 754 822 l 831 822 l 831 694 m 526 694 l 307 694 l 307 589 l 526 589 l 526 694 z "},"Ĥ":{"ha":833,"x_min":72,"x_max":761,"o":"m 533 406 l 300 406 l 300 0 l 72 0 l 72 963 l 300 963 l 300 593 l 533 593 l 533 963 l 761 963 l 761 0 l 533 0 l 533 406 m 679 1129 l 601 1039 l 417 1157 l 232 1039 l 153 1129 l 350 1310 l 483 1310 l 679 1129 z "},"I":{"ha":833,"x_min":104,"x_max":729,"o":"m 729 796 l 531 796 l 531 168 l 729 168 l 729 0 l 104 0 l 104 168 l 303 168 l 303 796 l 104 796 l 104 963 l 729 963 l 729 796 z "},"Ĳ":{"ha":833,"x_min":11,"x_max":772,"o":"m 251 -100 q 442 -37 376 -78 q 530 65 507 3 q 553 228 553 126 l 553 822 l 322 822 l 322 142 l 396 142 l 396 0 l 11 0 l 11 142 l 113 142 l 113 822 l 11 822 l 11 963 l 772 963 l 772 236 q 658 -90 772 32 q 278 -254 543 -211 l 251 -100 z "},"Í":{"ha":833,"x_min":104,"x_max":729,"o":"m 729 796 l 531 796 l 531 168 l 729 168 l 729 0 l 104 0 l 104 168 l 303 168 l 303 796 l 104 796 l 104 963 l 729 963 l 729 796 m 607 1160 l 278 1043 l 225 1154 l 525 1324 l 607 1160 z "},"Ĭ":{"ha":833,"x_min":104,"x_max":729,"o":"m 729 796 l 531 796 l 531 168 l 729 168 l 729 0 l 104 0 l 104 168 l 303 168 l 303 796 l 104 796 l 104 963 l 729 963 l 729 796 m 417 1043 q 249 1102 308 1043 q 178 1257 189 1161 l 299 1279 q 340 1216 313 1236 q 417 1196 368 1196 q 493 1216 465 1196 q 535 1279 521 1236 l 656 1257 q 585 1103 646 1163 q 417 1043 525 1043 z "},"Î":{"ha":833,"x_min":104,"x_max":729,"o":"m 729 796 l 531 796 l 531 168 l 729 168 l 729 0 l 104 0 l 104 168 l 303 168 l 303 796 l 104 796 l 104 963 l 729 963 l 729 796 m 679 1129 l 601 1039 l 417 1157 l 232 1039 l 153 1129 l 350 1310 l 483 1310 l 679 1129 z "},"Ï":{"ha":833,"x_min":104,"x_max":729,"o":"m 729 796 l 531 796 l 531 168 l 729 168 l 729 0 l 104 0 l 104 168 l 303 168 l 303 796 l 104 796 l 104 963 l 729 963 l 729 796 m 256 1058 q 175 1090 208 1058 q 142 1169 142 1122 q 175 1249 142 1217 q 256 1281 208 1281 q 337 1249 304 1281 q 369 1169 369 1217 q 337 1090 369 1122 q 256 1058 304 1058 m 578 1058 q 497 1091 531 1058 q 463 1169 463 1124 q 497 1248 463 1215 q 578 1281 531 1281 q 659 1249 626 1281 q 692 1169 692 1217 q 659 1090 692 1122 q 578 1058 626 1058 z "},"İ":{"ha":833,"x_min":104,"x_max":729,"o":"m 729 796 l 531 796 l 531 168 l 729 168 l 729 0 l 104 0 l 104 168 l 303 168 l 303 796 l 104 796 l 104 963 l 729 963 l 729 796 m 417 1297 q 509 1262 472 1297 q 546 1174 546 1226 q 509 1085 546 1121 q 417 1050 472 1050 q 322 1085 358 1050 q 286 1174 286 1119 q 323 1262 286 1226 q 417 1297 360 1297 z "},"Ì":{"ha":833,"x_min":104,"x_max":729,"o":"m 729 796 l 531 796 l 531 168 l 729 168 l 729 0 l 104 0 l 104 168 l 303 168 l 303 796 l 104 796 l 104 963 l 729 963 l 729 796 m 607 1154 l 556 1043 l 225 1160 l 308 1324 l 607 1154 z "},"Ī":{"ha":833,"x_min":104,"x_max":729,"o":"m 729 796 l 531 796 l 531 168 l 729 168 l 729 0 l 104 0 l 104 168 l 303 168 l 303 796 l 104 796 l 104 963 l 729 963 l 729 796 m 204 1086 l 204 1239 l 628 1239 l 628 1086 l 204 1086 z "},"Į":{"ha":833,"x_min":104,"x_max":729,"o":"m 531 796 l 531 168 l 729 168 l 729 0 l 531 0 q 406 -68 440 -31 q 371 -153 371 -106 q 392 -203 371 -186 q 451 -221 414 -221 q 526 -211 485 -221 l 510 -340 q 428 -351 469 -351 q 277 -306 336 -351 q 218 -181 218 -261 q 329 0 218 -65 l 104 0 l 104 168 l 303 168 l 303 796 l 104 796 l 104 963 l 729 963 l 729 796 l 531 796 z "},"Ĩ":{"ha":833,"x_min":104,"x_max":729,"o":"m 729 796 l 531 796 l 531 168 l 729 168 l 729 0 l 104 0 l 104 168 l 303 168 l 303 796 l 104 796 l 104 963 l 729 963 l 729 796 m 494 1056 q 442 1065 464 1056 q 393 1093 419 1075 q 336 1118 358 1118 q 296 1104 311 1118 q 263 1057 281 1090 l 153 1110 q 227 1228 182 1183 q 332 1274 272 1274 q 387 1264 364 1274 q 436 1236 410 1254 q 467 1217 454 1224 q 493 1211 479 1211 q 531 1225 515 1211 q 565 1271 546 1239 l 675 1218 q 599 1100 646 1144 q 494 1056 553 1056 z "},"J":{"ha":833,"x_min":54,"x_max":732,"o":"m 732 346 q 630 78 732 176 q 344 -21 528 -21 q 188 1 256 -21 q 54 69 121 24 l 140 210 q 233 163 190 176 q 332 149 276 149 q 456 198 408 149 q 504 344 504 247 l 504 796 l 210 796 l 210 963 l 732 963 l 732 346 z "},"Ĵ":{"ha":833,"x_min":54,"x_max":751,"o":"m 732 346 q 630 78 732 176 q 344 -21 528 -21 q 188 1 256 -21 q 54 69 121 24 l 140 210 q 233 163 190 176 q 332 149 276 149 q 456 198 408 149 q 504 344 504 247 l 504 796 l 210 796 l 210 963 l 732 963 l 732 346 m 751 1129 l 674 1039 l 489 1157 l 304 1039 l 225 1129 l 422 1310 l 556 1310 l 751 1129 z "},"K":{"ha":833,"x_min":82,"x_max":844,"o":"m 82 0 l 82 963 l 310 963 l 310 0 l 82 0 m 579 963 l 818 963 l 546 531 l 844 0 l 582 0 l 317 514 l 579 963 z "},"Ķ":{"ha":833,"x_min":82,"x_max":844,"o":"m 82 0 l 82 963 l 310 963 l 310 0 l 82 0 m 579 963 l 818 963 l 546 531 l 844 0 l 582 0 l 317 514 l 579 963 m 419 -90 q 497 -121 467 -90 q 528 -199 528 -151 q 496 -312 528 -249 l 428 -447 l 317 -447 l 354 -287 q 310 -199 310 -250 q 341 -122 310 -153 q 419 -90 372 -90 z "},"L":{"ha":833,"x_min":129,"x_max":774,"o":"m 129 963 l 357 963 l 357 181 l 774 181 l 751 0 l 129 0 l 129 963 z "},"Ĺ":{"ha":833,"x_min":51,"x_max":774,"o":"m 129 963 l 357 963 l 357 181 l 774 181 l 751 0 l 129 0 l 129 963 m 433 1160 l 104 1043 l 51 1154 l 351 1324 l 433 1160 z "},"Ľ":{"ha":833,"x_min":129,"x_max":774,"o":"m 129 963 l 357 963 l 357 181 l 774 181 l 751 0 l 129 0 l 129 963 m 678 969 l 569 647 l 433 669 l 485 993 l 678 969 z "},"Ļ":{"ha":833,"x_min":129,"x_max":774,"o":"m 129 963 l 357 963 l 357 181 l 774 181 l 751 0 l 129 0 l 129 963 m 442 -90 q 519 -121 489 -90 q 550 -199 550 -151 q 518 -312 550 -249 l 450 -447 l 339 -447 l 376 -287 q 332 -199 332 -250 q 363 -122 332 -153 q 442 -90 394 -90 z "},"Ŀ":{"ha":833,"x_min":129,"x_max":776,"o":"m 129 963 l 357 963 l 357 181 l 774 181 l 751 0 l 129 0 l 129 963 m 647 658 q 740 623 704 658 q 776 535 776 588 q 740 446 776 481 q 647 411 704 411 q 553 447 590 411 q 517 535 517 482 q 553 623 517 588 q 647 658 590 658 z "},"Ł":{"ha":833,"x_min":13,"x_max":794,"o":"m 794 181 l 771 0 l 150 0 l 150 318 l 86 279 l 13 400 l 150 485 l 150 963 l 378 963 l 378 626 l 550 732 l 625 614 l 378 460 l 378 181 l 794 181 z "},"M":{"ha":833,"x_min":24,"x_max":810,"o":"m 810 0 l 610 0 l 599 413 q 597 496 597 443 q 601 631 597 565 q 611 769 606 697 l 503 164 l 331 164 l 213 769 q 228 482 228 610 l 226 408 l 219 0 l 24 0 l 78 963 l 313 963 l 419 340 l 521 963 l 756 963 l 810 0 z "},"N":{"ha":833,"x_min":72,"x_max":761,"o":"m 232 774 q 256 570 246 668 q 265 363 265 472 l 265 0 l 72 0 l 72 963 l 357 963 l 601 192 q 568 594 568 406 l 568 963 l 761 963 l 761 0 l 485 0 l 232 774 z "},"Ń":{"ha":833,"x_min":72,"x_max":761,"o":"m 232 774 q 256 570 246 668 q 265 363 265 472 l 265 0 l 72 0 l 72 963 l 357 963 l 601 192 q 568 594 568 406 l 568 963 l 761 963 l 761 0 l 485 0 l 232 774 m 621 1160 l 292 1043 l 239 1154 l 539 1324 l 621 1160 z "},"Ň":{"ha":833,"x_min":72,"x_max":761,"o":"m 232 774 q 256 570 246 668 q 265 363 265 472 l 265 0 l 72 0 l 72 963 l 357 963 l 601 192 q 568 594 568 406 l 568 963 l 761 963 l 761 0 l 485 0 l 232 774 m 693 1224 l 497 1043 l 364 1043 l 167 1224 l 246 1314 l 431 1196 l 615 1314 l 693 1224 z "},"Ņ":{"ha":833,"x_min":72,"x_max":761,"o":"m 232 774 q 256 570 246 668 q 265 363 265 472 l 265 0 l 72 0 l 72 963 l 357 963 l 601 192 q 568 594 568 406 l 568 963 l 761 963 l 761 0 l 485 0 l 232 774 m 418 -90 q 496 -121 465 -90 q 526 -199 526 -151 q 494 -312 526 -249 l 426 -447 l 315 -447 l 353 -287 q 308 -199 308 -250 q 340 -122 308 -153 q 418 -90 371 -90 z "},"Ŋ":{"ha":833,"x_min":72,"x_max":761,"o":"m 761 963 l 761 -37 q 688 -244 761 -172 q 483 -317 615 -317 q 379 -301 424 -317 q 294 -254 335 -285 l 378 -126 q 422 -144 406 -139 q 461 -150 438 -150 q 515 -128 497 -150 q 533 -57 533 -107 l 533 0 l 485 0 l 232 774 q 256 570 246 668 q 265 363 265 472 l 265 0 l 72 0 l 72 963 l 357 963 l 601 192 q 568 594 568 406 l 568 963 l 761 963 z "},"Ñ":{"ha":833,"x_min":72,"x_max":761,"o":"m 232 774 q 256 570 246 668 q 265 363 265 472 l 265 0 l 72 0 l 72 963 l 357 963 l 601 192 q 568 594 568 406 l 568 963 l 761 963 l 761 0 l 485 0 l 232 774 m 508 1056 q 456 1065 478 1056 q 407 1093 433 1075 q 350 1118 372 1118 q 310 1104 325 1118 q 276 1057 294 1090 l 167 1110 q 241 1228 196 1183 q 346 1274 286 1274 q 401 1264 378 1274 q 450 1236 424 1254 q 481 1217 468 1224 q 507 1211 493 1211 q 544 1225 529 1211 q 579 1271 560 1239 l 689 1218 q 613 1100 660 1144 q 508 1056 567 1056 z "},"O":{"ha":833,"x_min":32,"x_max":801,"o":"m 801 482 q 702 112 801 247 q 417 -24 603 -24 q 131 110 229 -24 q 32 482 32 244 q 131 852 32 717 q 417 988 231 988 q 703 853 604 988 q 801 482 801 719 m 568 482 q 533 740 568 660 q 417 821 497 821 q 301 740 336 821 q 265 482 265 660 q 301 224 265 304 q 417 143 336 143 q 533 224 499 143 q 568 482 568 304 z "},"Ó":{"ha":833,"x_min":32,"x_max":801,"o":"m 801 482 q 702 112 801 247 q 417 -24 603 -24 q 131 110 229 -24 q 32 482 32 244 q 131 852 32 717 q 417 988 231 988 q 703 853 604 988 q 801 482 801 719 m 568 482 q 533 740 568 660 q 417 821 497 821 q 301 740 336 821 q 265 482 265 660 q 301 224 265 304 q 417 143 336 143 q 533 224 499 143 q 568 482 568 304 m 607 1160 l 278 1043 l 225 1154 l 525 1324 l 607 1160 z "},"Ŏ":{"ha":833,"x_min":32,"x_max":801,"o":"m 801 482 q 702 112 801 247 q 417 -24 603 -24 q 131 110 229 -24 q 32 482 32 244 q 131 852 32 717 q 417 988 231 988 q 703 853 604 988 q 801 482 801 719 m 568 482 q 533 740 568 660 q 417 821 497 821 q 301 740 336 821 q 265 482 265 660 q 301 224 265 304 q 417 143 336 143 q 533 224 499 143 q 568 482 568 304 m 417 1043 q 249 1102 308 1043 q 178 1257 189 1161 l 299 1279 q 340 1216 313 1236 q 417 1196 368 1196 q 493 1216 465 1196 q 535 1279 521 1236 l 656 1257 q 585 1103 646 1163 q 417 1043 525 1043 z "},"Ô":{"ha":833,"x_min":32,"x_max":801,"o":"m 801 482 q 702 112 801 247 q 417 -24 603 -24 q 131 110 229 -24 q 32 482 32 244 q 131 852 32 717 q 417 988 231 988 q 703 853 604 988 q 801 482 801 719 m 568 482 q 533 740 568 660 q 417 821 497 821 q 301 740 336 821 q 265 482 265 660 q 301 224 265 304 q 417 143 336 143 q 533 224 499 143 q 568 482 568 304 m 679 1129 l 601 1039 l 417 1157 l 232 1039 l 153 1129 l 350 1310 l 483 1310 l 679 1129 z "},"Ö":{"ha":833,"x_min":32,"x_max":801,"o":"m 801 482 q 702 112 801 247 q 417 -24 603 -24 q 131 110 229 -24 q 32 482 32 244 q 131 852 32 717 q 417 988 231 988 q 703 853 604 988 q 801 482 801 719 m 568 482 q 533 740 568 660 q 417 821 497 821 q 301 740 336 821 q 265 482 265 660 q 301 224 265 304 q 417 143 336 143 q 533 224 499 143 q 568 482 568 304 m 256 1058 q 175 1090 208 1058 q 142 1169 142 1122 q 175 1249 142 1217 q 256 1281 208 1281 q 337 1249 304 1281 q 369 1169 369 1217 q 337 1090 369 1122 q 256 1058 304 1058 m 578 1058 q 497 1091 531 1058 q 463 1169 463 1124 q 497 1248 463 1215 q 578 1281 531 1281 q 659 1249 626 1281 q 692 1169 692 1217 q 659 1090 692 1122 q 578 1058 626 1058 z "},"Ò":{"ha":833,"x_min":32,"x_max":801,"o":"m 801 482 q 702 112 801 247 q 417 -24 603 -24 q 131 110 229 -24 q 32 482 32 244 q 131 852 32 717 q 417 988 231 988 q 703 853 604 988 q 801 482 801 719 m 568 482 q 533 740 568 660 q 417 821 497 821 q 301 740 336 821 q 265 482 265 660 q 301 224 265 304 q 417 143 336 143 q 533 224 499 143 q 568 482 568 304 m 607 1154 l 556 1043 l 225 1160 l 308 1324 l 607 1154 z "},"Ő":{"ha":833,"x_min":32,"x_max":801,"o":"m 801 482 q 702 112 801 247 q 417 -24 603 -24 q 131 110 229 -24 q 32 482 32 244 q 131 852 32 717 q 417 988 231 988 q 703 853 604 988 q 801 482 801 719 m 568 482 q 533 740 568 660 q 417 821 497 821 q 301 740 336 821 q 265 482 265 660 q 301 224 265 304 q 417 143 336 143 q 533 224 499 143 q 568 482 568 304 m 358 1364 l 507 1296 l 335 1042 l 219 1092 l 358 1364 m 586 1364 l 733 1293 l 560 1040 l 447 1094 l 586 1364 z "},"Ō":{"ha":833,"x_min":32,"x_max":801,"o":"m 801 482 q 702 112 801 247 q 417 -24 603 -24 q 131 110 229 -24 q 32 482 32 244 q 131 852 32 717 q 417 988 231 988 q 703 853 604 988 q 801 482 801 719 m 568 482 q 533 740 568 660 q 417 821 497 821 q 301 740 336 821 q 265 482 265 660 q 301 224 265 304 q 417 143 336 143 q 533 224 499 143 q 568 482 568 304 m 204 1086 l 204 1239 l 628 1239 l 628 1086 l 204 1086 z "},"Ø":{"ha":833,"x_min":32,"x_max":801,"o":"m 635 917 q 758 744 715 856 q 801 482 801 632 q 702 112 801 247 q 417 -24 603 -24 q 344 -17 382 -24 l 306 -151 l 151 -106 l 199 47 q 75 222 118 110 q 32 482 32 333 q 131 852 32 717 q 417 988 231 988 q 488 981 450 988 l 528 1115 l 682 1069 l 635 917 m 417 825 q 294 744 332 825 q 257 482 257 663 q 289 231 257 311 l 461 819 q 417 825 433 825 m 417 139 q 540 220 503 139 q 576 482 576 301 q 546 731 576 654 l 375 144 q 417 139 392 139 z "},"Ǿ":{"ha":833,"x_min":32,"x_max":801,"o":"m 635 917 q 758 744 715 856 q 801 482 801 632 q 702 112 801 247 q 417 -24 603 -24 q 344 -17 382 -24 l 306 -151 l 151 -106 l 199 47 q 75 222 118 110 q 32 482 32 333 q 131 852 32 717 q 417 988 231 988 q 488 981 450 988 l 528 1115 l 682 1069 l 635 917 m 417 825 q 294 744 332 825 q 257 482 257 663 q 289 231 257 311 l 461 819 q 417 825 433 825 m 417 139 q 540 220 503 139 q 576 482 576 301 q 546 731 576 654 l 375 144 q 417 139 392 139 m 607 1160 l 278 1043 l 225 1154 l 525 1324 l 607 1160 z "},"Õ":{"ha":833,"x_min":32,"x_max":801,"o":"m 801 482 q 702 112 801 247 q 417 -24 603 -24 q 131 110 229 -24 q 32 482 32 244 q 131 852 32 717 q 417 988 231 988 q 703 853 604 988 q 801 482 801 719 m 568 482 q 533 740 568 660 q 417 821 497 821 q 301 740 336 821 q 265 482 265 660 q 301 224 265 304 q 417 143 336 143 q 533 224 499 143 q 568 482 568 304 m 494 1056 q 442 1065 464 1056 q 393 1093 419 1075 q 336 1118 358 1118 q 296 1104 311 1118 q 263 1057 281 1090 l 153 1110 q 227 1228 182 1183 q 332 1274 272 1274 q 387 1264 364 1274 q 436 1236 410 1254 q 467 1217 454 1224 q 493 1211 479 1211 q 531 1225 515 1211 q 565 1271 546 1239 l 675 1218 q 599 1100 646 1144 q 494 1056 553 1056 z "},"Œ":{"ha":833,"x_min":14,"x_max":829,"o":"m 313 988 q 376 981 347 988 q 444 963 406 975 l 828 963 l 806 808 l 553 808 q 607 564 599 717 l 775 564 l 775 411 l 608 411 q 546 154 600 257 l 829 154 l 829 0 l 439 0 q 373 -18 400 -12 q 313 -24 346 -24 q 85 105 157 -24 q 14 482 14 233 q 313 988 14 988 m 314 832 q 249 797 272 832 q 217 688 226 763 q 207 482 207 613 q 231 211 207 292 q 314 131 256 131 q 398 210 374 131 q 422 482 422 290 q 413 690 422 615 q 379 799 403 765 q 314 832 356 832 z "},"P":{"ha":833,"x_min":86,"x_max":800,"o":"m 800 649 q 698 403 800 486 q 419 321 596 321 l 314 321 l 314 0 l 86 0 l 86 963 l 389 963 q 694 884 589 963 q 800 649 800 806 m 567 649 q 393 800 567 800 l 314 800 l 314 485 l 404 485 q 524 525 482 485 q 567 649 567 565 z "},"Þ":{"ha":833,"x_min":82,"x_max":800,"o":"m 311 807 l 388 807 q 693 728 586 807 q 800 492 800 649 q 701 243 800 325 q 418 161 601 161 l 311 161 l 311 0 l 82 0 l 82 963 l 311 963 l 311 807 m 311 644 l 311 326 l 403 326 q 523 365 482 326 q 564 490 564 403 q 522 607 564 569 q 394 644 479 644 l 311 644 z "},"Q":{"ha":833,"x_min":44,"x_max":881,"o":"m 797 482 q 596 56 797 158 q 777 -14 713 36 q 881 -176 842 -64 l 694 -240 q 626 -115 661 -161 q 538 -44 592 -68 q 403 -19 485 -19 q 135 112 225 -19 q 44 482 44 243 q 140 853 44 718 q 421 988 236 988 q 702 854 607 988 q 797 482 797 721 m 561 482 q 549 677 561 604 q 506 785 536 750 q 421 819 475 819 q 336 784 367 819 q 293 676 306 749 q 281 482 281 603 q 312 222 281 301 q 421 143 343 143 q 506 178 476 143 q 549 287 536 214 q 561 482 561 360 z "},"R":{"ha":833,"x_min":81,"x_max":839,"o":"m 779 669 q 727 506 779 572 q 588 406 675 440 l 839 0 l 581 0 l 372 368 l 308 368 l 308 0 l 81 0 l 81 963 l 383 963 q 681 890 582 963 q 779 669 779 818 m 544 669 q 505 771 544 739 q 383 803 465 803 l 308 803 l 308 525 l 393 525 q 506 560 468 525 q 544 669 544 594 z "},"Ŕ":{"ha":833,"x_min":81,"x_max":839,"o":"m 779 669 q 727 506 779 572 q 588 406 675 440 l 839 0 l 581 0 l 372 368 l 308 368 l 308 0 l 81 0 l 81 963 l 383 963 q 681 890 582 963 q 779 669 779 818 m 544 669 q 505 771 544 739 q 383 803 465 803 l 308 803 l 308 525 l 393 525 q 506 560 468 525 q 544 669 544 594 m 607 1160 l 278 1043 l 225 1154 l 525 1324 l 607 1160 z "},"Ř":{"ha":833,"x_min":81,"x_max":839,"o":"m 779 669 q 727 506 779 572 q 588 406 675 440 l 839 0 l 581 0 l 372 368 l 308 368 l 308 0 l 81 0 l 81 963 l 383 963 q 681 890 582 963 q 779 669 779 818 m 544 669 q 505 771 544 739 q 383 803 465 803 l 308 803 l 308 525 l 393 525 q 506 560 468 525 q 544 669 544 594 m 679 1224 l 483 1043 l 350 1043 l 153 1224 l 232 1314 l 417 1196 l 601 1314 l 679 1224 z "},"Ŗ":{"ha":833,"x_min":81,"x_max":839,"o":"m 779 669 q 727 506 779 572 q 588 406 675 440 l 839 0 l 581 0 l 372 368 l 308 368 l 308 0 l 81 0 l 81 963 l 383 963 q 681 890 582 963 q 779 669 779 818 m 544 669 q 505 771 544 739 q 383 803 465 803 l 308 803 l 308 525 l 393 525 q 506 560 468 525 q 544 669 544 594 m 432 -90 q 510 -121 479 -90 q 540 -199 540 -151 q 508 -312 540 -249 l 440 -447 l 329 -447 l 367 -287 q 322 -199 322 -250 q 353 -122 322 -153 q 432 -90 385 -90 z "},"S":{"ha":833,"x_min":17,"x_max":789,"o":"m 789 282 q 742 122 789 192 q 606 15 694 53 q 397 -24 518 -24 q 17 115 158 -24 l 132 243 q 392 146 242 146 q 508 177 464 146 q 551 264 551 208 q 515 347 551 317 q 378 407 478 376 q 138 528 208 458 q 67 707 67 597 q 115 857 67 793 q 245 954 163 921 q 429 988 328 988 q 774 863 642 988 l 667 739 q 562 799 618 779 q 446 819 506 819 q 341 795 379 819 q 303 725 303 771 q 320 674 303 694 q 378 635 338 653 q 499 592 418 617 q 717 477 646 547 q 789 282 789 407 z "},"Ś":{"ha":833,"x_min":17,"x_max":789,"o":"m 789 282 q 742 122 789 192 q 606 15 694 53 q 397 -24 518 -24 q 17 115 158 -24 l 132 243 q 392 146 242 146 q 508 177 464 146 q 551 264 551 208 q 515 347 551 317 q 378 407 478 376 q 138 528 208 458 q 67 707 67 597 q 115 857 67 793 q 245 954 163 921 q 429 988 328 988 q 774 863 642 988 l 667 739 q 562 799 618 779 q 446 819 506 819 q 341 795 379 819 q 303 725 303 771 q 320 674 303 694 q 378 635 338 653 q 499 592 418 617 q 717 477 646 547 q 789 282 789 407 m 621 1160 l 292 1043 l 239 1154 l 539 1324 l 621 1160 z "},"Š":{"ha":833,"x_min":17,"x_max":789,"o":"m 789 282 q 742 122 789 192 q 606 15 694 53 q 397 -24 518 -24 q 17 115 158 -24 l 132 243 q 392 146 242 146 q 508 177 464 146 q 551 264 551 208 q 515 347 551 317 q 378 407 478 376 q 138 528 208 458 q 67 707 67 597 q 115 857 67 793 q 245 954 163 921 q 429 988 328 988 q 774 863 642 988 l 667 739 q 562 799 618 779 q 446 819 506 819 q 341 795 379 819 q 303 725 303 771 q 320 674 303 694 q 378 635 338 653 q 499 592 418 617 q 717 477 646 547 q 789 282 789 407 m 693 1224 l 497 1043 l 364 1043 l 167 1224 l 246 1314 l 431 1196 l 615 1314 l 693 1224 z "},"Ş":{"ha":833,"x_min":17,"x_max":789,"o":"m 789 282 q 701 75 789 157 q 458 -21 614 -7 l 458 -67 q 565 -111 529 -75 q 601 -204 601 -147 q 544 -319 601 -275 q 394 -364 488 -364 q 305 -352 347 -364 q 232 -322 263 -340 l 282 -221 q 371 -244 329 -244 q 444 -201 444 -244 q 414 -165 444 -175 q 317 -156 383 -156 l 331 -21 q 17 115 136 -4 l 132 243 q 392 146 242 146 q 508 177 464 146 q 551 264 551 208 q 515 347 551 317 q 378 407 478 376 q 138 528 208 458 q 67 707 67 597 q 115 857 67 793 q 245 954 163 921 q 429 988 328 988 q 774 863 642 988 l 667 739 q 562 799 618 779 q 446 819 506 819 q 341 795 379 819 q 303 725 303 771 q 320 674 303 694 q 378 635 338 653 q 499 592 418 617 q 717 477 646 547 q 789 282 789 407 z "},"Ŝ":{"ha":833,"x_min":17,"x_max":789,"o":"m 789 282 q 742 122 789 192 q 606 15 694 53 q 397 -24 518 -24 q 17 115 158 -24 l 132 243 q 392 146 242 146 q 508 177 464 146 q 551 264 551 208 q 515 347 551 317 q 378 407 478 376 q 138 528 208 458 q 67 707 67 597 q 115 857 67 793 q 245 954 163 921 q 429 988 328 988 q 774 863 642 988 l 667 739 q 562 799 618 779 q 446 819 506 819 q 341 795 379 819 q 303 725 303 771 q 320 674 303 694 q 378 635 338 653 q 499 592 418 617 q 717 477 646 547 q 789 282 789 407 m 693 1129 l 615 1039 l 431 1157 l 246 1039 l 167 1129 l 364 1310 l 497 1310 l 693 1129 z "},"Ș":{"ha":833,"x_min":17,"x_max":789,"o":"m 789 282 q 742 122 789 192 q 606 15 694 53 q 397 -24 518 -24 q 17 115 158 -24 l 132 243 q 392 146 242 146 q 508 177 464 146 q 551 264 551 208 q 515 347 551 317 q 378 407 478 376 q 138 528 208 458 q 67 707 67 597 q 115 857 67 793 q 245 954 163 921 q 429 988 328 988 q 774 863 642 988 l 667 739 q 562 799 618 779 q 446 819 506 819 q 341 795 379 819 q 303 725 303 771 q 320 674 303 694 q 378 635 338 653 q 499 592 418 617 q 717 477 646 547 q 789 282 789 407 m 418 -90 q 496 -121 465 -90 q 526 -199 526 -151 q 494 -312 526 -249 l 426 -447 l 315 -447 l 353 -287 q 308 -199 308 -250 q 340 -122 308 -153 q 418 -90 371 -90 z "},"T":{"ha":833,"x_min":31,"x_max":810,"o":"m 529 0 l 301 0 l 301 788 l 31 788 l 31 963 l 810 963 l 788 788 l 529 788 l 529 0 z "},"Ŧ":{"ha":833,"x_min":31,"x_max":810,"o":"m 529 788 l 529 564 l 692 564 l 692 436 l 529 436 l 529 0 l 301 0 l 301 436 l 140 436 l 140 564 l 301 564 l 301 788 l 31 788 l 31 963 l 810 963 l 788 788 l 529 788 z "},"Ť":{"ha":833,"x_min":31,"x_max":810,"o":"m 529 0 l 301 0 l 301 788 l 31 788 l 31 963 l 810 963 l 788 788 l 529 788 l 529 0 m 678 1224 l 482 1043 l 349 1043 l 151 1224 l 231 1314 l 415 1196 l 600 1314 l 678 1224 z "},"Ţ":{"ha":833,"x_min":31,"x_max":810,"o":"m 482 0 l 482 -67 q 589 -111 553 -75 q 625 -204 625 -147 q 568 -319 625 -275 q 418 -364 511 -364 q 328 -352 371 -364 q 254 -322 285 -340 l 306 -221 q 394 -244 353 -244 q 467 -201 467 -244 q 436 -165 467 -175 q 339 -156 406 -156 l 356 0 l 301 0 l 301 788 l 31 788 l 31 963 l 810 963 l 788 788 l 529 788 l 529 0 l 482 0 z "},"Ț":{"ha":833,"x_min":31,"x_max":810,"o":"m 529 0 l 301 0 l 301 788 l 31 788 l 31 963 l 810 963 l 788 788 l 529 788 l 529 0 m 417 -90 q 494 -121 464 -90 q 525 -199 525 -151 q 493 -312 525 -249 l 425 -447 l 314 -447 l 351 -287 q 307 -199 307 -250 q 338 -122 307 -153 q 417 -90 369 -90 z "},"U":{"ha":833,"x_min":58,"x_max":775,"o":"m 775 322 q 735 144 775 222 q 614 21 694 65 q 417 -24 533 -24 q 150 69 242 -24 q 58 322 58 163 l 58 963 l 288 963 l 288 407 q 297 258 288 314 q 335 174 307 203 q 417 146 364 146 q 498 174 469 146 q 536 258 526 203 q 546 407 546 314 l 546 963 l 775 963 l 775 322 z "},"Ú":{"ha":833,"x_min":58,"x_max":775,"o":"m 775 322 q 735 144 775 222 q 614 21 694 65 q 417 -24 533 -24 q 150 69 242 -24 q 58 322 58 163 l 58 963 l 288 963 l 288 407 q 297 258 288 314 q 335 174 307 203 q 417 146 364 146 q 498 174 469 146 q 536 258 526 203 q 546 407 546 314 l 546 963 l 775 963 l 775 322 m 607 1160 l 278 1043 l 225 1154 l 525 1324 l 607 1160 z "},"Ŭ":{"ha":833,"x_min":58,"x_max":775,"o":"m 775 322 q 735 144 775 222 q 614 21 694 65 q 417 -24 533 -24 q 150 69 242 -24 q 58 322 58 163 l 58 963 l 288 963 l 288 407 q 297 258 288 314 q 335 174 307 203 q 417 146 364 146 q 498 174 469 146 q 536 258 526 203 q 546 407 546 314 l 546 963 l 775 963 l 775 322 m 417 1043 q 249 1102 308 1043 q 178 1257 189 1161 l 299 1279 q 340 1216 313 1236 q 417 1196 368 1196 q 493 1216 465 1196 q 535 1279 521 1236 l 656 1257 q 585 1103 646 1163 q 417 1043 525 1043 z "},"Û":{"ha":833,"x_min":58,"x_max":775,"o":"m 775 322 q 735 144 775 222 q 614 21 694 65 q 417 -24 533 -24 q 150 69 242 -24 q 58 322 58 163 l 58 963 l 288 963 l 288 407 q 297 258 288 314 q 335 174 307 203 q 417 146 364 146 q 498 174 469 146 q 536 258 526 203 q 546 407 546 314 l 546 963 l 775 963 l 775 322 m 679 1129 l 601 1039 l 417 1157 l 232 1039 l 153 1129 l 350 1310 l 483 1310 l 679 1129 z "},"Ü":{"ha":833,"x_min":58,"x_max":775,"o":"m 775 322 q 735 144 775 222 q 614 21 694 65 q 417 -24 533 -24 q 150 69 242 -24 q 58 322 58 163 l 58 963 l 288 963 l 288 407 q 297 258 288 314 q 335 174 307 203 q 417 146 364 146 q 498 174 469 146 q 536 258 526 203 q 546 407 546 314 l 546 963 l 775 963 l 775 322 m 256 1058 q 175 1090 208 1058 q 142 1169 142 1122 q 175 1249 142 1217 q 256 1281 208 1281 q 337 1249 304 1281 q 369 1169 369 1217 q 337 1090 369 1122 q 256 1058 304 1058 m 578 1058 q 497 1091 531 1058 q 463 1169 463 1124 q 497 1248 463 1215 q 578 1281 531 1281 q 659 1249 626 1281 q 692 1169 692 1217 q 659 1090 692 1122 q 578 1058 626 1058 z "},"Ù":{"ha":833,"x_min":58,"x_max":775,"o":"m 775 322 q 735 144 775 222 q 614 21 694 65 q 417 -24 533 -24 q 150 69 242 -24 q 58 322 58 163 l 58 963 l 288 963 l 288 407 q 297 258 288 314 q 335 174 307 203 q 417 146 364 146 q 498 174 469 146 q 536 258 526 203 q 546 407 546 314 l 546 963 l 775 963 l 775 322 m 607 1154 l 556 1043 l 225 1160 l 308 1324 l 607 1154 z "},"Ű":{"ha":833,"x_min":58,"x_max":775,"o":"m 775 322 q 735 144 775 222 q 614 21 694 65 q 417 -24 533 -24 q 150 69 242 -24 q 58 322 58 163 l 58 963 l 288 963 l 288 407 q 297 258 288 314 q 335 174 307 203 q 417 146 364 146 q 498 174 469 146 q 536 258 526 203 q 546 407 546 314 l 546 963 l 775 963 l 775 322 m 358 1364 l 507 1296 l 335 1042 l 219 1092 l 358 1364 m 586 1364 l 733 1293 l 560 1040 l 447 1094 l 586 1364 z "},"Ū":{"ha":833,"x_min":58,"x_max":775,"o":"m 775 322 q 735 144 775 222 q 614 21 694 65 q 417 -24 533 -24 q 150 69 242 -24 q 58 322 58 163 l 58 963 l 288 963 l 288 407 q 297 258 288 314 q 335 174 307 203 q 417 146 364 146 q 498 174 469 146 q 536 258 526 203 q 546 407 546 314 l 546 963 l 775 963 l 775 322 m 204 1086 l 204 1239 l 628 1239 l 628 1086 l 204 1086 z "},"Ų":{"ha":833,"x_min":58,"x_max":775,"o":"m 775 963 l 775 322 q 715 113 775 200 q 542 -7 656 25 q 433 -73 464 -37 q 403 -153 403 -108 q 424 -203 403 -186 q 483 -221 446 -221 q 558 -211 517 -221 l 542 -340 q 460 -351 501 -351 q 309 -306 368 -351 q 250 -181 250 -261 q 335 -18 250 -78 q 128 93 199 3 q 58 322 58 183 l 58 963 l 288 963 l 288 407 q 297 258 288 314 q 335 174 307 203 q 417 146 364 146 q 498 174 469 146 q 536 258 526 203 q 546 407 546 314 l 546 963 l 775 963 z "},"Ů":{"ha":833,"x_min":58,"x_max":775,"o":"m 775 322 q 735 144 775 222 q 614 21 694 65 q 417 -24 533 -24 q 150 69 242 -24 q 58 322 58 163 l 58 963 l 288 963 l 288 407 q 297 258 288 314 q 335 174 307 203 q 417 146 364 146 q 498 174 469 146 q 536 258 526 203 q 546 407 546 314 l 546 963 l 775 963 l 775 322 m 415 1375 q 556 1322 503 1375 q 608 1193 608 1269 q 555 1063 608 1117 q 415 1008 501 1008 q 276 1063 329 1008 q 224 1193 224 1117 q 276 1322 224 1269 q 415 1375 329 1375 m 415 1261 q 371 1244 388 1261 q 354 1193 354 1226 q 371 1140 354 1158 q 415 1122 388 1122 q 461 1140 444 1122 q 478 1193 478 1158 q 461 1244 478 1226 q 415 1261 444 1261 z "},"Ũ":{"ha":833,"x_min":58,"x_max":775,"o":"m 775 322 q 735 144 775 222 q 614 21 694 65 q 417 -24 533 -24 q 150 69 242 -24 q 58 322 58 163 l 58 963 l 288 963 l 288 407 q 297 258 288 314 q 335 174 307 203 q 417 146 364 146 q 498 174 469 146 q 536 258 526 203 q 546 407 546 314 l 546 963 l 775 963 l 775 322 m 494 1056 q 442 1065 464 1056 q 393 1093 419 1075 q 336 1118 358 1118 q 296 1104 311 1118 q 263 1057 281 1090 l 153 1110 q 227 1228 182 1183 q 332 1274 272 1274 q 387 1264 364 1274 q 436 1236 410 1254 q 467 1217 454 1224 q 493 1211 479 1211 q 531 1225 515 1211 q 565 1271 546 1239 l 675 1218 q 599 1100 646 1144 q 494 1056 553 1056 z "},"V":{"ha":833,"x_min":0,"x_max":835,"o":"m 601 963 l 835 963 l 557 0 l 276 0 l 0 963 l 242 963 l 421 178 l 601 963 z "},"W":{"ha":833,"x_min":-4,"x_max":838,"o":"m 725 0 l 489 0 l 418 689 l 340 0 l 100 0 l -4 963 l 208 963 l 242 194 l 321 851 l 518 851 l 592 194 l 639 963 l 838 963 l 725 0 z "},"Ẃ":{"ha":833,"x_min":-4,"x_max":838,"o":"m 725 0 l 489 0 l 418 689 l 340 0 l 100 0 l -4 963 l 208 963 l 242 194 l 321 851 l 518 851 l 592 194 l 639 963 l 838 963 l 725 0 m 607 1160 l 278 1043 l 225 1154 l 525 1324 l 607 1160 z "},"Ŵ":{"ha":833,"x_min":-4,"x_max":838,"o":"m 725 0 l 489 0 l 418 689 l 340 0 l 100 0 l -4 963 l 208 963 l 242 194 l 321 851 l 518 851 l 592 194 l 639 963 l 838 963 l 725 0 m 679 1129 l 601 1039 l 417 1157 l 232 1039 l 153 1129 l 350 1310 l 483 1310 l 679 1129 z "},"Ẅ":{"ha":833,"x_min":-4,"x_max":838,"o":"m 725 0 l 489 0 l 418 689 l 340 0 l 100 0 l -4 963 l 208 963 l 242 194 l 321 851 l 518 851 l 592 194 l 639 963 l 838 963 l 725 0 m 256 1058 q 175 1090 208 1058 q 142 1169 142 1122 q 175 1249 142 1217 q 256 1281 208 1281 q 337 1249 304 1281 q 369 1169 369 1217 q 337 1090 369 1122 q 256 1058 304 1058 m 578 1058 q 497 1091 531 1058 q 463 1169 463 1124 q 497 1248 463 1215 q 578 1281 531 1281 q 659 1249 626 1281 q 692 1169 692 1217 q 659 1090 692 1122 q 578 1058 626 1058 z "},"Ẁ":{"ha":833,"x_min":-4,"x_max":838,"o":"m 725 0 l 489 0 l 418 689 l 340 0 l 100 0 l -4 963 l 208 963 l 242 194 l 321 851 l 518 851 l 592 194 l 639 963 l 838 963 l 725 0 m 607 1154 l 556 1043 l 225 1160 l 308 1324 l 607 1154 z "},"X":{"ha":833,"x_min":6,"x_max":829,"o":"m 272 963 l 417 654 l 565 963 l 806 963 l 550 521 l 829 0 l 583 0 l 414 367 l 247 0 l 6 0 l 278 511 l 26 963 l 272 963 z "},"Y":{"ha":833,"x_min":-11,"x_max":844,"o":"m 531 0 l 303 0 l 303 360 l -11 963 l 239 963 l 421 549 l 604 963 l 844 963 l 531 361 l 531 0 z "},"Ý":{"ha":833,"x_min":-11,"x_max":844,"o":"m 531 0 l 303 0 l 303 360 l -11 963 l 239 963 l 421 549 l 604 963 l 844 963 l 531 361 l 531 0 m 607 1160 l 278 1043 l 225 1154 l 525 1324 l 607 1160 z "},"Ŷ":{"ha":833,"x_min":-11,"x_max":844,"o":"m 531 0 l 303 0 l 303 360 l -11 963 l 239 963 l 421 549 l 604 963 l 844 963 l 531 361 l 531 0 m 679 1129 l 601 1039 l 417 1157 l 232 1039 l 153 1129 l 350 1310 l 483 1310 l 679 1129 z "},"Ÿ":{"ha":833,"x_min":-11,"x_max":844,"o":"m 531 0 l 303 0 l 303 360 l -11 963 l 239 963 l 421 549 l 604 963 l 844 963 l 531 361 l 531 0 m 256 1058 q 175 1090 208 1058 q 142 1169 142 1122 q 175 1249 142 1217 q 256 1281 208 1281 q 337 1249 304 1281 q 369 1169 369 1217 q 337 1090 369 1122 q 256 1058 304 1058 m 578 1058 q 497 1091 531 1058 q 463 1169 463 1124 q 497 1248 463 1215 q 578 1281 531 1281 q 659 1249 626 1281 q 692 1169 692 1217 q 659 1090 692 1122 q 578 1058 626 1058 z "},"Ỳ":{"ha":833,"x_min":-11,"x_max":844,"o":"m 531 0 l 303 0 l 303 360 l -11 963 l 239 963 l 421 549 l 604 963 l 844 963 l 531 361 l 531 0 m 607 1154 l 556 1043 l 225 1160 l 308 1324 l 607 1154 z "},"Z":{"ha":833,"x_min":54,"x_max":781,"o":"m 781 182 l 757 0 l 54 0 l 54 171 l 511 786 l 104 786 l 104 963 l 769 963 l 769 790 l 322 182 l 781 182 z "},"Ź":{"ha":833,"x_min":54,"x_max":781,"o":"m 781 182 l 757 0 l 54 0 l 54 171 l 511 786 l 104 786 l 104 963 l 769 963 l 769 790 l 322 182 l 781 182 m 625 1160 l 296 1043 l 243 1154 l 543 1324 l 625 1160 z "},"Ž":{"ha":833,"x_min":54,"x_max":781,"o":"m 781 182 l 757 0 l 54 0 l 54 171 l 511 786 l 104 786 l 104 963 l 769 963 l 769 790 l 322 182 l 781 182 m 697 1224 l 501 1043 l 368 1043 l 171 1224 l 250 1314 l 435 1196 l 619 1314 l 697 1224 z "},"Ż":{"ha":833,"x_min":54,"x_max":781,"o":"m 781 182 l 757 0 l 54 0 l 54 171 l 511 786 l 104 786 l 104 963 l 769 963 l 769 790 l 322 182 l 781 182 m 435 1297 q 527 1262 490 1297 q 564 1174 564 1226 q 527 1085 564 1121 q 435 1050 490 1050 q 340 1085 376 1050 q 304 1174 304 1119 q 341 1262 304 1226 q 435 1297 378 1297 z "},"a":{"ha":833,"x_min":49,"x_max":767,"o":"m 718 213 q 729 153 718 172 q 767 124 740 133 l 721 -21 q 610 9 654 -14 q 540 76 565 32 q 435 2 499 28 q 299 -24 371 -24 q 117 41 185 -24 q 49 208 49 106 q 143 394 49 328 q 408 460 238 460 l 507 460 l 507 486 q 361 600 507 600 q 267 590 324 600 q 158 561 211 579 l 108 707 q 256 748 179 733 q 396 763 333 763 q 718 501 718 763 l 718 213 m 374 133 q 449 155 411 133 q 507 214 488 176 l 507 335 l 453 335 q 275 224 275 335 q 301 157 275 181 q 374 133 326 133 z "},"á":{"ha":833,"x_min":49,"x_max":767,"o":"m 718 213 q 729 153 718 172 q 767 124 740 133 l 721 -21 q 610 9 654 -14 q 540 76 565 32 q 435 2 499 28 q 299 -24 371 -24 q 117 41 185 -24 q 49 208 49 106 q 143 394 49 328 q 408 460 238 460 l 507 460 l 507 486 q 361 600 507 600 q 267 590 324 600 q 158 561 211 579 l 108 707 q 256 748 179 733 q 396 763 333 763 q 718 501 718 763 l 718 213 m 374 133 q 449 155 411 133 q 507 214 488 176 l 507 335 l 453 335 q 275 224 275 335 q 301 157 275 181 q 374 133 326 133 m 599 994 l 269 864 l 210 976 l 513 1160 l 599 994 z "},"ă":{"ha":833,"x_min":49,"x_max":767,"o":"m 718 213 q 729 153 718 172 q 767 124 740 133 l 721 -21 q 610 9 654 -14 q 540 76 565 32 q 435 2 499 28 q 299 -24 371 -24 q 117 41 185 -24 q 49 208 49 106 q 143 394 49 328 q 408 460 238 460 l 507 460 l 507 486 q 361 600 507 600 q 267 590 324 600 q 158 561 211 579 l 108 707 q 256 748 179 733 q 396 763 333 763 q 718 501 718 763 l 718 213 m 374 133 q 449 155 411 133 q 507 214 488 176 l 507 335 l 453 335 q 275 224 275 335 q 301 157 275 181 q 374 133 326 133 m 407 850 q 238 920 299 850 q 168 1092 178 990 l 289 1113 q 331 1030 301 1060 q 407 1000 361 1000 q 483 1030 453 1000 q 525 1113 513 1060 l 646 1092 q 575 921 636 992 q 407 850 514 850 z "},"â":{"ha":833,"x_min":49,"x_max":767,"o":"m 718 213 q 729 153 718 172 q 767 124 740 133 l 721 -21 q 610 9 654 -14 q 540 76 565 32 q 435 2 499 28 q 299 -24 371 -24 q 117 41 185 -24 q 49 208 49 106 q 143 394 49 328 q 408 460 238 460 l 507 460 l 507 486 q 361 600 507 600 q 267 590 324 600 q 158 561 211 579 l 108 707 q 256 748 179 733 q 396 763 333 763 q 718 501 718 763 l 718 213 m 374 133 q 449 155 411 133 q 507 214 488 176 l 507 335 l 453 335 q 275 224 275 335 q 301 157 275 181 q 374 133 326 133 m 143 939 l 340 1132 l 474 1132 l 669 939 l 592 849 l 407 979 l 222 849 l 143 939 z "},"ä":{"ha":833,"x_min":49,"x_max":767,"o":"m 718 213 q 729 153 718 172 q 767 124 740 133 l 721 -21 q 610 9 654 -14 q 540 76 565 32 q 435 2 499 28 q 299 -24 371 -24 q 117 41 185 -24 q 49 208 49 106 q 143 394 49 328 q 408 460 238 460 l 507 460 l 507 486 q 361 600 507 600 q 267 590 324 600 q 158 561 211 579 l 108 707 q 256 748 179 733 q 396 763 333 763 q 718 501 718 763 l 718 213 m 374 133 q 449 155 411 133 q 507 214 488 176 l 507 335 l 453 335 q 275 224 275 335 q 301 157 275 181 q 374 133 326 133 m 246 885 q 165 917 199 885 q 132 997 132 950 q 165 1075 132 1043 q 246 1107 199 1107 q 328 1075 294 1107 q 361 997 361 1043 q 328 917 361 950 q 246 885 294 885 m 568 885 q 487 917 521 885 q 453 997 453 950 q 487 1075 453 1043 q 568 1107 521 1107 q 649 1075 615 1107 q 682 997 682 1043 q 649 917 682 950 q 568 885 617 885 z "},"à":{"ha":833,"x_min":49,"x_max":767,"o":"m 718 213 q 729 153 718 172 q 767 124 740 133 l 721 -21 q 610 9 654 -14 q 540 76 565 32 q 435 2 499 28 q 299 -24 371 -24 q 117 41 185 -24 q 49 208 49 106 q 143 394 49 328 q 408 460 238 460 l 507 460 l 507 486 q 361 600 507 600 q 267 590 324 600 q 158 561 211 579 l 108 707 q 256 748 179 733 q 396 763 333 763 q 718 501 718 763 l 718 213 m 374 133 q 449 155 411 133 q 507 214 488 176 l 507 335 l 453 335 q 275 224 275 335 q 301 157 275 181 q 374 133 326 133 m 217 994 l 301 1160 l 604 975 l 544 864 l 217 994 z "},"ā":{"ha":833,"x_min":49,"x_max":767,"o":"m 718 213 q 729 153 718 172 q 767 124 740 133 l 721 -21 q 610 9 654 -14 q 540 76 565 32 q 435 2 499 28 q 299 -24 371 -24 q 117 41 185 -24 q 49 208 49 106 q 143 394 49 328 q 408 460 238 460 l 507 460 l 507 486 q 361 600 507 600 q 267 590 324 600 q 158 561 211 579 l 108 707 q 256 748 179 733 q 396 763 333 763 q 718 501 718 763 l 718 213 m 374 133 q 449 155 411 133 q 507 214 488 176 l 507 335 l 453 335 q 275 224 275 335 q 301 157 275 181 q 374 133 326 133 m 194 914 l 194 1065 l 619 1065 l 619 914 l 194 914 z "},"ą":{"ha":833,"x_min":49,"x_max":767,"o":"m 721 -21 l 721 -21 q 596 -89 631 -51 q 561 -174 561 -126 q 583 -224 561 -207 q 642 -242 604 -242 q 717 -232 675 -242 l 700 -361 q 618 -372 660 -372 q 467 -327 526 -372 q 408 -201 408 -282 q 457 -70 408 -121 q 597 17 506 -19 q 540 76 564 39 q 435 2 499 28 q 299 -24 371 -24 q 117 41 185 -24 q 49 208 49 106 q 143 394 49 328 q 408 460 238 460 l 507 460 l 507 486 q 361 600 507 600 q 267 590 324 600 q 158 561 211 579 l 108 707 q 256 748 179 733 q 396 763 333 763 q 718 501 718 763 l 718 213 q 729 153 718 172 q 767 124 740 133 l 721 -21 m 507 335 l 453 335 q 275 224 275 335 q 301 157 275 181 q 374 133 326 133 q 449 155 411 133 q 507 214 488 176 l 507 335 z "},"å":{"ha":833,"x_min":49,"x_max":767,"o":"m 718 213 q 729 153 718 172 q 767 124 740 133 l 721 -21 q 610 9 654 -14 q 540 76 565 32 q 435 2 499 28 q 299 -24 371 -24 q 117 41 185 -24 q 49 208 49 106 q 143 394 49 328 q 408 460 238 460 l 507 460 l 507 486 q 361 600 507 600 q 267 590 324 600 q 158 561 211 579 l 108 707 q 256 748 179 733 q 396 763 333 763 q 718 501 718 763 l 718 213 m 374 133 q 449 155 411 133 q 507 214 488 176 l 507 335 l 453 335 q 275 224 275 335 q 301 157 275 181 q 374 133 326 133 m 406 1201 q 546 1149 493 1201 q 599 1019 599 1096 q 545 889 599 943 q 406 835 492 835 q 305 860 349 835 q 238 927 261 885 q 214 1019 214 969 q 267 1148 214 1094 q 406 1201 319 1201 m 406 1088 q 361 1070 378 1088 q 344 1019 344 1053 q 361 967 344 985 q 406 949 378 949 q 451 967 435 949 q 468 1019 468 985 q 451 1070 468 1053 q 406 1088 435 1088 z "},"ã":{"ha":833,"x_min":49,"x_max":767,"o":"m 718 213 q 729 153 718 172 q 767 124 740 133 l 721 -21 q 610 9 654 -14 q 540 76 565 32 q 435 2 499 28 q 299 -24 371 -24 q 117 41 185 -24 q 49 208 49 106 q 143 394 49 328 q 408 460 238 460 l 507 460 l 507 486 q 361 600 507 600 q 267 590 324 600 q 158 561 211 579 l 108 707 q 256 748 179 733 q 396 763 333 763 q 718 501 718 763 l 718 213 m 374 133 q 449 155 411 133 q 507 214 488 176 l 507 335 l 453 335 q 275 224 275 335 q 301 157 275 181 q 374 133 326 133 m 485 882 q 432 892 454 882 q 383 919 410 901 q 326 944 349 944 q 286 931 301 944 q 253 883 271 917 l 143 936 q 217 1055 172 1010 q 322 1100 263 1100 q 377 1090 354 1100 q 426 1063 400 1081 q 457 1044 444 1050 q 483 1038 469 1038 q 521 1051 506 1038 q 556 1097 536 1065 l 665 1044 q 590 926 636 971 q 485 882 544 882 z "},"æ":{"ha":833,"x_min":-8,"x_max":833,"o":"m 594 763 q 777 667 721 763 q 833 383 833 572 q 829 314 833 347 l 494 314 q 629 121 513 121 q 690 132 661 121 q 750 165 718 143 l 833 56 q 617 -24 740 -24 q 394 93 469 -24 q 310 3 353 31 q 199 -24 267 -24 q 47 42 103 -24 q -8 211 -8 107 q 61 392 -8 331 q 272 454 131 454 l 329 454 l 329 486 q 206 626 329 626 q 145 619 172 626 q 76 592 118 611 l 26 713 q 131 751 85 739 q 228 763 176 763 q 346 737 300 763 q 419 664 392 711 q 490 736 446 710 q 594 763 533 763 m 586 625 q 522 582 543 625 q 494 433 500 539 l 668 433 q 650 581 667 536 q 586 625 633 625 m 300 336 q 204 307 233 336 q 175 221 175 278 q 192 146 175 172 q 239 119 208 119 q 290 140 267 119 q 336 206 314 161 q 329 336 329 275 l 300 336 z "},"ǽ":{"ha":833,"x_min":-8,"x_max":833,"o":"m 594 763 q 777 667 721 763 q 833 383 833 572 q 829 314 833 347 l 494 314 q 629 121 513 121 q 690 132 661 121 q 750 165 718 143 l 833 56 q 617 -24 740 -24 q 394 93 469 -24 q 310 3 353 31 q 199 -24 267 -24 q 47 42 103 -24 q -8 211 -8 107 q 61 392 -8 331 q 272 454 131 454 l 329 454 l 329 486 q 206 626 329 626 q 145 619 172 626 q 76 592 118 611 l 26 713 q 131 751 85 739 q 228 763 176 763 q 346 737 300 763 q 419 664 392 711 q 490 736 446 710 q 594 763 533 763 m 586 625 q 522 582 543 625 q 494 433 500 539 l 668 433 q 650 581 667 536 q 586 625 633 625 m 300 336 q 204 307 233 336 q 175 221 175 278 q 192 146 175 172 q 239 119 208 119 q 290 140 267 119 q 336 206 314 161 q 329 336 329 275 l 300 336 m 611 994 l 282 864 l 222 976 l 525 1160 l 611 994 z "},"b":{"ha":833,"x_min":97,"x_max":778,"o":"m 317 663 q 401 736 351 710 q 506 763 450 763 q 710 660 643 763 q 778 371 778 557 q 743 167 778 256 q 642 27 708 78 q 482 -24 575 -24 q 379 0 426 -24 q 300 67 332 24 l 292 0 l 97 0 l 97 1031 l 317 1054 l 317 663 m 425 136 q 551 368 551 136 q 522 549 551 497 q 436 600 493 600 q 317 514 368 600 l 317 203 q 425 136 360 136 z "},"c":{"ha":833,"x_min":96,"x_max":750,"o":"m 489 150 q 569 166 531 150 q 653 213 608 182 l 750 74 q 628 3 697 29 q 476 -24 558 -24 q 273 25 358 -24 q 142 161 188 74 q 96 364 96 249 q 143 569 96 479 q 277 711 190 660 q 481 763 364 763 q 628 740 563 763 q 750 669 693 717 l 656 538 q 490 593 575 593 q 325 364 325 593 q 368 199 325 249 q 489 150 411 150 z "},"ć":{"ha":833,"x_min":96,"x_max":750,"o":"m 489 150 q 569 166 531 150 q 653 213 608 182 l 750 74 q 628 3 697 29 q 476 -24 558 -24 q 273 25 358 -24 q 142 161 188 74 q 96 364 96 249 q 143 569 96 479 q 277 711 190 660 q 481 763 364 763 q 628 740 563 763 q 750 669 693 717 l 656 538 q 490 593 575 593 q 325 364 325 593 q 368 199 325 249 q 489 150 411 150 m 669 976 l 340 846 l 281 958 l 583 1142 l 669 976 z "},"č":{"ha":833,"x_min":96,"x_max":750,"o":"m 489 150 q 569 166 531 150 q 653 213 608 182 l 750 74 q 628 3 697 29 q 476 -24 558 -24 q 273 25 358 -24 q 142 161 188 74 q 96 364 96 249 q 143 569 96 479 q 277 711 190 660 q 481 763 364 763 q 628 740 563 763 q 750 669 693 717 l 656 538 q 490 593 575 593 q 325 364 325 593 q 368 199 325 249 q 489 150 411 150 m 740 1025 l 544 831 l 411 831 l 214 1025 l 293 1114 l 478 983 l 663 1114 l 740 1025 z "},"ç":{"ha":833,"x_min":96,"x_max":750,"o":"m 513 -67 q 619 -111 583 -75 q 656 -204 656 -147 q 599 -319 656 -275 q 449 -364 542 -364 q 359 -352 401 -364 q 286 -322 317 -340 l 336 -221 q 425 -244 383 -244 q 499 -201 499 -244 q 468 -165 499 -175 q 371 -156 438 -156 l 386 -15 q 173 112 250 11 q 96 364 96 213 q 143 569 96 479 q 277 711 190 660 q 481 763 364 763 q 628 740 563 763 q 750 669 693 717 l 656 538 q 490 593 575 593 q 325 364 325 593 q 368 199 325 249 q 489 150 411 150 q 569 166 531 150 q 653 213 608 182 l 750 74 q 513 -22 651 -11 l 513 -67 z "},"ĉ":{"ha":833,"x_min":96,"x_max":750,"o":"m 489 150 q 569 166 531 150 q 653 213 608 182 l 750 74 q 628 3 697 29 q 476 -24 558 -24 q 273 25 358 -24 q 142 161 188 74 q 96 364 96 249 q 143 569 96 479 q 277 711 190 660 q 481 763 364 763 q 628 740 563 763 q 750 669 693 717 l 656 538 q 490 593 575 593 q 325 364 325 593 q 368 199 325 249 q 489 150 411 150 m 214 921 l 411 1114 l 544 1114 l 740 921 l 663 831 l 478 961 l 293 831 l 214 921 z "},"ċ":{"ha":833,"x_min":96,"x_max":750,"o":"m 489 150 q 569 166 531 150 q 653 213 608 182 l 750 74 q 628 3 697 29 q 476 -24 558 -24 q 273 25 358 -24 q 142 161 188 74 q 96 364 96 249 q 143 569 96 479 q 277 711 190 660 q 481 763 364 763 q 628 740 563 763 q 750 669 693 717 l 656 538 q 490 593 575 593 q 325 364 325 593 q 368 199 325 249 q 489 150 411 150 m 478 1106 q 571 1070 535 1106 q 607 982 607 1035 q 571 893 607 928 q 478 858 535 858 q 384 894 421 858 q 347 982 347 929 q 384 1070 347 1035 q 478 1106 421 1106 z "},"d":{"ha":833,"x_min":56,"x_max":736,"o":"m 736 1031 l 736 0 l 542 0 l 531 81 q 446 5 497 33 q 326 -24 394 -24 q 124 82 193 -24 q 56 371 56 188 q 92 574 56 485 q 194 713 128 663 q 350 763 261 763 q 517 693 450 763 l 517 1054 l 736 1031 m 408 601 q 315 545 349 601 q 282 369 282 489 q 312 190 282 242 q 396 138 342 138 q 517 222 465 138 l 517 540 q 467 586 493 571 q 408 601 442 601 z "},"ð":{"ha":833,"x_min":56,"x_max":772,"o":"m 256 876 q 129 910 200 897 l 172 1053 q 375 1001 290 1036 l 476 1107 l 589 1010 l 515 935 q 710 713 647 850 q 772 385 772 575 q 730 176 772 269 q 605 30 688 83 q 408 -24 522 -24 q 228 18 308 -24 q 101 139 147 60 q 56 325 56 218 q 97 503 56 425 q 206 626 138 582 q 354 669 274 669 q 457 652 414 669 q 539 599 500 635 q 392 808 493 735 l 314 729 l 175 793 l 256 876 m 550 356 q 549 456 550 424 q 411 515 496 515 q 314 468 349 515 q 279 328 279 421 q 314 183 279 229 q 413 136 349 136 q 517 190 483 136 q 550 356 550 243 z "},"ď":{"ha":833,"x_min":1,"x_max":963,"o":"m 682 1031 l 682 0 l 488 0 l 476 81 q 392 5 443 33 q 272 -24 340 -24 q 70 82 139 -24 q 1 371 1 188 q 38 574 1 485 q 140 713 74 663 q 296 763 207 763 q 463 693 396 763 l 463 1054 l 682 1031 m 354 601 q 261 545 294 601 q 228 369 228 489 q 258 190 228 242 q 342 138 288 138 q 463 222 411 138 l 463 540 q 413 586 439 571 q 354 601 388 601 m 963 1038 l 854 715 l 718 738 l 769 1061 l 963 1038 z "},"đ":{"ha":833,"x_min":29,"x_max":822,"o":"m 822 824 l 711 824 l 711 0 l 517 0 l 506 81 q 419 5 471 33 q 300 -24 368 -24 q 98 82 167 -24 q 29 371 29 188 q 65 574 29 485 q 168 713 101 663 q 324 763 235 763 q 492 693 425 763 l 492 824 l 321 824 l 321 951 l 492 951 l 492 1054 l 711 1031 l 711 951 l 822 951 l 822 824 m 492 540 q 383 601 443 601 q 290 545 324 601 q 256 369 256 489 q 285 190 256 242 q 371 138 315 138 q 492 222 440 138 l 492 540 z "},"e":{"ha":833,"x_min":64,"x_max":769,"o":"m 288 304 q 465 136 308 136 q 654 197 560 136 l 742 78 q 613 3 688 31 q 447 -24 538 -24 q 238 26 324 -24 q 108 163 151 75 q 64 368 64 251 q 106 569 64 479 q 230 710 149 658 q 424 763 311 763 q 607 717 529 763 q 727 587 685 672 q 769 383 769 501 q 765 304 769 338 l 288 304 m 424 615 q 328 572 364 615 q 285 438 292 528 l 556 438 q 424 615 553 615 z "},"é":{"ha":833,"x_min":64,"x_max":769,"o":"m 288 304 q 465 136 308 136 q 654 197 560 136 l 742 78 q 613 3 688 31 q 447 -24 538 -24 q 238 26 324 -24 q 108 163 151 75 q 64 368 64 251 q 106 569 64 479 q 230 710 149 658 q 424 763 311 763 q 607 717 529 763 q 727 587 685 672 q 769 383 769 501 q 765 304 769 338 l 288 304 m 424 615 q 328 572 364 615 q 285 438 292 528 l 556 438 q 424 615 553 615 m 618 994 l 289 864 l 229 976 l 532 1160 l 618 994 z "},"ĕ":{"ha":833,"x_min":64,"x_max":769,"o":"m 288 304 q 465 136 308 136 q 654 197 560 136 l 742 78 q 613 3 688 31 q 447 -24 538 -24 q 238 26 324 -24 q 108 163 151 75 q 64 368 64 251 q 106 569 64 479 q 230 710 149 658 q 424 763 311 763 q 607 717 529 763 q 727 587 685 672 q 769 383 769 501 q 765 304 769 338 l 288 304 m 424 615 q 328 572 364 615 q 285 438 292 528 l 556 438 q 424 615 553 615 m 426 850 q 258 920 318 850 q 188 1092 197 990 l 308 1113 q 351 1030 321 1060 q 426 1000 381 1000 q 502 1030 472 1000 q 544 1113 532 1060 l 665 1092 q 594 921 656 992 q 426 850 533 850 z "},"ě":{"ha":833,"x_min":64,"x_max":769,"o":"m 288 304 q 465 136 308 136 q 654 197 560 136 l 742 78 q 613 3 688 31 q 447 -24 538 -24 q 238 26 324 -24 q 108 163 151 75 q 64 368 64 251 q 106 569 64 479 q 230 710 149 658 q 424 763 311 763 q 607 717 529 763 q 727 587 685 672 q 769 383 769 501 q 765 304 769 338 l 288 304 m 424 615 q 328 572 364 615 q 285 438 292 528 l 556 438 q 424 615 553 615 m 689 1043 l 493 849 l 360 849 l 163 1043 l 242 1132 l 426 1001 l 611 1132 l 689 1043 z "},"ê":{"ha":833,"x_min":64,"x_max":769,"o":"m 288 304 q 465 136 308 136 q 654 197 560 136 l 742 78 q 613 3 688 31 q 447 -24 538 -24 q 238 26 324 -24 q 108 163 151 75 q 64 368 64 251 q 106 569 64 479 q 230 710 149 658 q 424 763 311 763 q 607 717 529 763 q 727 587 685 672 q 769 383 769 501 q 765 304 769 338 l 288 304 m 424 615 q 328 572 364 615 q 285 438 292 528 l 556 438 q 424 615 553 615 m 163 939 l 360 1132 l 493 1132 l 689 939 l 611 849 l 426 979 l 242 849 l 163 939 z "},"ë":{"ha":833,"x_min":64,"x_max":769,"o":"m 288 304 q 465 136 308 136 q 654 197 560 136 l 742 78 q 613 3 688 31 q 447 -24 538 -24 q 238 26 324 -24 q 108 163 151 75 q 64 368 64 251 q 106 569 64 479 q 230 710 149 658 q 424 763 311 763 q 607 717 529 763 q 727 587 685 672 q 769 383 769 501 q 765 304 769 338 l 288 304 m 424 615 q 328 572 364 615 q 285 438 292 528 l 556 438 q 424 615 553 615 m 265 885 q 185 917 218 885 q 151 997 151 950 q 185 1075 151 1043 q 265 1107 218 1107 q 347 1075 314 1107 q 381 997 381 1043 q 347 917 381 950 q 265 885 314 885 m 588 885 q 506 917 540 885 q 472 997 472 950 q 506 1075 472 1043 q 588 1107 540 1107 q 668 1075 635 1107 q 701 997 701 1043 q 669 917 701 950 q 588 885 636 885 z "},"ė":{"ha":833,"x_min":64,"x_max":769,"o":"m 288 304 q 465 136 308 136 q 654 197 560 136 l 742 78 q 613 3 688 31 q 447 -24 538 -24 q 238 26 324 -24 q 108 163 151 75 q 64 368 64 251 q 106 569 64 479 q 230 710 149 658 q 424 763 311 763 q 607 717 529 763 q 727 587 685 672 q 769 383 769 501 q 765 304 769 338 l 288 304 m 424 615 q 328 572 364 615 q 285 438 292 528 l 556 438 q 424 615 553 615 m 426 1124 q 519 1088 483 1124 q 556 1000 556 1053 q 519 911 556 946 q 426 876 483 876 q 333 912 369 876 q 296 1000 296 947 q 333 1088 296 1053 q 426 1124 369 1124 z "},"è":{"ha":833,"x_min":64,"x_max":769,"o":"m 288 304 q 465 136 308 136 q 654 197 560 136 l 742 78 q 613 3 688 31 q 447 -24 538 -24 q 238 26 324 -24 q 108 163 151 75 q 64 368 64 251 q 106 569 64 479 q 230 710 149 658 q 424 763 311 763 q 607 717 529 763 q 727 587 685 672 q 769 383 769 501 q 765 304 769 338 l 288 304 m 424 615 q 328 572 364 615 q 285 438 292 528 l 556 438 q 424 615 553 615 m 236 994 l 321 1160 l 624 975 l 564 864 l 236 994 z "},"ē":{"ha":833,"x_min":64,"x_max":769,"o":"m 288 304 q 465 136 308 136 q 654 197 560 136 l 742 78 q 613 3 688 31 q 447 -24 538 -24 q 238 26 324 -24 q 108 163 151 75 q 64 368 64 251 q 106 569 64 479 q 230 710 149 658 q 424 763 311 763 q 607 717 529 763 q 727 587 685 672 q 769 383 769 501 q 765 304 769 338 l 288 304 m 424 615 q 328 572 364 615 q 285 438 292 528 l 556 438 q 424 615 553 615 m 214 914 l 214 1065 l 639 1065 l 639 914 l 214 914 z "},"ę":{"ha":833,"x_min":64,"x_max":769,"o":"m 769 383 q 765 304 769 338 l 288 304 q 465 136 308 136 q 654 197 560 136 l 742 78 q 604 1 679 25 l 604 0 q 479 -68 514 -31 q 444 -153 444 -106 q 466 -203 444 -186 q 525 -221 488 -221 q 600 -211 558 -221 l 583 -340 q 501 -351 543 -351 q 351 -306 410 -351 q 292 -181 292 -261 q 388 -21 292 -83 q 147 101 231 -4 q 64 368 64 206 q 106 569 64 479 q 230 710 149 658 q 424 763 311 763 q 607 717 529 763 q 727 587 685 672 q 769 383 769 501 m 556 438 q 424 615 553 615 q 328 572 364 615 q 285 438 292 528 l 556 438 z "},"f":{"ha":833,"x_min":106,"x_max":819,"o":"m 567 1054 q 819 1007 708 1054 l 758 864 q 601 892 688 892 q 508 868 536 892 q 479 790 479 844 l 479 692 l 719 692 l 694 539 l 479 539 l 479 0 l 261 0 l 261 539 l 106 539 l 106 692 l 261 692 l 261 797 q 341 983 261 911 q 567 1054 421 1054 z "},"g":{"ha":833,"x_min":43,"x_max":803,"o":"m 803 694 q 590 665 731 665 q 698 589 663 633 q 733 475 733 544 q 694 348 733 404 q 585 260 656 292 q 421 228 514 228 q 335 236 375 228 q 317 219 324 231 q 311 194 311 207 q 327 162 311 174 q 392 150 343 150 l 514 150 q 661 122 597 150 q 760 46 725 94 q 794 -64 794 -3 q 694 -244 794 -179 q 400 -308 593 -308 q 184 -280 263 -308 q 74 -200 106 -251 q 43 -71 43 -149 l 238 -71 q 251 -125 238 -106 q 300 -154 264 -144 q 406 -164 336 -164 q 540 -142 503 -164 q 576 -79 576 -119 q 549 -26 576 -46 q 469 -6 522 -6 l 353 -6 q 182 35 239 -6 q 125 140 125 76 q 147 219 125 182 q 207 281 168 256 q 107 369 138 318 q 76 492 76 419 q 118 635 76 574 q 235 728 160 696 q 406 761 310 761 q 594 783 517 758 q 753 856 672 807 l 803 694 m 411 618 q 328 585 358 618 q 299 494 299 551 q 329 401 299 435 q 411 368 360 368 q 494 401 465 368 q 524 497 524 433 q 411 618 524 618 z "},"ğ":{"ha":833,"x_min":43,"x_max":803,"o":"m 803 694 q 590 665 731 665 q 698 589 663 633 q 733 475 733 544 q 694 348 733 404 q 585 260 656 292 q 421 228 514 228 q 335 236 375 228 q 317 219 324 231 q 311 194 311 207 q 327 162 311 174 q 392 150 343 150 l 514 150 q 661 122 597 150 q 760 46 725 94 q 794 -64 794 -3 q 694 -244 794 -179 q 400 -308 593 -308 q 184 -280 263 -308 q 74 -200 106 -251 q 43 -71 43 -149 l 238 -71 q 251 -125 238 -106 q 300 -154 264 -144 q 406 -164 336 -164 q 540 -142 503 -164 q 576 -79 576 -119 q 549 -26 576 -46 q 469 -6 522 -6 l 353 -6 q 182 35 239 -6 q 125 140 125 76 q 147 219 125 182 q 207 281 168 256 q 107 369 138 318 q 76 492 76 419 q 118 635 76 574 q 235 728 160 696 q 406 761 310 761 q 594 783 517 758 q 753 856 672 807 l 803 694 m 411 618 q 328 585 358 618 q 299 494 299 551 q 329 401 299 435 q 411 368 360 368 q 494 401 465 368 q 524 497 524 433 q 411 618 524 618 m 418 850 q 249 920 310 850 q 179 1092 189 990 l 300 1113 q 342 1030 313 1060 q 418 1000 372 1000 q 494 1030 464 1000 q 536 1113 524 1060 l 657 1092 q 586 921 647 992 q 418 850 525 850 z "},"ĝ":{"ha":833,"x_min":43,"x_max":803,"o":"m 803 694 q 590 665 731 665 q 698 589 663 633 q 733 475 733 544 q 694 348 733 404 q 585 260 656 292 q 421 228 514 228 q 335 236 375 228 q 317 219 324 231 q 311 194 311 207 q 327 162 311 174 q 392 150 343 150 l 514 150 q 661 122 597 150 q 760 46 725 94 q 794 -64 794 -3 q 694 -244 794 -179 q 400 -308 593 -308 q 184 -280 263 -308 q 74 -200 106 -251 q 43 -71 43 -149 l 238 -71 q 251 -125 238 -106 q 300 -154 264 -144 q 406 -164 336 -164 q 540 -142 503 -164 q 576 -79 576 -119 q 549 -26 576 -46 q 469 -6 522 -6 l 353 -6 q 182 35 239 -6 q 125 140 125 76 q 147 219 125 182 q 207 281 168 256 q 107 369 138 318 q 76 492 76 419 q 118 635 76 574 q 235 728 160 696 q 406 761 310 761 q 594 783 517 758 q 753 856 672 807 l 803 694 m 411 618 q 328 585 358 618 q 299 494 299 551 q 329 401 299 435 q 411 368 360 368 q 494 401 465 368 q 524 497 524 433 q 411 618 524 618 m 154 939 l 351 1132 l 485 1132 l 681 939 l 603 849 l 418 979 l 233 849 l 154 939 z "},"ģ":{"ha":833,"x_min":43,"x_max":803,"o":"m 418 828 q 340 858 371 828 q 310 936 310 889 q 342 1050 310 986 l 410 1185 l 521 1185 l 483 1025 q 528 936 528 988 q 497 859 528 890 q 418 828 465 828 m 803 694 q 590 665 731 665 q 698 589 663 633 q 733 475 733 544 q 694 348 733 404 q 585 260 656 292 q 421 228 514 228 q 335 236 375 228 q 317 219 324 231 q 311 194 311 207 q 327 162 311 174 q 392 150 343 150 l 514 150 q 661 122 597 150 q 760 46 725 94 q 794 -64 794 -3 q 694 -244 794 -179 q 400 -308 593 -308 q 184 -280 263 -308 q 74 -200 106 -251 q 43 -71 43 -149 l 238 -71 q 251 -125 238 -106 q 300 -154 264 -144 q 406 -164 336 -164 q 540 -142 503 -164 q 576 -79 576 -119 q 549 -26 576 -46 q 469 -6 522 -6 l 353 -6 q 182 35 239 -6 q 125 140 125 76 q 147 219 125 182 q 207 281 168 256 q 107 369 138 318 q 76 492 76 419 q 118 635 76 574 q 235 728 160 696 q 406 761 310 761 q 594 783 517 758 q 753 856 672 807 l 803 694 m 411 618 q 328 585 358 618 q 299 494 299 551 q 329 401 299 435 q 411 368 360 368 q 494 401 465 368 q 524 497 524 433 q 411 618 524 618 z "},"ġ":{"ha":833,"x_min":43,"x_max":803,"o":"m 803 694 q 590 665 731 665 q 698 589 663 633 q 733 475 733 544 q 694 348 733 404 q 585 260 656 292 q 421 228 514 228 q 335 236 375 228 q 317 219 324 231 q 311 194 311 207 q 327 162 311 174 q 392 150 343 150 l 514 150 q 661 122 597 150 q 760 46 725 94 q 794 -64 794 -3 q 694 -244 794 -179 q 400 -308 593 -308 q 184 -280 263 -308 q 74 -200 106 -251 q 43 -71 43 -149 l 238 -71 q 251 -125 238 -106 q 300 -154 264 -144 q 406 -164 336 -164 q 540 -142 503 -164 q 576 -79 576 -119 q 549 -26 576 -46 q 469 -6 522 -6 l 353 -6 q 182 35 239 -6 q 125 140 125 76 q 147 219 125 182 q 207 281 168 256 q 107 369 138 318 q 76 492 76 419 q 118 635 76 574 q 235 728 160 696 q 406 761 310 761 q 594 783 517 758 q 753 856 672 807 l 803 694 m 411 618 q 328 585 358 618 q 299 494 299 551 q 329 401 299 435 q 411 368 360 368 q 494 401 465 368 q 524 497 524 433 q 411 618 524 618 m 418 1124 q 511 1088 475 1124 q 547 1000 547 1053 q 511 911 547 946 q 418 876 475 876 q 324 912 361 876 q 288 1000 288 947 q 324 1088 288 1053 q 418 1124 361 1124 z "},"h":{"ha":833,"x_min":97,"x_max":736,"o":"m 317 664 q 533 763 410 763 q 683 705 631 763 q 736 542 736 647 l 736 0 l 517 0 l 517 481 q 501 574 517 547 q 446 600 486 600 q 381 577 413 600 q 317 510 350 554 l 317 0 l 97 0 l 97 1031 l 317 1053 l 317 664 z "},"ħ":{"ha":833,"x_min":11,"x_max":736,"o":"m 533 763 q 683 705 631 763 q 736 542 736 647 l 736 0 l 517 0 l 517 481 q 501 574 517 547 q 446 600 486 600 q 381 577 413 600 q 317 510 350 554 l 317 0 l 97 0 l 97 824 l 11 824 l 11 951 l 97 951 l 97 1031 l 317 1053 l 317 951 l 513 951 l 513 824 l 317 824 l 317 664 q 533 763 410 763 z "},"ĥ":{"ha":833,"x_min":97,"x_max":736,"o":"m 317 664 q 533 763 410 763 q 683 705 631 763 q 736 542 736 647 l 736 0 l 517 0 l 517 481 q 501 574 517 547 q 446 600 486 600 q 381 577 413 600 q 317 510 350 554 l 317 0 l 97 0 l 97 1031 l 317 1053 l 317 664 m 679 1197 l 601 1107 l 417 1225 l 232 1107 l 153 1197 l 350 1378 l 483 1378 l 679 1197 z "},"i":{"ha":833,"x_min":119,"x_max":736,"o":"m 415 1124 q 508 1088 472 1124 q 544 1000 544 1053 q 508 911 544 946 q 415 876 472 876 q 322 912 358 876 q 285 1000 285 947 q 322 1088 285 1053 q 415 1124 358 1124 m 547 150 l 736 150 l 736 0 l 119 0 l 119 150 l 328 150 l 328 588 l 126 588 l 126 738 l 547 738 l 547 150 z "},"ı":{"ha":833,"x_min":119,"x_max":736,"o":"m 547 150 l 736 150 l 736 0 l 119 0 l 119 150 l 328 150 l 328 588 l 126 588 l 126 738 l 547 738 l 547 150 z "},"í":{"ha":833,"x_min":119,"x_max":736,"o":"m 547 150 l 736 150 l 736 0 l 119 0 l 119 150 l 328 150 l 328 588 l 126 588 l 126 738 l 547 738 l 547 150 m 607 994 l 278 864 l 218 976 l 521 1160 l 607 994 z "},"ĭ":{"ha":833,"x_min":119,"x_max":736,"o":"m 547 150 l 736 150 l 736 0 l 119 0 l 119 150 l 328 150 l 328 588 l 126 588 l 126 738 l 547 738 l 547 150 m 415 850 q 247 920 307 850 q 176 1092 186 990 l 297 1113 q 340 1030 310 1060 q 415 1000 369 1000 q 491 1030 461 1000 q 533 1113 521 1060 l 654 1092 q 583 921 644 992 q 415 850 522 850 z "},"î":{"ha":833,"x_min":119,"x_max":736,"o":"m 547 150 l 736 150 l 736 0 l 119 0 l 119 150 l 328 150 l 328 588 l 126 588 l 126 738 l 547 738 l 547 150 m 151 939 l 349 1132 l 482 1132 l 678 939 l 600 849 l 415 979 l 231 849 l 151 939 z "},"ï":{"ha":833,"x_min":119,"x_max":736,"o":"m 547 150 l 736 150 l 736 0 l 119 0 l 119 150 l 328 150 l 328 588 l 126 588 l 126 738 l 547 738 l 547 150 m 254 885 q 174 917 207 885 q 140 997 140 950 q 174 1075 140 1043 q 254 1107 207 1107 q 336 1075 303 1107 q 369 997 369 1043 q 336 917 369 950 q 254 885 303 885 m 576 885 q 495 917 529 885 q 461 997 461 950 q 495 1075 461 1043 q 576 1107 529 1107 q 657 1075 624 1107 q 690 997 690 1043 q 658 917 690 950 q 576 885 625 885 z "},"ì":{"ha":833,"x_min":119,"x_max":736,"o":"m 547 150 l 736 150 l 736 0 l 119 0 l 119 150 l 328 150 l 328 588 l 126 588 l 126 738 l 547 738 l 547 150 m 225 994 l 310 1160 l 613 975 l 553 864 l 225 994 z "},"ĳ":{"ha":833,"x_min":49,"x_max":764,"o":"m 253 1124 q 348 1088 311 1124 q 385 1000 385 1053 q 348 911 385 946 q 253 876 311 876 q 160 912 197 876 q 124 1000 124 947 q 160 1088 124 1053 q 253 1124 197 1124 m 633 1124 q 726 1088 689 1124 q 764 1000 764 1053 q 726 912 764 947 q 633 876 689 876 q 540 912 576 876 q 503 1000 503 947 q 540 1088 503 1053 q 633 1124 576 1124 m 757 169 q 710 -62 757 29 q 573 -209 663 -153 q 340 -308 483 -265 l 268 -146 q 424 -82 367 -115 q 510 6 481 -49 q 539 150 539 61 l 539 589 l 361 589 l 361 150 l 433 150 l 433 0 l 49 0 l 49 150 l 144 150 l 144 589 l 56 589 l 56 738 l 757 738 l 757 169 z "},"ī":{"ha":833,"x_min":119,"x_max":736,"o":"m 547 150 l 736 150 l 736 0 l 119 0 l 119 150 l 328 150 l 328 588 l 126 588 l 126 738 l 547 738 l 547 150 m 203 914 l 203 1065 l 628 1065 l 628 914 l 203 914 z "},"į":{"ha":833,"x_min":119,"x_max":736,"o":"m 415 876 q 322 912 358 876 q 285 1000 285 947 q 322 1088 285 1053 q 415 1124 358 1124 q 508 1088 472 1124 q 544 1000 544 1053 q 508 911 544 946 q 415 876 472 876 m 736 150 l 736 0 l 547 0 q 422 -68 457 -31 q 388 -153 388 -106 q 409 -203 388 -186 q 468 -221 431 -221 q 543 -211 501 -221 l 526 -340 q 444 -351 486 -351 q 294 -306 353 -351 q 235 -181 235 -261 q 346 0 235 -65 l 119 0 l 119 150 l 328 150 l 328 588 l 126 588 l 126 738 l 547 738 l 547 150 l 736 150 z "},"ĩ":{"ha":833,"x_min":119,"x_max":736,"o":"m 547 150 l 736 150 l 736 0 l 119 0 l 119 150 l 328 150 l 328 588 l 126 588 l 126 738 l 547 738 l 547 150 m 493 882 q 440 892 463 882 q 392 919 418 901 q 335 944 357 944 q 294 931 310 944 q 261 883 279 917 l 151 936 q 226 1055 181 1010 q 331 1100 271 1100 q 385 1090 363 1100 q 435 1063 408 1081 q 465 1044 453 1050 q 492 1038 478 1038 q 529 1051 514 1038 q 564 1097 544 1065 l 674 1044 q 599 926 644 971 q 493 882 553 882 z "},"j":{"ha":833,"x_min":97,"x_max":656,"o":"m 514 1124 q 606 1088 569 1124 q 643 1000 643 1053 q 606 912 643 947 q 514 876 569 876 q 419 911 456 876 q 383 1000 383 946 q 420 1088 383 1053 q 514 1124 457 1124 m 656 214 q 597 -47 656 57 q 424 -212 539 -150 q 131 -308 310 -274 l 97 -140 q 288 -75 215 -114 q 399 30 361 -36 q 436 200 436 96 l 436 588 l 172 588 l 172 738 l 656 738 l 656 214 z "},"ȷ":{"ha":833,"x_min":97,"x_max":656,"o":"m 656 214 q 597 -47 656 57 q 424 -212 539 -150 q 131 -308 310 -274 l 97 -140 q 288 -75 215 -114 q 399 30 361 -36 q 436 200 436 96 l 436 588 l 172 588 l 172 738 l 656 738 l 656 214 z "},"ĵ":{"ha":833,"x_min":97,"x_max":776,"o":"m 656 214 q 597 -47 656 57 q 424 -212 539 -150 q 131 -308 310 -274 l 97 -140 q 288 -75 215 -114 q 399 30 361 -36 q 436 200 436 96 l 436 588 l 172 588 l 172 738 l 656 738 l 656 214 m 250 939 l 447 1132 l 581 1132 l 776 939 l 699 849 l 514 979 l 329 849 l 250 939 z "},"k":{"ha":833,"x_min":97,"x_max":817,"o":"m 317 0 l 97 0 l 97 1031 l 317 1054 l 317 0 m 554 411 l 817 0 l 567 0 l 325 404 l 568 738 l 797 738 l 554 411 z "},"ķ":{"ha":833,"x_min":97,"x_max":817,"o":"m 317 0 l 97 0 l 97 1031 l 317 1054 l 317 0 m 554 411 l 817 0 l 567 0 l 325 404 l 568 738 l 797 738 l 554 411 m 417 -90 q 494 -121 464 -90 q 525 -199 525 -151 q 493 -312 525 -249 l 425 -447 l 314 -447 l 351 -287 q 307 -199 307 -250 q 338 -122 307 -153 q 417 -90 369 -90 z "},"ĸ":{"ha":833,"x_min":97,"x_max":817,"o":"m 317 0 l 97 0 l 97 738 l 317 738 l 317 0 m 553 399 l 817 0 l 567 0 l 325 383 l 568 738 l 797 738 l 553 399 z "},"l":{"ha":833,"x_min":46,"x_max":733,"o":"m 482 232 q 576 150 482 150 q 682 172 628 150 l 733 25 q 521 -24 644 -24 q 327 51 392 -24 q 263 260 263 125 l 263 881 l 46 881 l 46 1031 l 482 1031 l 482 232 z "},"ĺ":{"ha":833,"x_min":46,"x_max":733,"o":"m 482 232 q 576 150 482 150 q 682 172 628 150 l 733 25 q 521 -24 644 -24 q 327 51 392 -24 q 263 260 263 125 l 263 881 l 46 881 l 46 1031 l 482 1031 l 482 232 m 547 1288 l 218 1157 l 158 1269 l 461 1453 l 547 1288 z "},"ľ":{"ha":833,"x_min":46,"x_max":776,"o":"m 482 232 q 576 150 482 150 q 682 172 628 150 l 733 25 q 521 -24 644 -24 q 327 51 392 -24 q 263 260 263 125 l 263 881 l 46 881 l 46 1031 l 482 1031 l 482 232 m 776 1038 l 668 715 l 532 738 l 583 1061 l 776 1038 z "},"ļ":{"ha":833,"x_min":46,"x_max":733,"o":"m 482 232 q 576 150 482 150 q 682 172 628 150 l 733 25 q 521 -24 644 -24 q 327 51 392 -24 q 263 260 263 125 l 263 881 l 46 881 l 46 1031 l 482 1031 l 482 232 m 493 -90 q 571 -121 540 -90 q 601 -199 601 -151 q 569 -312 601 -249 l 501 -447 l 390 -447 l 428 -287 q 383 -199 383 -250 q 415 -122 383 -153 q 493 -90 446 -90 z "},"ŀ":{"ha":833,"x_min":46,"x_max":918,"o":"m 482 232 q 576 150 482 150 q 682 172 628 150 l 733 25 q 521 -24 644 -24 q 327 51 392 -24 q 263 260 263 125 l 263 881 l 46 881 l 46 1031 l 482 1031 l 482 232 m 789 656 q 882 620 846 656 q 918 532 918 585 q 882 443 918 478 q 789 408 846 408 q 695 444 732 408 q 658 532 658 479 q 695 620 658 585 q 789 656 732 656 z "},"ł":{"ha":833,"x_min":46,"x_max":733,"o":"m 733 25 q 521 -24 644 -24 q 327 51 392 -24 q 263 260 263 125 l 263 358 l 200 321 l 124 443 l 263 528 l 263 881 l 46 881 l 46 1031 l 482 1031 l 482 663 l 572 718 l 650 594 l 482 492 l 482 232 q 576 150 482 150 q 682 172 628 150 l 733 25 z "},"m":{"ha":833,"x_min":38,"x_max":796,"o":"m 643 763 q 759 710 722 763 q 796 546 796 658 l 796 0 l 608 0 l 608 521 q 601 576 608 561 q 572 592 593 592 q 496 543 533 592 l 496 0 l 340 0 l 340 521 q 333 576 340 561 q 304 592 325 592 q 228 543 265 592 l 228 0 l 38 0 l 38 738 l 197 738 l 213 667 q 284 740 249 717 q 367 763 319 763 q 439 741 410 763 q 481 675 468 719 q 643 763 556 763 z "},"n":{"ha":833,"x_min":97,"x_max":736,"o":"m 97 738 l 289 738 l 304 653 q 409 735 354 708 q 533 763 464 763 q 683 704 629 763 q 736 542 736 646 l 736 0 l 517 0 l 517 478 q 501 574 517 547 q 446 600 486 600 q 381 578 413 600 q 317 515 350 557 l 317 0 l 97 0 l 97 738 z "},"ń":{"ha":833,"x_min":97,"x_max":736,"o":"m 97 738 l 289 738 l 304 653 q 409 735 354 708 q 533 763 464 763 q 683 704 629 763 q 736 542 736 646 l 736 0 l 517 0 l 517 478 q 501 574 517 547 q 446 600 486 600 q 381 578 413 600 q 317 515 350 557 l 317 0 l 97 0 l 97 738 m 610 994 l 281 864 l 221 976 l 524 1160 l 610 994 z "},"ŉ":{"ha":833,"x_min":-24,"x_max":764,"o":"m 82 1061 q 158 1031 128 1061 q 189 957 189 1001 q 181 910 189 932 q 156 854 174 888 l 99 743 l -10 743 l 19 871 q -24 957 -24 907 q 7 1031 -24 1000 q 82 1061 38 1061 m 125 738 l 317 738 l 332 653 q 436 735 381 708 q 561 763 492 763 q 710 704 656 763 q 764 542 764 646 l 764 0 l 544 0 l 544 478 q 529 573 544 546 q 474 600 514 600 q 344 515 410 600 l 344 0 l 125 0 l 125 738 z "},"ň":{"ha":833,"x_min":97,"x_max":736,"o":"m 97 738 l 289 738 l 304 653 q 409 735 354 708 q 533 763 464 763 q 683 704 629 763 q 736 542 736 646 l 736 0 l 517 0 l 517 478 q 501 574 517 547 q 446 600 486 600 q 381 578 413 600 q 317 515 350 557 l 317 0 l 97 0 l 97 738 m 681 1043 l 485 849 l 351 849 l 154 1043 l 233 1132 l 418 1001 l 603 1132 l 681 1043 z "},"ņ":{"ha":833,"x_min":97,"x_max":736,"o":"m 97 738 l 289 738 l 304 653 q 409 735 354 708 q 533 763 464 763 q 683 704 629 763 q 736 542 736 646 l 736 0 l 517 0 l 517 478 q 501 574 517 547 q 446 600 486 600 q 381 578 413 600 q 317 515 350 557 l 317 0 l 97 0 l 97 738 m 418 -90 q 496 -121 465 -90 q 526 -199 526 -151 q 494 -312 526 -249 l 426 -447 l 315 -447 l 353 -287 q 308 -199 308 -250 q 340 -122 308 -153 q 418 -90 371 -90 z "},"ŋ":{"ha":833,"x_min":97,"x_max":736,"o":"m 736 83 q 701 -106 736 -32 q 605 -223 667 -179 q 443 -308 543 -267 l 365 -147 q 451 -99 419 -124 q 499 -35 482 -75 q 517 69 517 6 l 517 478 q 502 574 517 547 q 446 600 488 600 q 381 577 413 600 q 317 510 350 554 l 317 0 l 97 0 l 97 738 l 289 738 l 304 653 q 533 763 401 763 q 683 705 631 763 q 736 542 736 647 l 736 83 z "},"ñ":{"ha":833,"x_min":97,"x_max":736,"o":"m 97 738 l 289 738 l 304 653 q 409 735 354 708 q 533 763 464 763 q 683 704 629 763 q 736 542 736 646 l 736 0 l 517 0 l 517 478 q 501 574 517 547 q 446 600 486 600 q 381 578 413 600 q 317 515 350 557 l 317 0 l 97 0 l 97 738 m 496 882 q 443 892 465 882 q 394 919 421 901 q 338 944 360 944 q 297 931 313 944 q 264 883 282 917 l 154 936 q 228 1055 183 1010 q 333 1100 274 1100 q 388 1090 365 1100 q 438 1063 411 1081 q 468 1044 456 1050 q 494 1038 481 1038 q 532 1051 517 1038 q 567 1097 547 1065 l 676 1044 q 601 926 647 971 q 496 882 556 882 z "},"o":{"ha":833,"x_min":58,"x_max":775,"o":"m 417 763 q 680 656 585 763 q 775 371 775 550 q 681 81 775 185 q 417 -24 586 -24 q 153 80 247 -24 q 58 369 58 183 q 101 576 58 488 q 224 713 143 664 q 417 763 306 763 m 417 600 q 317 545 349 600 q 285 369 285 490 q 317 192 285 247 q 417 138 349 138 q 517 193 485 138 q 549 371 549 249 q 517 545 549 490 q 417 600 485 600 z "},"ó":{"ha":833,"x_min":58,"x_max":775,"o":"m 417 763 q 680 656 585 763 q 775 371 775 550 q 681 81 775 185 q 417 -24 586 -24 q 153 80 247 -24 q 58 369 58 183 q 101 576 58 488 q 224 713 143 664 q 417 763 306 763 m 417 600 q 317 545 349 600 q 285 369 285 490 q 317 192 285 247 q 417 138 349 138 q 517 193 485 138 q 549 371 549 249 q 517 545 549 490 q 417 600 485 600 m 608 994 l 279 864 l 219 976 l 522 1160 l 608 994 z "},"ŏ":{"ha":833,"x_min":58,"x_max":775,"o":"m 417 763 q 680 656 585 763 q 775 371 775 550 q 681 81 775 185 q 417 -24 586 -24 q 153 80 247 -24 q 58 369 58 183 q 101 576 58 488 q 224 713 143 664 q 417 763 306 763 m 417 600 q 317 545 349 600 q 285 369 285 490 q 317 192 285 247 q 417 138 349 138 q 517 193 485 138 q 549 371 549 249 q 517 545 549 490 q 417 600 485 600 m 417 850 q 248 920 308 850 q 178 1092 188 990 l 299 1113 q 341 1030 311 1060 q 417 1000 371 1000 q 492 1030 463 1000 q 535 1113 522 1060 l 656 1092 q 585 921 646 992 q 417 850 524 850 z "},"ô":{"ha":833,"x_min":58,"x_max":775,"o":"m 417 763 q 680 656 585 763 q 775 371 775 550 q 681 81 775 185 q 417 -24 586 -24 q 153 80 247 -24 q 58 369 58 183 q 101 576 58 488 q 224 713 143 664 q 417 763 306 763 m 417 600 q 317 545 349 600 q 285 369 285 490 q 317 192 285 247 q 417 138 349 138 q 517 193 485 138 q 549 371 549 249 q 517 545 549 490 q 417 600 485 600 m 153 939 l 350 1132 l 483 1132 l 679 939 l 601 849 l 417 979 l 232 849 l 153 939 z "},"ö":{"ha":833,"x_min":58,"x_max":775,"o":"m 417 763 q 680 656 585 763 q 775 371 775 550 q 681 81 775 185 q 417 -24 586 -24 q 153 80 247 -24 q 58 369 58 183 q 101 576 58 488 q 224 713 143 664 q 417 763 306 763 m 417 600 q 317 545 349 600 q 285 369 285 490 q 317 192 285 247 q 417 138 349 138 q 517 193 485 138 q 549 371 549 249 q 517 545 549 490 q 417 600 485 600 m 256 885 q 175 917 208 885 q 142 997 142 950 q 175 1075 142 1043 q 256 1107 208 1107 q 338 1075 304 1107 q 371 997 371 1043 q 338 917 371 950 q 256 885 304 885 m 578 885 q 497 917 531 885 q 463 997 463 950 q 497 1075 463 1043 q 578 1107 531 1107 q 658 1075 625 1107 q 692 997 692 1043 q 659 917 692 950 q 578 885 626 885 z "},"ò":{"ha":833,"x_min":58,"x_max":775,"o":"m 417 763 q 680 656 585 763 q 775 371 775 550 q 681 81 775 185 q 417 -24 586 -24 q 153 80 247 -24 q 58 369 58 183 q 101 576 58 488 q 224 713 143 664 q 417 763 306 763 m 417 600 q 317 545 349 600 q 285 369 285 490 q 317 192 285 247 q 417 138 349 138 q 517 193 485 138 q 549 371 549 249 q 517 545 549 490 q 417 600 485 600 m 226 994 l 311 1160 l 614 975 l 554 864 l 226 994 z "},"ő":{"ha":833,"x_min":58,"x_max":775,"o":"m 417 763 q 680 656 585 763 q 775 371 775 550 q 681 81 775 185 q 417 -24 586 -24 q 153 80 247 -24 q 58 369 58 183 q 101 576 58 488 q 224 713 143 664 q 417 763 306 763 m 417 600 q 317 545 349 600 q 285 369 285 490 q 317 192 285 247 q 417 138 349 138 q 517 193 485 138 q 549 371 549 249 q 517 545 549 490 q 417 600 485 600 m 360 1190 l 508 1122 l 336 868 l 222 918 l 360 1190 m 588 1190 l 735 1119 l 561 867 l 449 921 l 588 1190 z "},"ō":{"ha":833,"x_min":58,"x_max":775,"o":"m 417 763 q 680 656 585 763 q 775 371 775 550 q 681 81 775 185 q 417 -24 586 -24 q 153 80 247 -24 q 58 369 58 183 q 101 576 58 488 q 224 713 143 664 q 417 763 306 763 m 417 600 q 317 545 349 600 q 285 369 285 490 q 317 192 285 247 q 417 138 349 138 q 517 193 485 138 q 549 371 549 249 q 517 545 549 490 q 417 600 485 600 m 204 914 l 204 1065 l 629 1065 l 629 914 l 204 914 z "},"ø":{"ha":833,"x_min":58,"x_max":775,"o":"m 618 708 q 735 573 694 660 q 775 371 775 486 q 681 81 775 185 q 417 -24 586 -24 l 374 -22 l 322 -190 l 161 -143 l 217 26 q 99 161 140 74 q 58 369 58 249 q 101 576 58 488 q 224 713 143 664 q 417 763 306 763 q 460 760 432 763 l 514 921 l 672 874 l 618 708 m 417 604 q 313 549 346 604 q 281 369 281 493 q 306 188 281 239 l 439 603 q 417 604 432 604 m 417 133 q 520 189 488 133 q 553 371 553 244 q 529 546 553 499 l 397 133 l 417 133 z "},"ǿ":{"ha":833,"x_min":58,"x_max":775,"o":"m 618 708 q 735 573 694 660 q 775 371 775 486 q 681 81 775 185 q 417 -24 586 -24 l 374 -22 l 322 -190 l 161 -143 l 217 26 q 99 161 140 74 q 58 369 58 249 q 101 576 58 488 q 224 713 143 664 q 417 763 306 763 q 460 760 432 763 l 514 921 l 672 874 l 618 708 m 417 604 q 313 549 346 604 q 281 369 281 493 q 306 188 281 239 l 439 603 q 417 604 432 604 m 417 133 q 520 189 488 133 q 553 371 553 244 q 529 546 553 499 l 397 133 l 417 133 m 608 994 l 279 864 l 219 976 l 522 1160 l 608 994 z "},"õ":{"ha":833,"x_min":58,"x_max":775,"o":"m 417 763 q 680 656 585 763 q 775 371 775 550 q 681 81 775 185 q 417 -24 586 -24 q 153 80 247 -24 q 58 369 58 183 q 101 576 58 488 q 224 713 143 664 q 417 763 306 763 m 417 600 q 317 545 349 600 q 285 369 285 490 q 317 192 285 247 q 417 138 349 138 q 517 193 485 138 q 549 371 549 249 q 517 545 549 490 q 417 600 485 600 m 494 882 q 442 892 464 882 q 393 919 419 901 q 336 944 358 944 q 296 931 311 944 q 263 883 281 917 l 153 936 q 227 1055 182 1010 q 332 1100 272 1100 q 387 1090 364 1100 q 436 1063 410 1081 q 467 1044 454 1050 q 493 1038 479 1038 q 531 1051 515 1038 q 565 1097 546 1065 l 675 1044 q 600 926 646 971 q 494 882 554 882 z "},"œ":{"ha":833,"x_min":-11,"x_max":842,"o":"m 608 763 q 788 668 733 763 q 842 383 842 574 q 838 314 842 347 l 513 314 q 553 167 521 214 q 642 121 585 121 q 699 131 672 121 q 758 165 726 142 l 842 56 q 631 -24 749 -24 q 419 88 489 -24 q 351 5 393 33 q 244 -24 310 -24 q 52 78 115 -24 q -11 369 -11 179 q 52 658 -11 553 q 244 763 115 763 q 355 733 313 763 q 424 646 397 703 q 608 763 486 763 m 600 625 q 538 582 558 625 q 511 433 517 539 l 676 433 q 660 581 675 538 q 600 625 644 625 m 253 600 q 189 548 207 600 q 171 369 171 496 q 178 231 171 281 q 204 159 186 181 q 253 138 222 138 q 301 159 283 138 q 326 231 318 181 q 335 371 335 281 q 316 548 335 496 q 253 600 297 600 z "},"p":{"ha":833,"x_min":97,"x_max":775,"o":"m 506 763 q 710 660 644 763 q 775 371 775 558 q 741 167 775 257 q 643 27 707 78 q 492 -24 579 -24 q 317 53 385 -24 l 317 -285 l 97 -308 l 97 738 l 292 738 l 301 656 q 398 736 344 710 q 506 763 451 763 m 438 600 q 317 514 368 600 l 317 203 q 366 153 340 169 q 425 138 392 138 q 517 192 486 138 q 549 368 549 247 q 521 549 549 499 q 438 600 493 600 z "},"þ":{"ha":833,"x_min":97,"x_max":775,"o":"m 317 664 q 399 737 350 711 q 506 763 447 763 q 710 660 644 763 q 775 371 775 558 q 741 167 775 257 q 643 27 707 78 q 492 -24 579 -24 q 317 53 385 -24 l 317 -285 l 97 -308 l 97 1031 l 317 1054 l 317 664 m 438 600 q 317 514 368 600 l 317 203 q 366 153 340 169 q 425 138 392 138 q 517 192 486 138 q 549 368 549 247 q 521 549 549 499 q 438 600 493 600 z "},"q":{"ha":833,"x_min":58,"x_max":736,"o":"m 354 763 q 455 741 408 763 q 535 678 501 719 l 544 738 l 736 738 l 736 -308 l 517 -285 l 517 63 q 328 -24 444 -24 q 124 81 190 -24 q 58 371 58 185 q 93 574 58 485 q 194 713 128 663 q 354 763 261 763 m 411 601 q 317 546 349 601 q 285 369 285 490 q 313 190 285 240 q 397 139 342 139 q 517 222 468 139 l 517 540 q 469 586 494 571 q 411 601 443 601 z "},"r":{"ha":833,"x_min":104,"x_max":782,"o":"m 660 760 q 782 738 726 760 l 742 429 l 603 429 l 603 565 q 494 499 542 554 q 421 358 447 443 l 421 147 l 567 147 l 567 0 l 104 0 l 104 147 l 201 147 l 201 592 l 104 592 l 104 738 l 369 738 l 408 572 q 510 713 449 667 q 660 760 571 760 z "},"ŕ":{"ha":833,"x_min":104,"x_max":782,"o":"m 660 760 q 782 738 726 760 l 742 429 l 603 429 l 603 565 q 494 499 542 554 q 421 358 447 443 l 421 147 l 567 147 l 567 0 l 104 0 l 104 147 l 201 147 l 201 592 l 104 592 l 104 738 l 369 738 l 408 572 q 510 713 449 667 q 660 760 571 760 m 643 994 l 314 864 l 254 976 l 557 1160 l 643 994 z "},"ř":{"ha":833,"x_min":104,"x_max":782,"o":"m 660 760 q 782 738 726 760 l 742 429 l 603 429 l 603 565 q 494 499 542 554 q 421 358 447 443 l 421 147 l 567 147 l 567 0 l 104 0 l 104 147 l 201 147 l 201 592 l 104 592 l 104 738 l 369 738 l 408 572 q 510 713 449 667 q 660 760 571 760 m 714 1043 l 518 849 l 385 849 l 188 1043 l 267 1132 l 451 1001 l 636 1132 l 714 1043 z "},"ŗ":{"ha":833,"x_min":104,"x_max":782,"o":"m 660 760 q 782 738 726 760 l 742 429 l 603 429 l 603 565 q 494 499 542 554 q 421 358 447 443 l 421 147 l 567 147 l 567 0 l 104 0 l 104 147 l 201 147 l 201 592 l 104 592 l 104 738 l 369 738 l 408 572 q 510 713 449 667 q 660 760 571 760 m 311 -90 q 389 -121 358 -90 q 419 -199 419 -151 q 388 -312 419 -249 l 319 -447 l 208 -447 l 246 -287 q 201 -199 201 -250 q 233 -122 201 -153 q 311 -90 264 -90 z "},"s":{"ha":833,"x_min":67,"x_max":743,"o":"m 393 133 q 483 151 450 133 q 515 203 515 168 q 502 243 515 228 q 453 273 489 258 q 340 308 417 288 q 171 390 229 338 q 113 533 113 442 q 197 699 113 635 q 432 763 281 763 q 731 672 607 763 l 643 543 q 439 606 542 606 q 359 592 385 606 q 333 549 333 578 q 347 516 333 529 q 397 489 360 503 q 507 454 433 475 q 637 406 586 432 q 715 335 688 379 q 743 221 743 290 q 696 88 743 143 q 569 4 649 32 q 394 -24 490 -24 q 208 6 292 -24 q 67 88 125 35 l 176 211 q 393 133 276 133 z "},"ś":{"ha":833,"x_min":67,"x_max":743,"o":"m 393 133 q 483 151 450 133 q 515 203 515 168 q 502 243 515 228 q 453 273 489 258 q 340 308 417 288 q 171 390 229 338 q 113 533 113 442 q 197 699 113 635 q 432 763 281 763 q 731 672 607 763 l 643 543 q 439 606 542 606 q 359 592 385 606 q 333 549 333 578 q 347 516 333 529 q 397 489 360 503 q 507 454 433 475 q 637 406 586 432 q 715 335 688 379 q 743 221 743 290 q 696 88 743 143 q 569 4 649 32 q 394 -24 490 -24 q 208 6 292 -24 q 67 88 125 35 l 176 211 q 393 133 276 133 m 626 994 l 297 864 l 238 976 l 540 1160 l 626 994 z "},"š":{"ha":833,"x_min":67,"x_max":743,"o":"m 393 133 q 483 151 450 133 q 515 203 515 168 q 502 243 515 228 q 453 273 489 258 q 340 308 417 288 q 171 390 229 338 q 113 533 113 442 q 197 699 113 635 q 432 763 281 763 q 731 672 607 763 l 643 543 q 439 606 542 606 q 359 592 385 606 q 333 549 333 578 q 347 516 333 529 q 397 489 360 503 q 507 454 433 475 q 637 406 586 432 q 715 335 688 379 q 743 221 743 290 q 696 88 743 143 q 569 4 649 32 q 394 -24 490 -24 q 208 6 292 -24 q 67 88 125 35 l 176 211 q 393 133 276 133 m 697 1043 l 501 849 l 368 849 l 171 1043 l 250 1132 l 435 1001 l 619 1132 l 697 1043 z "},"ş":{"ha":833,"x_min":67,"x_max":743,"o":"m 743 221 q 664 56 743 118 q 460 -19 585 -7 l 460 -67 q 567 -111 531 -75 q 603 -204 603 -147 q 546 -319 603 -275 q 396 -364 489 -364 q 306 -352 349 -364 q 233 -322 264 -340 l 283 -221 q 372 -244 331 -244 q 446 -201 446 -244 q 415 -165 446 -175 q 318 -156 385 -156 l 333 -21 q 67 88 171 -6 l 176 211 q 393 133 276 133 q 483 151 450 133 q 515 203 515 168 q 502 243 515 228 q 453 273 489 258 q 340 308 417 288 q 171 390 229 338 q 113 533 113 442 q 197 699 113 635 q 432 763 281 763 q 731 672 607 763 l 643 543 q 439 606 542 606 q 359 592 385 606 q 333 549 333 578 q 347 516 333 529 q 397 489 360 503 q 507 454 433 475 q 637 406 586 432 q 715 335 688 379 q 743 221 743 290 z "},"ŝ":{"ha":833,"x_min":67,"x_max":743,"o":"m 393 133 q 483 151 450 133 q 515 203 515 168 q 502 243 515 228 q 453 273 489 258 q 340 308 417 288 q 171 390 229 338 q 113 533 113 442 q 197 699 113 635 q 432 763 281 763 q 731 672 607 763 l 643 543 q 439 606 542 606 q 359 592 385 606 q 333 549 333 578 q 347 516 333 529 q 397 489 360 503 q 507 454 433 475 q 637 406 586 432 q 715 335 688 379 q 743 221 743 290 q 696 88 743 143 q 569 4 649 32 q 394 -24 490 -24 q 208 6 292 -24 q 67 88 125 35 l 176 211 q 393 133 276 133 m 171 939 l 368 1132 l 501 1132 l 697 939 l 619 849 l 435 979 l 250 849 l 171 939 z "},"ș":{"ha":833,"x_min":67,"x_max":743,"o":"m 393 133 q 483 151 450 133 q 515 203 515 168 q 502 243 515 228 q 453 273 489 258 q 340 308 417 288 q 171 390 229 338 q 113 533 113 442 q 197 699 113 635 q 432 763 281 763 q 731 672 607 763 l 643 543 q 439 606 542 606 q 359 592 385 606 q 333 549 333 578 q 347 516 333 529 q 397 489 360 503 q 507 454 433 475 q 637 406 586 432 q 715 335 688 379 q 743 221 743 290 q 696 88 743 143 q 569 4 649 32 q 394 -24 490 -24 q 208 6 292 -24 q 67 88 125 35 l 176 211 q 393 133 276 133 m 418 -90 q 496 -121 465 -90 q 526 -199 526 -151 q 494 -312 526 -249 l 426 -447 l 315 -447 l 353 -287 q 308 -199 308 -250 q 340 -122 308 -153 q 418 -90 371 -90 z "},"ß":{"ha":833,"x_min":83,"x_max":801,"o":"m 404 1054 q 555 1026 492 1054 q 651 948 618 997 q 685 838 685 899 q 667 761 685 792 q 613 693 649 731 q 573 645 586 665 q 560 600 560 625 q 581 550 560 572 q 644 496 601 528 q 724 429 693 460 q 778 350 756 399 q 801 233 801 301 q 724 45 801 114 q 522 -24 646 -24 q 346 19 425 -24 l 415 167 q 494 146 460 146 q 556 168 535 146 q 576 232 576 190 q 552 312 576 281 q 479 379 528 343 q 420 431 442 410 q 383 484 399 451 q 368 561 368 517 q 383 638 368 606 q 425 711 397 671 q 461 773 450 749 q 472 828 472 797 q 453 881 472 863 q 399 900 433 900 q 326 863 349 900 q 303 747 303 825 l 303 0 l 83 0 l 83 738 q 165 972 83 889 q 404 1054 247 1054 z "},"t":{"ha":833,"x_min":81,"x_max":761,"o":"m 761 43 q 519 -24 657 -24 q 306 49 378 -24 q 235 251 235 121 l 235 586 l 81 586 l 81 738 l 235 738 l 235 897 l 454 924 l 454 738 l 692 738 l 669 586 l 454 586 l 454 251 q 479 174 454 197 q 560 150 504 150 q 689 183 629 150 l 761 43 z "},"ŧ":{"ha":833,"x_min":81,"x_max":761,"o":"m 761 43 q 519 -24 657 -24 q 306 49 378 -24 q 235 251 235 121 l 235 364 l 97 364 l 97 501 l 235 501 l 235 586 l 81 586 l 81 738 l 235 738 l 235 897 l 454 924 l 454 738 l 692 738 l 669 586 l 454 586 l 454 501 l 668 501 l 668 364 l 454 364 l 454 251 q 479 174 454 197 q 560 150 504 150 q 689 183 629 150 l 761 43 z "},"ť":{"ha":833,"x_min":81,"x_max":761,"o":"m 761 43 q 519 -24 657 -24 q 306 49 378 -24 q 235 251 235 121 l 235 586 l 81 586 l 81 738 l 235 738 l 235 897 l 454 924 l 454 738 l 692 738 l 669 586 l 454 586 l 454 251 q 479 174 454 197 q 560 150 504 150 q 689 183 629 150 l 761 43 m 744 1132 l 636 810 l 500 832 l 551 1156 l 744 1132 z "},"ţ":{"ha":833,"x_min":81,"x_max":761,"o":"m 542 -67 q 649 -111 613 -75 q 685 -204 685 -147 q 628 -319 685 -275 q 478 -364 571 -364 q 388 -352 431 -364 q 315 -322 346 -340 l 365 -221 q 454 -244 413 -244 q 528 -201 528 -244 q 497 -165 528 -175 q 400 -156 467 -156 l 415 -11 q 280 80 325 13 q 235 251 235 147 l 235 586 l 81 586 l 81 738 l 235 738 l 235 897 l 454 924 l 454 738 l 692 738 l 669 586 l 454 586 l 454 251 q 479 174 454 197 q 560 150 504 150 q 689 183 629 150 l 761 43 q 542 -24 665 -18 l 542 -67 z "},"ț":{"ha":833,"x_min":81,"x_max":761,"o":"m 761 43 q 519 -24 657 -24 q 306 49 378 -24 q 235 251 235 121 l 235 586 l 81 586 l 81 738 l 235 738 l 235 897 l 454 924 l 454 738 l 692 738 l 669 586 l 454 586 l 454 251 q 479 174 454 197 q 560 150 504 150 q 689 183 629 150 l 761 43 m 500 -90 q 578 -121 547 -90 q 608 -199 608 -151 q 576 -312 608 -249 l 508 -447 l 397 -447 l 435 -287 q 390 -199 390 -250 q 422 -122 390 -153 q 500 -90 453 -90 z "},"u":{"ha":833,"x_min":97,"x_max":736,"o":"m 317 233 q 335 160 317 182 q 392 139 354 139 q 460 160 425 139 q 517 219 494 182 l 517 738 l 736 738 l 736 0 l 544 0 l 535 86 q 438 5 499 33 q 308 -24 376 -24 q 151 37 204 -24 q 97 206 97 97 l 97 738 l 317 738 l 317 233 z "},"ú":{"ha":833,"x_min":97,"x_max":736,"o":"m 317 233 q 335 160 317 182 q 392 139 354 139 q 460 160 425 139 q 517 219 494 182 l 517 738 l 736 738 l 736 0 l 544 0 l 535 86 q 438 5 499 33 q 308 -24 376 -24 q 151 37 204 -24 q 97 206 97 97 l 97 738 l 317 738 l 317 233 m 608 994 l 279 864 l 219 976 l 522 1160 l 608 994 z "},"ŭ":{"ha":833,"x_min":97,"x_max":736,"o":"m 317 233 q 335 160 317 182 q 392 139 354 139 q 460 160 425 139 q 517 219 494 182 l 517 738 l 736 738 l 736 0 l 544 0 l 535 86 q 438 5 499 33 q 308 -24 376 -24 q 151 37 204 -24 q 97 206 97 97 l 97 738 l 317 738 l 317 233 m 417 850 q 248 920 308 850 q 178 1092 188 990 l 299 1113 q 341 1030 311 1060 q 417 1000 371 1000 q 492 1030 463 1000 q 535 1113 522 1060 l 656 1092 q 585 921 646 992 q 417 850 524 850 z "},"û":{"ha":833,"x_min":97,"x_max":736,"o":"m 317 233 q 335 160 317 182 q 392 139 354 139 q 460 160 425 139 q 517 219 494 182 l 517 738 l 736 738 l 736 0 l 544 0 l 535 86 q 438 5 499 33 q 308 -24 376 -24 q 151 37 204 -24 q 97 206 97 97 l 97 738 l 317 738 l 317 233 m 153 939 l 350 1132 l 483 1132 l 679 939 l 601 849 l 417 979 l 232 849 l 153 939 z "},"ü":{"ha":833,"x_min":97,"x_max":736,"o":"m 317 233 q 335 160 317 182 q 392 139 354 139 q 460 160 425 139 q 517 219 494 182 l 517 738 l 736 738 l 736 0 l 544 0 l 535 86 q 438 5 499 33 q 308 -24 376 -24 q 151 37 204 -24 q 97 206 97 97 l 97 738 l 317 738 l 317 233 m 256 885 q 175 917 208 885 q 142 997 142 950 q 175 1075 142 1043 q 256 1107 208 1107 q 338 1075 304 1107 q 371 997 371 1043 q 338 917 371 950 q 256 885 304 885 m 578 885 q 497 917 531 885 q 463 997 463 950 q 497 1075 463 1043 q 578 1107 531 1107 q 658 1075 625 1107 q 692 997 692 1043 q 659 917 692 950 q 578 885 626 885 z "},"ù":{"ha":833,"x_min":97,"x_max":736,"o":"m 317 233 q 335 160 317 182 q 392 139 354 139 q 460 160 425 139 q 517 219 494 182 l 517 738 l 736 738 l 736 0 l 544 0 l 535 86 q 438 5 499 33 q 308 -24 376 -24 q 151 37 204 -24 q 97 206 97 97 l 97 738 l 317 738 l 317 233 m 226 994 l 311 1160 l 614 975 l 554 864 l 226 994 z "},"ű":{"ha":833,"x_min":97,"x_max":736,"o":"m 317 233 q 335 160 317 182 q 392 139 354 139 q 460 160 425 139 q 517 219 494 182 l 517 738 l 736 738 l 736 0 l 544 0 l 535 86 q 438 5 499 33 q 308 -24 376 -24 q 151 37 204 -24 q 97 206 97 97 l 97 738 l 317 738 l 317 233 m 360 1190 l 508 1122 l 336 868 l 222 918 l 360 1190 m 588 1190 l 735 1119 l 561 867 l 449 921 l 588 1190 z "},"ū":{"ha":833,"x_min":97,"x_max":736,"o":"m 317 233 q 335 160 317 182 q 392 139 354 139 q 460 160 425 139 q 517 219 494 182 l 517 738 l 736 738 l 736 0 l 544 0 l 535 86 q 438 5 499 33 q 308 -24 376 -24 q 151 37 204 -24 q 97 206 97 97 l 97 738 l 317 738 l 317 233 m 204 914 l 204 1065 l 629 1065 l 629 914 l 204 914 z "},"ų":{"ha":833,"x_min":97,"x_max":736,"o":"m 736 738 l 736 0 q 611 -68 646 -31 q 576 -153 576 -106 q 598 -203 576 -186 q 657 -221 619 -221 q 732 -211 690 -221 l 715 -340 q 633 -351 675 -351 q 483 -306 542 -351 q 424 -181 424 -261 q 455 -72 424 -117 q 544 6 486 -28 l 535 86 q 438 5 499 33 q 308 -24 376 -24 q 151 37 204 -24 q 97 206 97 97 l 97 738 l 317 738 l 317 233 q 335 160 317 182 q 392 139 354 139 q 460 160 425 139 q 517 219 494 182 l 517 738 l 736 738 z "},"ů":{"ha":833,"x_min":97,"x_max":736,"o":"m 317 233 q 335 160 317 182 q 392 139 354 139 q 460 160 425 139 q 517 219 494 182 l 517 738 l 736 738 l 736 0 l 544 0 l 535 86 q 438 5 499 33 q 308 -24 376 -24 q 151 37 204 -24 q 97 206 97 97 l 97 738 l 317 738 l 317 233 m 415 1201 q 556 1149 503 1201 q 608 1019 608 1096 q 555 889 608 943 q 415 835 501 835 q 315 860 358 835 q 247 927 271 885 q 224 1019 224 969 q 276 1148 224 1094 q 415 1201 329 1201 m 415 1088 q 371 1070 388 1088 q 354 1019 354 1053 q 371 967 354 985 q 415 949 388 949 q 461 967 444 949 q 478 1019 478 985 q 461 1070 478 1053 q 415 1088 444 1088 z "},"ũ":{"ha":833,"x_min":97,"x_max":736,"o":"m 317 233 q 335 160 317 182 q 392 139 354 139 q 460 160 425 139 q 517 219 494 182 l 517 738 l 736 738 l 736 0 l 544 0 l 535 86 q 438 5 499 33 q 308 -24 376 -24 q 151 37 204 -24 q 97 206 97 97 l 97 738 l 317 738 l 317 233 m 494 882 q 442 892 464 882 q 393 919 419 901 q 336 944 358 944 q 296 931 311 944 q 263 883 281 917 l 153 936 q 227 1055 182 1010 q 332 1100 272 1100 q 387 1090 364 1100 q 436 1063 410 1081 q 467 1044 454 1050 q 493 1038 479 1038 q 531 1051 515 1038 q 565 1097 546 1065 l 675 1044 q 600 926 646 971 q 494 882 554 882 z "},"v":{"ha":833,"x_min":40,"x_max":793,"o":"m 547 0 l 289 0 l 40 738 l 278 738 l 421 168 l 571 738 l 793 738 l 547 0 z "},"w":{"ha":833,"x_min":4,"x_max":829,"o":"m 482 0 l 418 496 l 351 0 l 114 0 l 4 738 l 206 738 l 254 138 l 331 644 l 517 644 l 585 138 l 635 738 l 829 738 l 724 0 l 482 0 z "},"ẃ":{"ha":833,"x_min":4,"x_max":829,"o":"m 482 0 l 418 496 l 351 0 l 114 0 l 4 738 l 206 738 l 254 138 l 331 644 l 517 644 l 585 138 l 635 738 l 829 738 l 724 0 l 482 0 m 608 994 l 279 864 l 219 976 l 522 1160 l 608 994 z "},"ŵ":{"ha":833,"x_min":4,"x_max":829,"o":"m 482 0 l 418 496 l 351 0 l 114 0 l 4 738 l 206 738 l 254 138 l 331 644 l 517 644 l 585 138 l 635 738 l 829 738 l 724 0 l 482 0 m 153 939 l 350 1132 l 483 1132 l 679 939 l 601 849 l 417 979 l 232 849 l 153 939 z "},"ẅ":{"ha":833,"x_min":4,"x_max":829,"o":"m 482 0 l 418 496 l 351 0 l 114 0 l 4 738 l 206 738 l 254 138 l 331 644 l 517 644 l 585 138 l 635 738 l 829 738 l 724 0 l 482 0 m 256 885 q 175 917 208 885 q 142 997 142 950 q 175 1075 142 1043 q 256 1107 208 1107 q 338 1075 304 1107 q 371 997 371 1043 q 338 917 371 950 q 256 885 304 885 m 578 885 q 497 917 531 885 q 463 997 463 950 q 497 1075 463 1043 q 578 1107 531 1107 q 658 1075 625 1107 q 692 997 692 1043 q 659 917 692 950 q 578 885 626 885 z "},"ẁ":{"ha":833,"x_min":4,"x_max":829,"o":"m 482 0 l 418 496 l 351 0 l 114 0 l 4 738 l 206 738 l 254 138 l 331 644 l 517 644 l 585 138 l 635 738 l 829 738 l 724 0 l 482 0 m 226 994 l 311 1160 l 614 975 l 554 864 l 226 994 z "},"x":{"ha":833,"x_min":31,"x_max":803,"o":"m 31 0 l 283 388 l 54 738 l 300 738 l 418 501 l 532 738 l 765 738 l 549 396 l 803 0 l 554 0 l 408 276 l 268 0 l 31 0 z "},"y":{"ha":833,"x_min":39,"x_max":794,"o":"m 549 0 q 400 -224 499 -149 q 136 -310 301 -300 l 111 -154 q 267 -107 217 -140 q 349 0 318 -74 l 272 0 l 39 738 l 271 738 l 414 140 l 569 738 l 794 738 l 549 0 z "},"ý":{"ha":833,"x_min":39,"x_max":794,"o":"m 549 0 q 400 -224 499 -149 q 136 -310 301 -300 l 111 -154 q 267 -107 217 -140 q 349 0 318 -74 l 272 0 l 39 738 l 271 738 l 414 140 l 569 738 l 794 738 l 549 0 m 608 994 l 279 864 l 219 976 l 522 1160 l 608 994 z "},"ŷ":{"ha":833,"x_min":39,"x_max":794,"o":"m 549 0 q 400 -224 499 -149 q 136 -310 301 -300 l 111 -154 q 267 -107 217 -140 q 349 0 318 -74 l 272 0 l 39 738 l 271 738 l 414 140 l 569 738 l 794 738 l 549 0 m 153 939 l 350 1132 l 483 1132 l 679 939 l 601 849 l 417 979 l 232 849 l 153 939 z "},"ÿ":{"ha":833,"x_min":39,"x_max":794,"o":"m 549 0 q 400 -224 499 -149 q 136 -310 301 -300 l 111 -154 q 267 -107 217 -140 q 349 0 318 -74 l 272 0 l 39 738 l 271 738 l 414 140 l 569 738 l 794 738 l 549 0 m 256 885 q 175 917 208 885 q 142 997 142 950 q 175 1075 142 1043 q 256 1107 208 1107 q 338 1075 304 1107 q 371 997 371 1043 q 338 917 371 950 q 256 885 304 885 m 578 885 q 497 917 531 885 q 463 997 463 950 q 497 1075 463 1043 q 578 1107 531 1107 q 658 1075 625 1107 q 692 997 692 1043 q 659 917 692 950 q 578 885 626 885 z "},"ỳ":{"ha":833,"x_min":39,"x_max":794,"o":"m 549 0 q 400 -224 499 -149 q 136 -310 301 -300 l 111 -154 q 267 -107 217 -140 q 349 0 318 -74 l 272 0 l 39 738 l 271 738 l 414 140 l 569 738 l 794 738 l 549 0 m 226 994 l 311 1160 l 614 975 l 554 864 l 226 994 z "},"z":{"ha":833,"x_min":100,"x_max":728,"o":"m 728 167 l 707 0 l 100 0 l 100 156 l 467 572 l 131 572 l 131 738 l 721 738 l 721 583 l 360 167 l 728 167 z "},"ź":{"ha":833,"x_min":100,"x_max":728,"o":"m 728 167 l 707 0 l 100 0 l 100 156 l 467 572 l 131 572 l 131 738 l 721 738 l 721 583 l 360 167 l 728 167 m 618 994 l 289 864 l 229 976 l 532 1160 l 618 994 z "},"ž":{"ha":833,"x_min":100,"x_max":728,"o":"m 728 167 l 707 0 l 100 0 l 100 156 l 467 572 l 131 572 l 131 738 l 721 738 l 721 583 l 360 167 l 728 167 m 689 1043 l 493 849 l 360 849 l 163 1043 l 242 1132 l 426 1001 l 611 1132 l 689 1043 z "},"ż":{"ha":833,"x_min":100,"x_max":728,"o":"m 728 167 l 707 0 l 100 0 l 100 156 l 467 572 l 131 572 l 131 738 l 721 738 l 721 583 l 360 167 l 728 167 m 426 1124 q 519 1088 483 1124 q 556 1000 556 1053 q 519 911 556 946 q 426 876 483 876 q 333 912 369 876 q 296 1000 296 947 q 333 1088 296 1053 q 426 1124 369 1124 z "},"ﬁ":{"ha":833,"x_min":14,"x_max":822,"o":"m 438 0 l 438 150 l 522 150 l 522 585 l 332 585 l 332 0 l 122 0 l 122 585 l 14 585 l 14 738 l 122 738 l 122 797 q 199 983 122 911 q 419 1054 276 1054 q 672 1007 564 1054 l 613 864 q 454 892 542 892 q 360 868 389 892 q 332 790 332 844 l 332 738 l 733 738 l 733 150 l 822 150 l 822 0 l 438 0 z "},"ﬂ":{"ha":833,"x_min":8,"x_max":843,"o":"m 843 4 q 700 -24 775 -24 q 542 33 597 -24 q 488 197 488 89 l 488 888 q 424 896 458 896 q 342 871 367 896 q 318 790 318 846 l 318 738 l 433 738 l 410 585 l 318 585 l 318 0 l 107 0 l 107 585 l 8 585 l 8 738 l 107 738 l 107 797 q 142 929 107 871 q 242 1021 176 988 q 401 1054 308 1054 q 549 1031 474 1054 l 699 1053 l 699 217 q 712 165 699 181 q 750 150 725 150 q 800 161 769 150 l 843 4 z "},"ª":{"ha":833,"x_min":117,"x_max":714,"o":"m 404 1054 q 607 1001 544 1054 q 669 842 669 949 l 669 614 q 679 569 669 585 q 711 547 689 554 l 669 425 q 572 450 608 432 q 514 506 535 468 q 431 444 479 465 q 328 422 383 422 q 175 476 233 422 q 117 615 117 529 q 196 765 117 711 q 418 819 275 819 l 492 819 l 492 836 q 466 901 492 883 q 376 918 440 918 q 303 910 347 918 q 214 886 260 901 l 168 1011 q 292 1043 229 1032 q 404 1054 354 1054 m 447 704 q 344 685 375 704 q 314 622 314 665 q 383 551 314 551 q 442 569 414 551 q 492 617 471 586 l 492 704 l 447 704 m 714 0 l 139 0 l 139 150 l 714 150 l 714 0 z "},"º":{"ha":833,"x_min":108,"x_max":725,"o":"m 417 1054 q 581 1013 511 1054 q 688 901 650 972 q 725 739 725 829 q 688 574 725 646 q 581 462 650 501 q 417 422 511 422 q 191 509 274 422 q 108 739 108 596 q 146 901 108 829 q 253 1013 183 972 q 417 1054 324 1054 m 417 918 q 301 739 301 918 q 331 602 301 644 q 417 560 360 560 q 503 602 474 560 q 532 739 532 644 q 417 918 532 918 m 704 0 l 129 0 l 129 150 l 704 150 l 704 0 z "},"ⁿ":{"ha":833,"x_min":210,"x_max":624,"o":"m 488 1004 q 588 967 553 1004 q 624 861 624 929 l 624 525 l 464 525 l 464 824 q 458 872 464 857 q 435 886 451 886 q 369 839 406 886 l 369 525 l 210 525 l 210 990 l 351 990 l 358 942 q 417 990 385 976 q 488 1004 449 1004 z "},"Ԭ":{"ha":833,"x_min":25,"x_max":814,"o":"m 814 169 l 814 -242 l 640 -242 l 613 0 l 276 0 l 249 -242 l 75 -242 l 75 169 l 138 169 q 207 282 178 225 q 257 417 236 339 q 79 524 133 443 q 25 744 25 606 l 25 963 l 206 963 l 206 747 q 224 636 206 676 q 288 579 242 596 q 297 692 292 618 l 314 963 l 749 963 l 749 169 l 814 169 m 479 683 q 469 565 474 607 l 560 565 l 560 810 l 488 810 l 479 683 m 560 169 l 560 403 l 444 404 q 399 278 428 335 q 322 169 369 221 l 560 169 z "},"Ԫ":{"ha":833,"x_min":-21,"x_max":856,"o":"m 856 0 l 713 0 l 626 444 l 592 444 l 592 0 l 494 0 l 494 -242 l 388 -242 l 371 0 l 107 0 l 88 -242 l -21 -242 l -21 135 l 19 135 q 65 303 49 190 q 94 658 81 417 l 114 963 l 408 963 l 408 558 l 465 558 l 465 963 l 592 963 l 592 558 l 625 558 l 708 963 l 843 963 l 743 526 l 856 0 m 279 842 l 232 842 l 224 650 q 207 397 218 492 q 178 243 196 301 q 129 135 160 185 l 279 135 l 279 842 m 408 444 l 408 135 l 465 135 l 465 444 l 408 444 z "},"Ԯ":{"ha":833,"x_min":-11,"x_max":793,"o":"m 793 169 l 793 -242 l 619 -242 l 592 0 l 499 0 l 499 789 l 389 789 l 374 635 q 320 276 351 400 q 235 86 289 151 q 79 -28 181 21 l -11 122 q 71 207 42 161 q 122 355 100 253 q 161 657 143 457 l 190 963 l 726 963 l 726 169 l 793 169 z "},"Ԩ":{"ha":833,"x_min":-167,"x_max":761,"o":"m 761 963 l 761 0 l 533 0 l 533 406 l 300 406 l 300 -36 q 227 -244 300 -172 q 21 -315 154 -315 q -83 -299 -39 -315 q -167 -253 -126 -283 l -83 -125 q -40 -143 -56 -137 q 0 -149 -24 -149 q 54 -127 36 -149 q 72 -56 72 -106 l 72 963 l 300 963 l 300 593 l 533 593 l 533 963 l 761 963 z "},"А":{"ha":833,"x_min":-15,"x_max":850,"o":"m 274 208 l 224 0 l -15 0 l 279 963 l 556 963 l 850 0 l 606 0 l 556 208 l 274 208 m 518 372 l 414 799 l 310 372 l 518 372 z "},"Б":{"ha":833,"x_min":79,"x_max":789,"o":"m 663 789 l 307 789 l 307 615 l 404 615 q 689 541 589 615 q 789 317 789 467 q 686 81 789 163 q 415 0 583 0 l 79 0 l 79 963 l 685 963 l 663 789 m 307 453 l 307 171 l 392 171 q 515 205 474 171 q 556 315 556 239 q 515 419 556 385 q 389 453 474 453 l 307 453 z "},"В":{"ha":833,"x_min":78,"x_max":793,"o":"m 793 282 q 684 64 793 128 q 397 0 575 0 l 78 0 l 78 963 l 383 963 q 650 905 549 963 q 751 717 751 847 q 701 582 751 635 q 575 510 651 529 q 730 441 667 494 q 793 282 793 388 m 522 693 q 487 776 522 750 q 375 801 451 801 l 306 801 l 306 578 l 383 578 q 489 605 456 578 q 522 693 522 632 m 558 292 q 517 394 558 364 q 399 425 476 425 l 306 425 l 306 167 l 389 167 q 513 193 468 167 q 558 292 558 219 z "},"Г":{"ha":833,"x_min":125,"x_max":776,"o":"m 754 783 l 353 783 l 353 0 l 125 0 l 125 963 l 776 963 l 754 783 z "},"Ѓ":{"ha":833,"x_min":125,"x_max":776,"o":"m 754 783 l 353 783 l 353 0 l 125 0 l 125 963 l 776 963 l 754 783 m 653 1160 l 324 1043 l 271 1154 l 571 1324 l 653 1160 z "},"Ґ":{"ha":833,"x_min":125,"x_max":776,"o":"m 776 1178 l 776 963 l 754 783 l 353 783 l 353 0 l 125 0 l 125 963 l 565 963 l 565 1178 l 776 1178 z "},"Д":{"ha":833,"x_min":-14,"x_max":801,"o":"m 801 169 l 801 -242 l 626 -242 l 599 -1 l 189 0 l 161 -242 l -14 -242 l -14 169 l 42 169 q 95 256 74 204 q 133 402 117 307 q 165 660 150 497 l 193 963 l 729 963 l 729 169 l 801 169 m 519 801 l 383 801 l 374 679 q 342 421 360 518 q 294 266 324 324 q 219 169 265 208 l 519 169 l 519 801 z "},"Е":{"ha":833,"x_min":129,"x_max":758,"o":"m 357 568 l 690 568 l 690 410 l 357 410 l 357 164 l 758 164 l 758 0 l 129 0 l 129 963 l 758 963 l 735 800 l 357 800 l 357 568 z "},"Ѐ":{"ha":833,"x_min":129,"x_max":758,"o":"m 357 568 l 690 568 l 690 410 l 357 410 l 357 164 l 758 164 l 758 0 l 129 0 l 129 963 l 758 963 l 735 800 l 357 800 l 357 568 m 635 1154 l 583 1043 l 253 1160 l 336 1324 l 635 1154 z "},"Ё":{"ha":833,"x_min":129,"x_max":758,"o":"m 357 568 l 690 568 l 690 410 l 357 410 l 357 164 l 758 164 l 758 0 l 129 0 l 129 963 l 758 963 l 735 800 l 357 800 l 357 568 m 283 1058 q 203 1090 236 1058 q 169 1169 169 1122 q 203 1249 169 1217 q 283 1281 236 1281 q 365 1249 332 1281 q 397 1169 397 1217 q 365 1090 397 1122 q 283 1058 332 1058 m 606 1058 q 524 1091 558 1058 q 490 1169 490 1124 q 524 1248 490 1215 q 606 1281 558 1281 q 687 1249 654 1281 q 719 1169 719 1217 q 687 1090 719 1122 q 606 1058 654 1058 z "},"Ж":{"ha":833,"x_min":3,"x_max":831,"o":"m 306 444 l 197 0 l 3 0 l 153 526 l 17 963 l 204 963 l 310 558 l 347 558 l 347 963 l 486 963 l 486 558 l 524 558 l 629 963 l 817 963 l 681 526 l 831 0 l 633 0 l 525 444 l 486 444 l 486 0 l 347 0 l 347 444 l 306 444 z "},"З":{"ha":833,"x_min":10,"x_max":781,"o":"m 393 988 q 581 955 500 988 q 707 864 663 922 q 751 731 751 806 q 695 588 751 643 q 533 513 639 533 q 715 440 649 501 q 781 275 781 379 q 733 117 781 185 q 594 13 686 50 q 375 -24 503 -24 q 166 12 258 -24 q 10 114 74 47 l 126 231 q 371 143 231 143 q 504 181 456 143 q 553 285 553 218 q 506 393 553 357 q 369 429 458 429 l 208 429 l 235 590 l 368 590 q 485 621 443 590 q 528 708 528 651 q 486 792 528 763 q 369 822 444 822 q 144 747 239 822 l 35 863 q 393 988 176 988 z "},"И":{"ha":833,"x_min":72,"x_max":761,"o":"m 72 963 l 281 963 l 281 636 q 271 402 281 500 q 242 199 261 304 l 510 963 l 761 963 l 761 0 l 553 0 l 553 319 q 590 763 553 547 l 328 0 l 72 0 l 72 963 z "},"Й":{"ha":833,"x_min":72,"x_max":761,"o":"m 72 963 l 281 963 l 281 636 q 271 402 281 500 q 242 199 261 304 l 510 963 l 761 963 l 761 0 l 553 0 l 553 319 q 590 763 553 547 l 328 0 l 72 0 l 72 963 m 417 1025 q 249 1088 310 1025 q 178 1240 188 1150 l 299 1261 q 339 1199 308 1221 q 417 1176 369 1176 q 494 1199 464 1176 q 535 1261 525 1221 l 656 1240 q 585 1088 646 1150 q 417 1025 524 1025 z "},"Ѝ":{"ha":833,"x_min":72,"x_max":761,"o":"m 72 963 l 281 963 l 281 636 q 271 402 281 500 q 242 199 261 304 l 510 963 l 761 963 l 761 0 l 553 0 l 553 319 q 590 763 553 547 l 328 0 l 72 0 l 72 963 m 607 1154 l 556 1043 l 225 1160 l 308 1324 l 607 1154 z "},"Ҋ":{"ha":833,"x_min":72,"x_max":886,"o":"m 417 1025 q 249 1088 310 1025 q 178 1240 188 1150 l 299 1261 q 339 1199 308 1221 q 417 1176 369 1176 q 494 1199 464 1176 q 535 1261 525 1221 l 656 1240 q 585 1088 646 1150 q 417 1025 524 1025 m 886 211 l 749 -242 l 561 -242 l 615 0 l 553 0 l 553 319 q 590 763 553 547 l 328 0 l 72 0 l 72 963 l 281 963 l 281 636 q 271 402 281 500 q 242 199 261 304 l 510 963 l 761 963 l 761 211 l 886 211 z "},"К":{"ha":833,"x_min":72,"x_max":844,"o":"m 300 419 l 300 0 l 72 0 l 72 963 l 300 963 l 300 583 l 385 583 l 597 963 l 818 963 l 574 526 l 844 0 l 596 0 l 388 419 l 300 419 z "},"Ќ":{"ha":833,"x_min":72,"x_max":844,"o":"m 300 419 l 300 0 l 72 0 l 72 963 l 300 963 l 300 583 l 385 583 l 597 963 l 818 963 l 574 526 l 844 0 l 596 0 l 388 419 l 300 419 m 640 1160 l 311 1043 l 258 1154 l 558 1324 l 640 1160 z "},"Л":{"ha":833,"x_min":-17,"x_max":761,"o":"m 761 0 l 533 0 l 533 789 l 382 789 l 368 635 q 315 276 346 400 q 228 86 283 151 q 72 -28 174 21 l -17 122 q 64 207 35 161 q 115 355 93 253 q 156 657 136 457 l 183 963 l 761 963 l 761 0 z "},"М":{"ha":833,"x_min":24,"x_max":810,"o":"m 810 0 l 610 0 l 599 413 q 597 496 597 443 q 601 631 597 565 q 611 769 606 697 l 503 164 l 331 164 l 213 769 q 228 482 228 610 l 226 408 l 219 0 l 24 0 l 78 963 l 313 963 l 419 340 l 521 963 l 756 963 l 810 0 z "},"Н":{"ha":833,"x_min":72,"x_max":761,"o":"m 533 406 l 300 406 l 300 0 l 72 0 l 72 963 l 300 963 l 300 593 l 533 593 l 533 963 l 761 963 l 761 0 l 533 0 l 533 406 z "},"О":{"ha":833,"x_min":32,"x_max":801,"o":"m 801 482 q 702 112 801 247 q 417 -24 603 -24 q 131 110 229 -24 q 32 482 32 244 q 131 852 32 717 q 417 988 231 988 q 703 853 604 988 q 801 482 801 719 m 568 482 q 533 740 568 660 q 417 821 497 821 q 301 740 336 821 q 265 482 265 660 q 301 224 265 304 q 417 143 336 143 q 533 224 499 143 q 568 482 568 304 z "},"П":{"ha":833,"x_min":72,"x_max":761,"o":"m 533 788 l 300 788 l 300 0 l 72 0 l 72 963 l 761 963 l 761 0 l 533 0 l 533 788 z "},"Р":{"ha":833,"x_min":86,"x_max":800,"o":"m 800 649 q 698 403 800 486 q 419 321 596 321 l 314 321 l 314 0 l 86 0 l 86 963 l 389 963 q 694 884 589 963 q 800 649 800 806 m 567 649 q 393 800 567 800 l 314 800 l 314 485 l 404 485 q 524 525 482 485 q 567 649 567 565 z "},"С":{"ha":833,"x_min":47,"x_max":818,"o":"m 497 988 q 669 961 597 988 q 806 882 742 935 l 694 747 q 503 818 607 818 q 344 735 404 818 q 283 483 283 651 q 343 234 283 315 q 507 153 403 153 q 617 175 571 153 q 715 239 663 197 l 818 107 q 494 -24 690 -24 q 262 35 363 -24 q 104 208 161 93 q 47 483 47 322 q 106 754 47 640 q 267 928 164 868 q 497 988 369 988 z "},"Т":{"ha":833,"x_min":31,"x_max":810,"o":"m 529 0 l 301 0 l 301 788 l 31 788 l 31 963 l 810 963 l 788 788 l 529 788 l 529 0 z "},"У":{"ha":833,"x_min":-7,"x_max":843,"o":"m 599 328 q 496 128 550 200 q 361 22 442 57 q 147 -24 281 -12 l 118 132 q 279 169 226 142 q 365 254 332 196 l 292 254 l -7 963 l 229 963 l 432 385 l 613 963 l 843 963 l 599 328 z "},"Ў":{"ha":833,"x_min":-7,"x_max":843,"o":"m 599 328 q 496 128 550 200 q 361 22 442 57 q 147 -24 281 -12 l 118 132 q 279 169 226 142 q 365 254 332 196 l 292 254 l -7 963 l 229 963 l 432 385 l 613 963 l 843 963 l 599 328 m 431 1043 q 263 1102 322 1043 q 192 1257 203 1161 l 313 1279 q 354 1216 326 1236 q 431 1196 382 1196 q 507 1216 479 1196 q 549 1279 535 1236 l 669 1257 q 599 1103 660 1163 q 431 1043 539 1043 z "},"Ф":{"ha":833,"x_min":6,"x_max":828,"o":"m 496 911 q 746 795 664 900 q 828 486 828 690 q 745 173 828 283 q 496 53 663 63 l 496 -54 l 338 -54 l 338 53 q 88 172 171 63 q 6 486 6 282 q 87 795 6 690 q 338 911 168 900 l 338 1014 l 496 1014 l 496 911 m 351 789 q 273 752 301 783 q 231 657 244 721 q 218 486 218 593 q 230 315 218 379 q 271 217 242 250 q 351 178 300 183 l 351 789 m 482 178 q 563 217 533 183 q 603 315 592 250 q 615 486 615 379 q 603 657 615 593 q 561 752 590 721 q 482 789 532 783 l 482 178 z "},"Х":{"ha":833,"x_min":6,"x_max":829,"o":"m 272 963 l 417 654 l 565 963 l 806 963 l 550 521 l 829 0 l 583 0 l 414 367 l 247 0 l 6 0 l 278 511 l 26 963 l 272 963 z "},"Ч":{"ha":833,"x_min":35,"x_max":761,"o":"m 761 963 l 761 0 l 533 0 l 533 338 q 333 275 449 275 q 113 359 192 275 q 35 603 35 443 l 35 963 l 263 963 l 263 610 q 294 481 263 519 q 397 443 325 443 q 533 493 478 443 l 533 963 l 761 963 z "},"Ц":{"ha":833,"x_min":72,"x_max":828,"o":"m 828 169 l 828 -242 l 654 -242 l 626 0 l 72 0 l 72 963 l 300 963 l 300 178 l 533 178 l 533 963 l 761 963 l 761 169 l 828 169 z "},"Ш":{"ha":833,"x_min":49,"x_max":785,"o":"m 785 0 l 49 0 l 49 963 l 229 963 l 229 156 l 338 156 l 338 963 l 497 963 l 497 156 l 604 156 l 604 963 l 785 963 l 785 0 z "},"Щ":{"ha":833,"x_min":49,"x_max":851,"o":"m 851 169 l 851 -242 l 678 -242 l 650 0 l 49 0 l 49 963 l 229 963 l 229 156 l 338 156 l 338 963 l 497 963 l 497 156 l 604 156 l 604 963 l 785 963 l 785 169 l 851 169 z "},"Џ":{"ha":833,"x_min":72,"x_max":761,"o":"m 761 0 l 517 0 l 517 -242 l 343 -242 l 315 0 l 72 0 l 72 963 l 300 963 l 300 178 l 533 178 l 533 963 l 761 963 l 761 0 z "},"Ь":{"ha":833,"x_min":76,"x_max":800,"o":"m 304 638 l 399 638 q 696 560 592 638 q 800 328 800 483 q 697 83 800 165 q 414 0 593 0 l 76 0 l 76 963 l 304 963 l 304 638 m 304 476 l 304 167 l 399 167 q 524 205 482 167 q 565 326 565 243 q 523 440 565 403 q 390 476 481 476 l 304 476 z "},"Ъ":{"ha":833,"x_min":-4,"x_max":815,"o":"m 340 638 l 413 638 q 710 560 606 638 q 815 328 815 483 q 711 82 815 164 q 429 0 607 0 l 126 0 l 126 796 l -4 796 l -4 963 l 340 963 l 340 638 m 340 481 l 340 163 l 388 163 q 534 199 485 163 q 583 326 583 236 q 540 442 583 404 q 406 481 496 481 l 340 481 z "},"Ы":{"ha":833,"x_min":29,"x_max":804,"o":"m 215 642 l 228 642 q 490 563 399 642 q 581 329 581 485 q 488 81 581 163 q 231 0 396 0 l 29 0 l 29 963 l 215 963 l 215 642 m 804 0 l 618 0 l 618 963 l 804 963 l 804 0 m 215 488 l 215 157 l 235 157 q 349 195 311 157 q 388 328 388 233 q 247 488 388 488 l 215 488 z "},"Љ":{"ha":833,"x_min":-21,"x_max":833,"o":"m 506 638 q 749 560 664 638 q 833 328 833 483 q 747 82 833 164 q 507 0 661 0 l 332 0 l 332 818 l 253 818 l 235 422 q 207 180 226 264 q 156 55 188 96 q 61 -28 124 14 l -21 103 q 15 153 1 122 q 40 253 29 185 q 57 447 50 322 l 85 963 l 506 963 l 506 638 m 506 494 l 506 147 l 526 147 q 617 193 589 147 q 646 326 646 239 q 616 452 646 410 q 519 494 586 494 l 506 494 z "},"Њ":{"ha":833,"x_min":39,"x_max":833,"o":"m 514 603 q 749 531 665 601 q 833 315 833 460 q 500 0 833 0 l 335 0 l 335 447 l 218 447 l 218 0 l 39 0 l 39 963 l 218 963 l 218 603 l 335 603 l 335 963 l 514 963 l 514 603 m 514 451 l 514 157 l 521 157 q 621 195 592 158 q 650 314 650 232 q 619 419 650 388 q 521 451 589 450 l 514 451 z "},"Ѕ":{"ha":833,"x_min":17,"x_max":789,"o":"m 789 282 q 742 122 789 192 q 606 15 694 53 q 397 -24 518 -24 q 17 115 158 -24 l 132 243 q 392 146 242 146 q 508 177 464 146 q 551 264 551 208 q 515 347 551 317 q 378 407 478 376 q 138 528 208 458 q 67 707 67 597 q 115 857 67 793 q 245 954 163 921 q 429 988 328 988 q 774 863 642 988 l 667 739 q 562 799 618 779 q 446 819 506 819 q 341 795 379 819 q 303 725 303 771 q 320 674 303 694 q 378 635 338 653 q 499 592 418 617 q 717 477 646 547 q 789 282 789 407 z "},"Є":{"ha":833,"x_min":47,"x_max":818,"o":"m 497 988 q 667 960 596 988 q 806 881 738 933 l 699 757 q 608 806 651 789 q 513 822 564 822 q 353 761 417 822 q 279 579 289 700 l 635 579 l 635 406 l 279 406 q 349 213 288 278 q 507 149 410 149 q 619 168 571 149 q 718 224 667 188 l 818 101 q 492 -24 690 -24 q 258 35 358 -24 q 103 207 158 93 q 47 483 47 321 q 106 754 47 640 q 266 928 164 868 q 497 988 368 988 z "},"Э":{"ha":833,"x_min":19,"x_max":778,"o":"m 361 988 q 669 859 560 988 q 778 488 778 731 q 723 205 778 319 q 569 33 668 90 q 338 -24 471 -24 q 160 8 242 -24 q 19 99 79 39 l 125 222 q 224 167 175 185 q 335 149 272 149 q 547 413 536 149 l 190 413 l 190 572 l 547 572 q 490 764 540 706 q 343 822 439 822 q 232 802 281 822 q 136 747 183 782 l 31 867 q 180 956 100 925 q 361 988 260 988 z "},"І":{"ha":833,"x_min":104,"x_max":729,"o":"m 729 796 l 531 796 l 531 168 l 729 168 l 729 0 l 104 0 l 104 168 l 303 168 l 303 796 l 104 796 l 104 963 l 729 963 l 729 796 z "},"Ї":{"ha":833,"x_min":104,"x_max":729,"o":"m 729 796 l 531 796 l 531 168 l 729 168 l 729 0 l 104 0 l 104 168 l 303 168 l 303 796 l 104 796 l 104 963 l 729 963 l 729 796 m 256 1058 q 175 1090 208 1058 q 142 1169 142 1122 q 175 1249 142 1217 q 256 1281 208 1281 q 337 1249 304 1281 q 369 1169 369 1217 q 337 1090 369 1122 q 256 1058 304 1058 m 578 1058 q 497 1091 531 1058 q 463 1169 463 1124 q 497 1248 463 1215 q 578 1281 531 1281 q 659 1249 626 1281 q 692 1169 692 1217 q 659 1090 692 1122 q 578 1058 626 1058 z "},"Ј":{"ha":833,"x_min":54,"x_max":732,"o":"m 732 346 q 630 78 732 176 q 344 -21 528 -21 q 188 1 256 -21 q 54 69 121 24 l 140 210 q 233 163 190 176 q 332 149 276 149 q 456 198 408 149 q 504 344 504 247 l 504 796 l 210 796 l 210 963 l 732 963 l 732 346 z "},"Ћ":{"ha":833,"x_min":-11,"x_max":808,"o":"m 588 800 l 394 800 l 394 592 q 560 653 467 653 q 745 577 682 653 q 808 350 808 501 l 808 0 l 594 0 l 594 369 q 573 463 594 435 q 500 490 551 490 q 394 444 443 490 l 394 0 l 182 0 l 182 800 l -11 800 l -11 963 l 611 963 l 588 800 z "},"Ю":{"ha":833,"x_min":43,"x_max":817,"o":"m 547 988 q 707 932 649 988 q 791 767 765 876 q 817 482 817 657 q 756 100 817 224 q 547 -24 694 -24 q 347 85 407 -24 q 281 421 286 194 l 217 421 l 217 0 l 43 0 l 43 963 l 217 963 l 217 574 l 282 574 q 353 883 290 779 q 547 988 415 988 m 547 838 q 498 808 515 838 q 474 703 481 778 q 467 483 467 628 q 474 263 467 338 q 497 157 481 188 q 547 126 514 126 q 597 157 581 126 q 621 263 614 188 q 628 482 628 338 q 621 703 628 628 q 597 808 614 778 q 547 838 581 838 z "},"Я":{"ha":833,"x_min":3,"x_max":761,"o":"m 761 0 l 533 0 l 533 349 l 415 349 l 249 0 l 3 0 l 215 390 q 92 492 133 428 q 51 657 51 557 q 151 886 51 810 q 446 963 250 963 l 761 963 l 761 0 m 450 803 q 286 651 286 803 q 328 538 286 572 q 454 504 371 504 l 533 504 l 533 803 l 450 803 z "},"Ђ":{"ha":833,"x_min":-11,"x_max":808,"o":"m 394 592 q 560 653 467 653 q 745 577 682 653 q 808 350 808 501 l 808 138 q 732 -106 808 -21 q 518 -236 656 -190 l 458 -81 q 544 -28 515 -57 q 584 40 574 0 q 594 142 594 79 l 594 369 q 573 463 594 435 q 500 490 551 490 q 394 444 443 490 l 394 0 l 182 0 l 182 800 l -11 800 l -11 963 l 611 963 l 588 800 l 394 800 l 394 592 z "},"Ѡ":{"ha":833,"x_min":15,"x_max":818,"o":"m 714 963 q 792 711 765 826 q 818 422 818 596 q 785 173 818 274 q 697 22 753 72 q 572 -28 642 -28 q 467 5 501 -28 q 415 104 433 38 q 265 -28 372 -28 q 83 86 151 -28 q 15 422 15 200 q 29 638 15 543 q 64 802 43 733 q 118 963 85 871 l 301 963 l 283 888 q 237 662 253 760 q 221 425 221 564 q 239 211 221 276 q 290 146 257 146 q 320 165 308 146 q 332 222 332 185 l 332 554 l 501 554 l 501 222 q 512 165 501 183 q 544 146 522 146 q 613 425 613 146 q 595 678 613 574 q 544 911 578 783 l 532 963 l 714 963 z "},"Ѣ":{"ha":833,"x_min":14,"x_max":815,"o":"m 442 617 q 715 541 614 617 q 815 319 815 465 q 716 82 815 164 q 456 0 617 0 l 175 0 l 175 721 l 14 721 l 14 853 l 175 853 l 175 963 l 403 963 l 403 853 l 574 853 l 574 721 l 403 721 l 403 617 l 442 617 m 442 167 q 544 205 506 167 q 582 318 582 243 q 542 419 582 385 q 433 454 503 454 l 403 454 l 403 167 l 442 167 z "},"Ѥ":{"ha":833,"x_min":31,"x_max":844,"o":"m 844 26 q 656 -24 763 -24 q 310 407 335 -24 l 246 407 l 246 0 l 31 0 l 31 967 l 246 967 l 246 574 l 311 574 q 419 881 328 775 q 674 988 511 988 q 843 942 768 988 l 774 810 q 676 832 728 832 q 566 769 603 832 q 526 572 529 706 l 744 572 l 744 413 l 526 413 q 562 201 528 268 q 674 135 596 135 q 782 158 735 135 l 844 26 z "},"Ѧ":{"ha":833,"x_min":-15,"x_max":850,"o":"m 544 339 l 500 339 l 500 -1 l 333 -1 l 333 339 l 285 339 l 196 0 l -15 0 l 279 963 l 556 963 l 850 0 l 633 0 l 544 339 m 504 496 l 414 839 l 325 496 l 504 496 z "},"Ѩ":{"ha":833,"x_min":1,"x_max":868,"o":"m 622 367 l 600 367 l 600 -1 l 460 -1 l 460 367 l 436 367 l 367 0 l 196 0 l 272 367 l 176 367 l 176 -3 l 1 -3 l 1 963 l 176 963 l 176 496 l 299 496 l 394 963 l 671 963 l 868 0 l 692 0 l 622 367 m 599 496 l 529 860 l 461 496 l 599 496 z "},"Ѫ":{"ha":833,"x_min":4,"x_max":829,"o":"m 829 0 l 646 0 l 542 431 l 503 431 l 503 0 l 331 0 l 331 431 l 289 431 l 185 0 l 4 0 l 160 557 l 254 557 l 93 839 l 93 963 l 731 963 l 731 839 l 572 557 l 668 557 l 829 0 m 415 557 l 550 835 l 275 835 l 415 557 z "},"Ѭ":{"ha":833,"x_min":7,"x_max":851,"o":"m 851 0 l 682 0 l 646 431 l 611 431 l 611 0 l 456 0 l 456 431 l 421 431 l 383 0 l 217 0 l 275 431 l 182 431 l 182 -3 l 7 -3 l 7 963 l 182 963 l 182 557 l 385 557 l 261 842 l 261 963 l 797 963 l 797 842 l 678 557 l 772 557 l 851 0 m 533 557 l 639 842 l 422 842 l 533 557 z "},"Ѯ":{"ha":833,"x_min":85,"x_max":749,"o":"m 325 1043 l 128 1224 l 207 1314 l 392 1196 l 576 1314 l 654 1224 l 458 1043 l 325 1043 m 443 538 q 675 469 601 533 q 749 272 749 404 q 706 128 749 183 q 604 43 664 72 q 449 -15 544 14 q 342 -54 367 -39 q 317 -92 317 -69 q 338 -132 317 -115 q 421 -183 358 -149 l 343 -314 q 93 -69 93 -212 q 142 49 93 6 q 314 132 190 93 q 431 174 392 157 q 494 217 471 190 q 517 288 517 244 q 372 399 517 399 l 199 399 l 199 524 l 456 792 l 85 792 l 85 963 l 699 963 l 699 799 l 442 538 l 443 538 z "},"Ѱ":{"ha":833,"x_min":15,"x_max":818,"o":"m 317 254 q 15 588 15 296 l 15 963 l 208 963 l 208 582 q 233 455 208 496 q 332 400 257 414 l 332 963 l 504 963 l 504 401 q 600 457 575 417 q 625 582 625 497 l 625 963 l 818 963 l 818 588 q 743 363 818 449 q 517 256 668 278 l 517 0 l 317 0 l 317 254 z "},"Ѳ":{"ha":833,"x_min":32,"x_max":801,"o":"m 801 482 q 702 112 801 247 q 417 -24 603 -24 q 131 110 229 -24 q 32 482 32 244 q 131 852 32 717 q 417 988 231 988 q 703 853 604 988 q 801 482 801 719 m 417 821 q 303 758 342 821 q 258 558 265 694 l 574 558 q 530 758 567 694 q 417 821 493 821 m 417 143 q 533 210 496 143 q 575 418 569 276 l 258 418 q 301 210 263 276 q 417 143 339 143 z "},"Ѵ":{"ha":833,"x_min":14,"x_max":831,"o":"m 801 819 q 779 822 790 822 q 753 813 763 822 q 738 783 743 804 l 538 0 l 254 0 l 14 963 l 254 963 l 400 174 l 518 796 q 592 945 539 900 q 739 990 644 990 q 831 978 799 990 l 801 819 z "},"Ѷ":{"ha":833,"x_min":14,"x_max":831,"o":"m 801 819 q 779 822 790 822 q 753 813 763 822 q 738 783 743 804 l 538 0 l 254 0 l 14 963 l 254 963 l 400 174 l 518 796 q 592 945 539 900 q 739 990 644 990 q 831 978 799 990 l 801 819 m 256 1092 l 82 1344 l 229 1415 l 368 1146 l 256 1092 m 481 1093 l 308 1347 l 457 1415 l 594 1143 l 481 1093 z "},"Ѹ":{"ha":833,"x_min":-14,"x_max":826,"o":"m 211 -24 q 44 110 101 -24 q -14 482 -14 243 q 44 852 -14 717 q 211 988 101 988 q 435 482 435 988 q 381 110 435 243 q 211 -24 326 -24 m 211 115 q 267 201 250 115 q 283 482 283 286 q 266 763 283 678 q 211 849 249 849 q 157 764 174 849 q 140 482 140 679 q 157 201 140 286 q 211 115 174 115 m 449 -208 q 552 -135 517 -181 q 601 0 588 -89 l 533 0 l 435 738 l 574 738 l 629 140 l 693 738 l 826 738 l 721 0 q 481 -310 683 -260 l 449 -208 z "},"Ғ":{"ha":833,"x_min":53,"x_max":811,"o":"m 388 783 l 388 601 l 586 601 l 586 465 l 388 465 l 388 0 l 160 0 l 160 465 l 53 465 l 53 601 l 160 601 l 160 963 l 811 963 l 789 783 l 388 783 z "},"Ҕ":{"ha":833,"x_min":58,"x_max":786,"o":"m 490 653 q 711 568 636 653 q 786 321 786 483 l 786 -36 q 713 -244 786 -172 q 507 -315 640 -315 q 403 -299 447 -315 q 319 -253 358 -283 l 403 -125 q 444 -143 428 -137 q 485 -149 461 -149 q 540 -127 521 -149 q 558 -56 558 -106 l 558 319 q 528 447 558 410 q 426 485 497 485 q 286 432 344 485 l 286 0 l 58 0 l 58 963 l 286 963 l 675 963 l 647 789 l 286 789 l 286 585 q 490 653 378 653 z "},"Җ":{"ha":833,"x_min":3,"x_max":849,"o":"m 849 169 l 849 -242 l 701 -242 l 674 0 l 633 0 l 525 444 l 486 444 l 486 0 l 347 0 l 347 444 l 306 444 l 197 0 l 3 0 l 153 526 l 17 963 l 204 963 l 310 558 l 347 558 l 347 963 l 486 963 l 486 558 l 524 558 l 629 963 l 817 963 l 681 526 l 782 169 l 849 169 z "},"Ҙ":{"ha":833,"x_min":10,"x_max":781,"o":"m 781 275 q 691 72 781 151 q 440 -21 601 -7 l 440 -67 q 547 -111 511 -75 q 583 -204 583 -147 q 526 -319 583 -275 q 376 -364 469 -364 q 287 -352 329 -364 q 214 -322 244 -340 l 264 -221 q 353 -244 311 -244 q 426 -201 426 -244 q 396 -165 426 -175 q 299 -156 365 -156 l 314 -21 q 10 114 126 -4 l 126 231 q 371 143 231 143 q 504 181 456 143 q 553 285 553 218 q 506 393 553 357 q 369 429 458 429 l 208 429 l 235 590 l 368 590 q 485 621 443 590 q 528 708 528 651 q 486 792 528 763 q 369 822 444 822 q 144 747 239 822 l 35 863 q 393 988 176 988 q 581 955 500 988 q 707 864 663 922 q 751 731 751 806 q 695 588 751 643 q 533 513 639 533 q 715 440 649 501 q 781 275 781 379 z "},"Қ":{"ha":833,"x_min":72,"x_max":844,"o":"m 671 -242 l 643 0 l 596 0 l 388 419 l 300 419 l 300 0 l 72 0 l 72 963 l 300 963 l 300 583 l 385 583 l 597 963 l 818 963 l 574 526 l 757 169 l 844 169 l 844 -242 l 671 -242 z "},"Ҝ":{"ha":833,"x_min":72,"x_max":839,"o":"m 328 429 l 278 429 l 278 0 l 72 0 l 72 963 l 278 963 l 278 574 l 328 574 l 328 796 l 404 796 l 404 574 l 426 574 l 593 963 l 813 963 l 596 526 l 839 0 l 600 0 l 431 429 l 404 429 l 404 204 l 328 204 l 328 429 z "},"Ҟ":{"ha":833,"x_min":14,"x_max":838,"o":"m 838 0 l 589 0 l 408 419 l 321 419 l 321 0 l 93 0 l 93 742 l 14 742 l 14 874 l 93 874 l 93 963 l 321 963 l 321 874 l 438 874 l 438 742 l 321 742 l 321 583 l 406 583 l 590 963 l 811 963 l 594 526 l 838 0 z "},"Ҡ":{"ha":833,"x_min":0,"x_max":840,"o":"m 342 424 l 342 0 l 131 0 l 131 796 l 0 796 l 0 963 l 342 963 l 342 581 l 419 581 l 599 963 l 815 963 l 597 526 l 840 0 l 600 0 l 422 424 l 342 424 z "},"Ң":{"ha":833,"x_min":72,"x_max":828,"o":"m 828 169 l 828 -242 l 654 -242 l 626 0 l 533 0 l 533 406 l 300 406 l 300 0 l 72 0 l 72 963 l 300 963 l 300 593 l 533 593 l 533 963 l 761 963 l 761 169 l 828 169 z "},"Ҧ":{"ha":833,"x_min":32,"x_max":810,"o":"m 638 640 q 764 583 718 640 q 810 433 810 526 l 810 -62 q 744 -247 810 -178 q 572 -315 679 -315 q 468 -299 513 -315 q 385 -253 424 -283 l 461 -140 q 550 -169 503 -169 q 624 -76 624 -169 l 624 418 q 610 470 624 451 q 571 489 596 489 q 514 465 542 489 l 514 0 l 328 0 l 328 811 l 219 811 l 219 0 l 32 0 l 32 963 l 514 963 l 514 594 q 638 640 567 640 z "},"Ԥ":{"ha":833,"x_min":72,"x_max":828,"o":"m 828 169 l 828 -242 l 654 -242 l 626 0 l 533 0 l 533 788 l 300 788 l 300 0 l 72 0 l 72 963 l 761 963 l 761 169 l 828 169 z "},"Ҩ":{"ha":833,"x_min":31,"x_max":808,"o":"m 808 381 q 768 194 808 282 q 654 49 728 106 q 772 -124 706 -32 l 658 -206 q 525 -15 571 -85 q 426 -28 479 -28 q 220 31 310 -28 q 81 205 131 90 q 31 479 31 319 q 81 756 31 640 q 219 931 131 871 q 421 990 308 990 q 582 962 515 990 q 715 876 649 933 l 608 751 q 519 806 560 789 q 431 824 478 824 q 310 740 354 824 q 267 479 267 656 q 310 215 267 300 q 425 131 353 131 l 439 131 q 375 379 375 261 q 432 542 375 483 q 588 600 489 600 q 745 544 682 600 q 808 381 808 489 m 586 465 q 545 444 560 465 q 531 383 531 424 q 579 183 531 293 q 639 388 639 244 q 625 445 639 425 q 586 465 611 465 z "},"Ҫ":{"ha":833,"x_min":47,"x_max":818,"o":"m 564 -19 q 671 -189 671 -83 q 614 -312 671 -267 q 458 -358 557 -358 q 313 -324 378 -358 l 356 -214 q 443 -233 394 -233 q 501 -215 482 -233 q 521 -165 521 -196 q 424 -19 521 -83 q 149 134 251 4 q 47 483 47 264 q 106 754 47 640 q 267 928 164 868 q 497 988 369 988 q 669 961 597 988 q 806 882 742 935 l 694 747 q 503 818 607 818 q 344 735 404 818 q 283 483 283 651 q 343 234 283 315 q 507 153 403 153 q 617 175 571 153 q 715 239 663 197 l 818 107 q 564 -19 714 1 z "},"Ҭ":{"ha":833,"x_min":31,"x_max":810,"o":"m 529 788 l 529 169 l 596 169 l 596 -242 l 422 -242 l 394 0 l 301 0 l 301 788 l 31 788 l 31 963 l 810 963 l 788 788 l 529 788 z "},"Ү":{"ha":833,"x_min":-11,"x_max":844,"o":"m 531 0 l 303 0 l 303 360 l -11 963 l 239 963 l 421 549 l 604 963 l 844 963 l 531 361 l 531 0 z "},"Ұ":{"ha":833,"x_min":-11,"x_max":844,"o":"m 554 408 l 692 408 l 692 279 l 531 279 l 531 0 l 303 0 l 303 279 l 142 279 l 142 408 l 278 408 l -11 963 l 239 963 l 421 549 l 604 963 l 844 963 l 554 408 z "},"Ҳ":{"ha":833,"x_min":6,"x_max":829,"o":"m 656 -242 l 628 0 l 582 0 l 583 3 l 414 367 l 247 0 l 6 0 l 278 511 l 26 963 l 272 963 l 417 654 l 565 963 l 806 963 l 550 521 l 739 169 l 829 169 l 829 -242 l 656 -242 z "},"Ҷ":{"ha":833,"x_min":35,"x_max":828,"o":"m 828 169 l 828 -242 l 654 -242 l 626 0 l 533 0 l 533 338 q 333 275 449 275 q 113 359 192 275 q 35 603 35 443 l 35 963 l 263 963 l 263 610 q 294 481 263 519 q 397 443 325 443 q 533 493 478 443 l 533 963 l 761 963 l 761 169 l 828 169 z "},"Ҹ":{"ha":833,"x_min":35,"x_max":761,"o":"m 761 963 l 761 0 l 533 0 l 533 338 q 451 294 492 307 l 451 174 l 360 174 l 360 275 l 333 275 q 113 359 192 275 q 35 603 35 443 l 35 963 l 263 963 l 263 610 q 285 494 263 532 q 360 446 308 456 l 360 771 l 451 771 l 451 450 q 533 493 496 460 l 533 963 l 761 963 z "},"Һ":{"ha":833,"x_min":72,"x_max":799,"o":"m 504 653 q 724 568 650 653 q 799 321 799 483 l 799 0 l 571 0 l 571 319 q 541 447 571 410 q 440 485 511 485 q 300 432 356 485 l 300 0 l 72 0 l 72 963 l 300 963 l 300 583 q 504 653 388 653 z "},"Ԧ":{"ha":833,"x_min":72,"x_max":839,"o":"m 839 169 l 839 -242 l 664 -242 l 638 0 l 544 0 l 544 319 q 515 447 544 408 q 425 485 486 485 q 300 432 356 485 l 300 0 l 72 0 l 72 963 l 300 963 l 300 585 q 490 653 389 653 q 699 567 626 653 q 772 321 772 482 l 772 169 l 839 169 z "},"Ҽ":{"ha":833,"x_min":-7,"x_max":800,"o":"m 800 496 q 793 397 800 443 l 392 397 q 428 192 393 254 q 532 129 464 129 q 604 144 571 129 q 679 189 638 160 l 761 79 q 647 3 708 29 q 519 -24 585 -24 q 285 83 365 -24 q 194 403 206 190 q 46 459 99 403 q -7 607 -7 515 q 3 683 -7 650 q 32 749 13 715 l 151 701 q 141 673 150 697 q 132 618 132 649 q 147 564 132 582 q 194 544 163 546 q 285 874 206 760 q 507 988 365 988 q 800 496 800 988 m 606 544 q 584 772 608 708 q 507 836 560 836 q 423 772 450 836 q 392 544 396 708 l 606 544 z "},"Ҿ":{"ha":833,"x_min":-7,"x_max":800,"o":"m 800 496 q 793 397 800 443 l 392 397 q 428 192 393 254 q 532 129 464 129 q 604 144 571 129 q 679 189 638 160 l 761 79 q 617 -8 694 17 q 509 -74 539 -39 q 479 -153 479 -108 q 501 -203 479 -186 q 560 -221 522 -221 q 635 -211 593 -221 l 618 -340 q 536 -351 578 -351 q 385 -306 444 -351 q 326 -181 326 -261 q 421 -10 326 -75 q 194 403 214 49 q 46 459 99 403 q -7 607 -7 515 q 3 683 -7 650 q 32 749 13 715 l 151 701 q 141 673 150 697 q 132 618 132 649 q 147 564 132 582 q 194 544 163 546 q 285 874 206 760 q 507 988 365 988 q 800 496 800 988 m 606 544 q 584 772 608 708 q 507 836 560 836 q 423 772 450 836 q 392 544 396 708 l 606 544 z "},"Ӏ":{"ha":833,"x_min":104,"x_max":729,"o":"m 729 796 l 531 796 l 531 168 l 729 168 l 729 0 l 104 0 l 104 168 l 303 168 l 303 796 l 104 796 l 104 963 l 729 963 l 729 796 z "},"Ӂ":{"ha":833,"x_min":3,"x_max":831,"o":"m 306 444 l 197 0 l 3 0 l 153 526 l 17 963 l 204 963 l 310 558 l 347 558 l 347 963 l 486 963 l 486 558 l 524 558 l 629 963 l 817 963 l 681 526 l 831 0 l 633 0 l 525 444 l 486 444 l 486 0 l 347 0 l 347 444 l 306 444 m 417 1025 q 249 1088 310 1025 q 178 1240 188 1150 l 299 1261 q 339 1199 308 1221 q 417 1176 369 1176 q 494 1199 464 1176 q 535 1261 525 1221 l 656 1240 q 585 1088 646 1150 q 417 1025 524 1025 z "},"Ӄ":{"ha":833,"x_min":72,"x_max":818,"o":"m 594 561 q 741 474 693 542 q 789 281 789 406 l 789 -36 q 716 -243 789 -171 q 511 -315 643 -315 q 407 -299 451 -315 q 322 -253 363 -283 l 406 -125 q 449 -143 433 -137 q 489 -149 465 -149 q 543 -127 525 -149 q 561 -56 561 -106 l 561 278 q 535 374 561 343 q 450 406 508 406 l 300 406 l 300 0 l 72 0 l 72 963 l 300 963 l 300 569 l 390 569 l 596 963 l 818 963 l 594 561 z "},"Ӆ":{"ha":833,"x_min":-14,"x_max":847,"o":"m 847 211 l 710 -242 l 522 -242 l 576 0 l 494 0 l 494 789 l 385 789 l 371 635 q 317 276 349 400 q 231 86 286 151 q 75 -28 176 21 l -14 122 q 67 207 38 161 q 117 355 96 253 q 158 657 139 457 l 186 963 l 722 963 l 722 211 l 847 211 z "},"Ӈ":{"ha":833,"x_min":72,"x_max":761,"o":"m 761 -36 q 688 -243 761 -171 q 483 -315 615 -315 q 379 -299 424 -315 q 294 -253 335 -283 l 378 -125 q 422 -143 406 -137 q 461 -149 438 -149 q 515 -127 497 -149 q 533 -56 533 -106 l 533 406 l 300 406 l 300 0 l 72 0 l 72 963 l 300 963 l 300 593 l 533 593 l 533 963 l 761 963 l 761 -36 z "},"Ӊ":{"ha":833,"x_min":60,"x_max":832,"o":"m 832 211 l 694 -242 l 507 -242 l 563 0 l 479 0 l 479 403 l 288 403 l 288 0 l 60 0 l 60 963 l 288 963 l 288 596 l 479 596 l 479 963 l 707 963 l 707 211 l 832 211 z "},"Ӌ":{"ha":833,"x_min":35,"x_max":761,"o":"m 761 963 l 761 0 l 646 0 l 618 -242 l 444 -242 l 444 169 l 533 169 l 533 338 q 333 275 449 275 q 113 359 192 275 q 35 603 35 443 l 35 963 l 263 963 l 263 610 q 294 481 263 519 q 397 443 325 443 q 533 493 478 443 l 533 963 l 761 963 z "},"Ӎ":{"ha":833,"x_min":29,"x_max":875,"o":"m 875 211 l 738 -242 l 576 -242 l 632 0 l 560 0 l 549 413 q 547 497 547 443 q 551 633 547 565 q 561 778 556 701 l 479 164 l 307 164 l 218 778 q 233 482 233 607 l 232 408 l 224 0 l 29 0 l 83 963 l 318 963 l 397 340 l 471 963 l 706 963 l 747 211 l 875 211 z "},"Ӑ":{"ha":833,"x_min":-15,"x_max":850,"o":"m 274 208 l 224 0 l -15 0 l 279 963 l 556 963 l 850 0 l 606 0 l 556 208 l 274 208 m 518 372 l 414 799 l 310 372 l 518 372 m 417 1025 q 249 1088 310 1025 q 178 1240 188 1150 l 299 1261 q 339 1199 308 1221 q 417 1176 369 1176 q 494 1199 464 1176 q 535 1261 525 1221 l 656 1240 q 585 1088 646 1150 q 417 1025 524 1025 z "},"Ӓ":{"ha":833,"x_min":-15,"x_max":850,"o":"m 274 208 l 224 0 l -15 0 l 279 963 l 556 963 l 850 0 l 606 0 l 556 208 l 274 208 m 518 372 l 414 799 l 310 372 l 518 372 m 256 1058 q 175 1090 208 1058 q 142 1169 142 1122 q 175 1249 142 1217 q 256 1281 208 1281 q 337 1249 304 1281 q 369 1169 369 1217 q 337 1090 369 1122 q 256 1058 304 1058 m 578 1058 q 497 1091 531 1058 q 463 1169 463 1124 q 497 1248 463 1215 q 578 1281 531 1281 q 659 1249 626 1281 q 692 1169 692 1217 q 659 1090 692 1122 q 578 1058 626 1058 z "},"Ӗ":{"ha":833,"x_min":129,"x_max":758,"o":"m 357 568 l 690 568 l 690 410 l 357 410 l 357 164 l 758 164 l 758 0 l 129 0 l 129 963 l 758 963 l 735 800 l 357 800 l 357 568 m 444 1025 q 276 1088 338 1025 q 206 1240 215 1150 l 326 1261 q 367 1199 336 1221 q 444 1176 397 1176 q 522 1199 492 1176 q 563 1261 553 1221 l 683 1240 q 613 1088 674 1150 q 444 1025 551 1025 z "},"Ә":{"ha":833,"x_min":28,"x_max":800,"o":"m 28 468 q 35 560 28 514 l 574 560 q 522 760 569 696 q 385 824 475 824 q 283 805 325 824 q 188 747 240 786 l 83 867 q 230 957 153 926 q 406 988 307 988 q 699 860 597 988 q 800 488 800 733 q 698 109 800 242 q 411 -24 596 -24 q 124 106 219 -24 q 28 468 28 235 m 411 140 q 528 203 488 140 q 574 406 569 265 l 243 406 q 288 203 244 265 q 411 140 331 140 z "},"Ӛ":{"ha":833,"x_min":28,"x_max":800,"o":"m 28 468 q 35 560 28 514 l 574 560 q 522 760 569 696 q 385 824 475 824 q 283 805 325 824 q 188 747 240 786 l 83 867 q 230 957 153 926 q 406 988 307 988 q 699 860 597 988 q 800 488 800 733 q 698 109 800 242 q 411 -24 596 -24 q 124 106 219 -24 q 28 468 28 235 m 411 140 q 528 203 488 140 q 574 406 569 265 l 243 406 q 288 203 244 265 q 411 140 331 140 m 244 1060 q 164 1092 197 1060 q 131 1171 131 1124 q 164 1250 131 1218 q 244 1282 197 1282 q 326 1250 293 1282 q 358 1171 358 1218 q 326 1092 358 1124 q 244 1060 293 1060 m 567 1060 q 485 1092 519 1060 q 451 1171 451 1125 q 485 1249 451 1217 q 567 1282 519 1282 q 648 1250 615 1282 q 681 1171 681 1218 q 648 1092 681 1124 q 567 1060 615 1060 z "},"Ӝ":{"ha":833,"x_min":3,"x_max":831,"o":"m 306 444 l 197 0 l 3 0 l 153 526 l 17 963 l 204 963 l 310 558 l 347 558 l 347 963 l 486 963 l 486 558 l 524 558 l 629 963 l 817 963 l 681 526 l 831 0 l 633 0 l 525 444 l 486 444 l 486 0 l 347 0 l 347 444 l 306 444 m 256 1058 q 175 1090 208 1058 q 142 1169 142 1122 q 175 1249 142 1217 q 256 1281 208 1281 q 337 1249 304 1281 q 369 1169 369 1217 q 337 1090 369 1122 q 256 1058 304 1058 m 578 1058 q 497 1091 531 1058 q 463 1169 463 1124 q 497 1248 463 1215 q 578 1281 531 1281 q 659 1249 626 1281 q 692 1169 692 1217 q 659 1090 692 1122 q 578 1058 626 1058 z "},"Ӟ":{"ha":833,"x_min":10,"x_max":781,"o":"m 393 988 q 581 955 500 988 q 707 864 663 922 q 751 731 751 806 q 695 588 751 643 q 533 513 639 533 q 715 440 649 501 q 781 275 781 379 q 733 117 781 185 q 594 13 686 50 q 375 -24 503 -24 q 166 12 258 -24 q 10 114 74 47 l 126 231 q 371 143 231 143 q 504 181 456 143 q 553 285 553 218 q 506 393 553 357 q 369 429 458 429 l 208 429 l 235 590 l 368 590 q 485 621 443 590 q 528 708 528 651 q 486 792 528 763 q 369 822 444 822 q 144 747 239 822 l 35 863 q 393 988 176 988 m 240 1058 q 160 1090 193 1058 q 126 1169 126 1122 q 160 1249 126 1217 q 240 1281 193 1281 q 322 1249 289 1281 q 354 1169 354 1217 q 322 1090 354 1122 q 240 1058 289 1058 m 563 1058 q 481 1091 515 1058 q 447 1169 447 1124 q 481 1248 447 1215 q 563 1281 515 1281 q 644 1249 611 1281 q 676 1169 676 1217 q 644 1090 676 1122 q 563 1058 611 1058 z "},"Ӡ":{"ha":833,"x_min":57,"x_max":776,"o":"m 485 558 q 699 491 621 558 q 776 296 776 424 q 729 132 776 206 q 594 15 682 58 q 390 -28 507 -28 q 200 4 275 -28 q 57 97 125 36 l 163 218 q 268 157 218 175 q 381 139 318 139 q 497 176 454 139 q 540 293 540 214 q 494 397 540 367 q 360 426 449 426 l 225 426 l 225 546 l 483 792 l 111 792 l 111 963 l 725 963 l 725 799 l 475 558 l 485 558 z "},"Ӣ":{"ha":833,"x_min":72,"x_max":761,"o":"m 72 963 l 281 963 l 281 636 q 271 402 281 500 q 242 199 261 304 l 510 963 l 761 963 l 761 0 l 553 0 l 553 319 q 590 763 553 547 l 328 0 l 72 0 l 72 963 m 204 1086 l 204 1239 l 628 1239 l 628 1086 l 204 1086 z "},"Ӥ":{"ha":833,"x_min":72,"x_max":761,"o":"m 72 963 l 281 963 l 281 636 q 271 402 281 500 q 242 199 261 304 l 510 963 l 761 963 l 761 0 l 553 0 l 553 319 q 590 763 553 547 l 328 0 l 72 0 l 72 963 m 256 1058 q 175 1090 208 1058 q 142 1169 142 1122 q 175 1249 142 1217 q 256 1281 208 1281 q 337 1249 304 1281 q 369 1169 369 1217 q 337 1090 369 1122 q 256 1058 304 1058 m 578 1058 q 497 1091 531 1058 q 463 1169 463 1124 q 497 1248 463 1215 q 578 1281 531 1281 q 659 1249 626 1281 q 692 1169 692 1217 q 659 1090 692 1122 q 578 1058 626 1058 z "},"Ӧ":{"ha":833,"x_min":32,"x_max":801,"o":"m 801 482 q 702 112 801 247 q 417 -24 603 -24 q 131 110 229 -24 q 32 482 32 244 q 131 852 32 717 q 417 988 231 988 q 703 853 604 988 q 801 482 801 719 m 568 482 q 533 740 568 660 q 417 821 497 821 q 301 740 336 821 q 265 482 265 660 q 301 224 265 304 q 417 143 336 143 q 533 224 499 143 q 568 482 568 304 m 256 1058 q 175 1090 208 1058 q 142 1169 142 1122 q 175 1249 142 1217 q 256 1281 208 1281 q 337 1249 304 1281 q 369 1169 369 1217 q 337 1090 369 1122 q 256 1058 304 1058 m 578 1058 q 497 1091 531 1058 q 463 1169 463 1124 q 497 1248 463 1215 q 578 1281 531 1281 q 659 1249 626 1281 q 692 1169 692 1217 q 659 1090 692 1122 q 578 1058 626 1058 z "},"Ө":{"ha":833,"x_min":32,"x_max":801,"o":"m 801 482 q 702 112 801 247 q 417 -24 603 -24 q 131 110 229 -24 q 32 482 32 244 q 131 852 32 717 q 417 988 231 988 q 703 853 604 988 q 801 482 801 719 m 417 821 q 303 758 342 821 q 258 558 265 694 l 574 558 q 530 758 567 694 q 417 821 493 821 m 417 143 q 533 210 496 143 q 575 418 569 276 l 258 418 q 301 210 263 276 q 417 143 339 143 z "},"Ӫ":{"ha":833,"x_min":32,"x_max":801,"o":"m 801 482 q 702 112 801 247 q 417 -24 603 -24 q 131 110 229 -24 q 32 482 32 244 q 131 852 32 717 q 417 988 231 988 q 703 853 604 988 q 801 482 801 719 m 417 821 q 303 758 342 821 q 258 558 265 694 l 574 558 q 530 758 567 694 q 417 821 493 821 m 417 143 q 533 210 496 143 q 575 418 569 276 l 258 418 q 301 210 263 276 q 417 143 339 143 m 256 1058 q 175 1090 208 1058 q 142 1169 142 1122 q 175 1249 142 1217 q 256 1281 208 1281 q 337 1249 304 1281 q 369 1169 369 1217 q 337 1090 369 1122 q 256 1058 304 1058 m 578 1058 q 497 1091 531 1058 q 463 1169 463 1124 q 497 1248 463 1215 q 578 1281 531 1281 q 659 1249 626 1281 q 692 1169 692 1217 q 659 1090 692 1122 q 578 1058 626 1058 z "},"Ӭ":{"ha":833,"x_min":19,"x_max":778,"o":"m 361 988 q 669 859 560 988 q 778 488 778 731 q 723 205 778 319 q 569 33 668 90 q 338 -24 471 -24 q 160 8 242 -24 q 19 99 79 39 l 125 222 q 224 167 175 185 q 335 149 272 149 q 547 413 536 149 l 190 413 l 190 572 l 547 572 q 490 764 540 706 q 343 822 439 822 q 232 802 281 822 q 136 747 183 782 l 31 867 q 180 956 100 925 q 361 988 260 988 m 225 1053 q 144 1085 178 1053 q 111 1164 111 1117 q 144 1243 111 1211 q 225 1275 178 1275 q 306 1243 274 1275 q 339 1164 339 1211 q 306 1085 339 1117 q 225 1053 274 1053 m 547 1053 q 466 1085 500 1053 q 432 1164 432 1118 q 466 1242 432 1210 q 547 1275 500 1275 q 628 1243 596 1275 q 661 1164 661 1211 q 628 1085 661 1117 q 547 1053 596 1053 z "},"Ӯ":{"ha":833,"x_min":-7,"x_max":843,"o":"m 599 328 q 496 128 550 200 q 361 22 442 57 q 147 -24 281 -12 l 118 132 q 279 169 226 142 q 365 254 332 196 l 292 254 l -7 963 l 229 963 l 432 385 l 613 963 l 843 963 l 599 328 m 218 1086 l 218 1239 l 642 1239 l 642 1086 l 218 1086 z "},"Ӱ":{"ha":833,"x_min":-7,"x_max":843,"o":"m 599 328 q 496 128 550 200 q 361 22 442 57 q 147 -24 281 -12 l 118 132 q 279 169 226 142 q 365 254 332 196 l 292 254 l -7 963 l 229 963 l 432 385 l 613 963 l 843 963 l 599 328 m 269 1058 q 189 1090 222 1058 q 156 1169 156 1122 q 189 1249 156 1217 q 269 1281 222 1281 q 351 1249 318 1281 q 383 1169 383 1217 q 351 1090 383 1122 q 269 1058 318 1058 m 592 1058 q 510 1091 544 1058 q 476 1169 476 1124 q 510 1248 476 1215 q 592 1281 544 1281 q 673 1249 640 1281 q 706 1169 706 1217 q 673 1090 706 1122 q 592 1058 640 1058 z "},"Ӳ":{"ha":833,"x_min":-7,"x_max":843,"o":"m 599 328 q 496 128 550 200 q 361 22 442 57 q 147 -24 281 -12 l 118 132 q 279 169 226 142 q 365 254 332 196 l 292 254 l -7 963 l 229 963 l 432 385 l 613 963 l 843 963 l 599 328 m 372 1364 l 521 1296 l 349 1042 l 233 1092 l 372 1364 m 600 1364 l 747 1293 l 574 1040 l 461 1094 l 600 1364 z "},"Ӵ":{"ha":833,"x_min":35,"x_max":761,"o":"m 761 963 l 761 0 l 533 0 l 533 338 q 333 275 449 275 q 113 359 192 275 q 35 603 35 443 l 35 963 l 263 963 l 263 610 q 294 481 263 519 q 397 443 325 443 q 533 493 478 443 l 533 963 l 761 963 m 236 1058 q 156 1090 189 1058 q 122 1169 122 1122 q 156 1249 122 1217 q 236 1281 189 1281 q 317 1249 285 1281 q 350 1169 350 1217 q 317 1090 350 1122 q 236 1058 285 1058 m 558 1058 q 477 1091 511 1058 q 443 1169 443 1124 q 477 1248 443 1215 q 558 1281 511 1281 q 640 1249 607 1281 q 672 1169 672 1217 q 640 1090 672 1122 q 558 1058 607 1058 z "},"Ӷ":{"ha":833,"x_min":125,"x_max":776,"o":"m 353 783 l 353 169 l 447 169 l 447 -242 l 274 -242 l 246 0 l 125 0 l 125 963 l 776 963 l 754 783 l 353 783 z "},"Ӹ":{"ha":833,"x_min":29,"x_max":804,"o":"m 215 642 l 228 642 q 490 563 399 642 q 581 329 581 485 q 488 81 581 163 q 231 0 396 0 l 29 0 l 29 963 l 215 963 l 215 642 m 804 0 l 618 0 l 618 963 l 804 963 l 804 0 m 215 488 l 215 157 l 235 157 q 349 195 311 157 q 388 328 388 233 q 247 488 388 488 l 215 488 m 256 1058 q 175 1090 208 1058 q 142 1169 142 1122 q 175 1249 142 1217 q 256 1281 208 1281 q 337 1249 304 1281 q 369 1169 369 1217 q 337 1090 369 1122 q 256 1058 304 1058 m 578 1058 q 497 1091 531 1058 q 463 1169 463 1124 q 497 1248 463 1215 q 578 1281 531 1281 q 659 1249 626 1281 q 692 1169 692 1217 q 659 1090 692 1122 q 578 1058 626 1058 z "},"Ӻ":{"ha":833,"x_min":85,"x_max":872,"o":"m 449 783 l 449 601 l 647 601 l 647 465 l 449 465 l 449 169 l 551 169 l 551 -36 q 478 -244 551 -172 q 272 -315 406 -315 q 169 -299 213 -315 q 85 -253 125 -283 l 168 -125 q 210 -143 193 -137 q 251 -149 228 -149 q 306 -127 288 -149 q 324 -56 324 -106 l 324 0 l 221 0 l 221 465 l 114 465 l 114 601 l 221 601 l 221 963 l 872 963 l 850 783 l 449 783 z "},"Ӽ":{"ha":833,"x_min":-1,"x_max":846,"o":"m 846 -36 q 774 -244 846 -172 q 568 -315 701 -315 q 464 -299 508 -315 q 379 -253 419 -283 l 464 -125 q 506 -143 489 -137 q 546 -149 522 -149 q 600 -127 582 -149 q 618 -56 618 -106 l 618 0 l 578 0 l 408 367 l 240 0 l -1 0 l 272 511 l 19 963 l 265 963 l 411 654 l 560 963 l 800 963 l 543 521 l 732 169 l 846 169 l 846 -36 z "},"Ӿ":{"ha":833,"x_min":6,"x_max":829,"o":"m 829 0 l 583 0 l 414 367 l 247 0 l 6 0 l 242 443 l 72 443 l 72 581 l 239 581 l 26 963 l 272 963 l 417 654 l 565 963 l 806 963 l 585 581 l 764 581 l 764 443 l 592 443 l 829 0 z "},"Ԁ":{"ha":833,"x_min":33,"x_max":757,"o":"m 418 0 q 135 79 238 0 q 33 319 33 158 q 140 554 33 471 q 435 638 247 638 l 529 638 l 529 963 l 757 963 l 757 0 l 418 0 m 529 167 l 529 475 l 443 475 q 311 437 354 475 q 268 319 268 399 q 310 203 268 239 q 435 167 351 167 l 529 167 z "},"Ԃ":{"ha":833,"x_min":14,"x_max":810,"o":"m 801 526 q 810 342 810 446 q 747 67 810 157 q 560 -24 685 -24 q 390 67 449 -24 q 323 1 360 24 q 236 -21 286 -21 q 125 15 175 -21 q 44 121 75 50 q 14 290 14 192 q 51 464 14 390 q 153 576 89 538 q 297 615 218 615 l 350 615 l 350 963 l 522 963 l 522 193 q 535 142 522 158 q 567 125 547 125 q 618 177 601 125 q 635 340 635 229 q 628 526 635 433 l 801 526 m 268 125 q 312 138 293 125 q 350 182 331 151 l 350 474 l 306 474 q 217 431 247 474 q 188 292 188 388 q 268 125 188 125 z "},"Ԅ":{"ha":833,"x_min":22,"x_max":811,"o":"m 803 526 q 811 356 811 446 q 529 -24 811 -24 q 359 22 425 -24 q 249 161 293 68 l 151 368 l 51 368 l 51 522 l 156 522 q 270 558 232 522 q 308 669 308 593 q 268 773 308 740 q 146 806 228 806 l 22 806 l 22 963 l 146 963 q 443 890 344 963 q 542 669 542 818 q 492 511 542 575 q 360 410 443 447 l 461 201 q 490 159 475 171 q 528 147 506 147 q 583 194 565 147 q 600 354 600 242 q 593 526 600 433 l 803 526 z "},"Ԇ":{"ha":833,"x_min":79,"x_max":786,"o":"m 786 169 l 786 -242 l 611 -242 l 583 0 l 513 0 l 304 368 l 121 368 l 121 525 l 325 525 q 476 669 476 525 q 437 771 476 739 q 315 803 397 803 l 79 803 l 79 963 l 314 963 q 612 890 513 963 q 711 669 711 818 q 658 506 711 572 q 518 406 606 440 l 665 169 l 786 169 z "},"Ԉ":{"ha":833,"x_min":-7,"x_max":831,"o":"m 822 526 q 831 342 831 446 q 581 -24 831 -24 q 428 37 488 -24 q 368 207 368 97 l 368 814 l 294 814 l 282 579 q 249 255 271 367 q 189 83 228 143 q 74 -28 150 24 l -7 103 q 53 183 31 135 q 90 333 75 231 q 117 629 106 435 l 136 963 l 542 963 l 542 193 q 554 142 542 158 q 588 125 567 125 q 656 340 656 125 q 649 526 656 433 l 822 526 z "},"Ԋ":{"ha":833,"x_min":43,"x_max":822,"o":"m 814 526 q 822 342 822 446 q 758 66 822 156 q 564 -24 694 -24 q 452 3 503 -24 q 371 81 401 29 q 340 207 340 133 l 340 403 l 226 403 l 226 0 l 43 0 l 43 963 l 226 963 l 226 565 l 340 565 l 340 963 l 525 963 l 525 193 q 538 142 525 158 q 569 125 550 125 q 621 177 604 125 q 638 340 638 229 q 631 526 638 433 l 814 526 z "},"Ԍ":{"ha":833,"x_min":32,"x_max":789,"o":"m 453 -24 q 140 106 247 -24 q 32 483 32 236 q 90 757 32 643 q 251 929 149 871 q 479 988 353 988 q 651 956 578 988 q 785 868 724 925 l 665 744 q 580 803 619 785 q 490 821 540 821 q 326 738 386 821 q 267 482 267 656 q 311 219 267 296 q 454 143 356 143 q 574 172 519 143 l 574 393 l 453 393 l 431 551 l 789 551 l 789 74 q 453 -24 631 -24 z "},"Ԏ":{"ha":833,"x_min":17,"x_max":806,"o":"m 797 526 q 806 342 806 446 q 724 69 806 161 q 503 -24 642 -24 q 308 49 382 -24 q 233 264 233 122 l 233 503 l 232 503 l 232 792 l 17 792 l 17 963 l 700 963 l 676 792 l 460 792 l 460 208 q 510 139 460 139 q 570 188 551 139 q 589 340 589 238 q 582 526 589 433 l 797 526 z "},"Ԑ":{"ha":833,"x_min":53,"x_max":824,"o":"m 449 988 q 641 957 557 988 q 799 863 725 926 l 689 747 q 468 822 594 822 q 349 792 392 822 q 306 707 306 761 q 349 620 306 650 q 465 590 392 590 l 624 590 l 597 429 l 464 429 q 328 393 375 429 q 281 285 281 357 q 328 181 281 218 q 458 143 376 143 q 710 231 601 143 l 824 114 q 449 -24 678 -24 q 237 14 326 -24 q 100 119 147 51 q 53 276 53 186 q 119 440 53 379 q 300 513 185 500 q 137 581 192 532 q 82 717 82 631 q 129 857 82 796 q 260 953 176 918 q 449 988 343 988 z "},"Ԓ":{"ha":833,"x_min":-17,"x_max":761,"o":"m 761 -36 q 688 -243 761 -171 q 483 -315 615 -315 q 379 -299 424 -315 q 294 -253 335 -283 l 378 -125 q 422 -143 406 -137 q 461 -149 438 -149 q 515 -127 497 -149 q 533 -56 533 -106 l 533 789 l 382 789 l 368 635 q 315 276 346 400 q 228 86 283 151 q 72 -28 174 21 l -17 122 q 64 207 35 161 q 115 355 93 253 q 156 657 136 457 l 183 963 l 761 963 l 761 -36 z "},"Ԕ":{"ha":833,"x_min":-24,"x_max":842,"o":"m 842 0 l 661 0 l 563 381 l 464 0 l 288 0 l 438 511 l 344 814 l 278 814 l 264 579 q 231 255 251 367 q 170 83 210 143 q 56 -28 131 24 l -24 103 q 35 183 14 135 q 72 333 57 231 q 99 629 88 436 l 119 963 l 481 963 l 564 640 l 650 963 l 828 963 l 675 521 l 842 0 z "},"Ԗ":{"ha":833,"x_min":31,"x_max":844,"o":"m 628 0 l 478 418 q 279 321 404 321 l 231 321 l 231 0 l 31 0 l 31 963 l 264 963 q 465 894 390 963 q 550 694 539 826 l 651 963 l 833 963 l 650 513 l 844 0 l 628 0 m 265 479 q 371 649 371 479 q 267 807 371 807 l 231 807 l 231 479 l 265 479 z "},"Ԙ":{"ha":833,"x_min":-1,"x_max":831,"o":"m 831 160 l 831 0 l 381 0 l 381 349 l 338 349 l 221 0 l -1 0 l 163 390 q 56 497 93 435 q 19 653 19 560 q 64 816 19 746 q 185 924 108 886 q 356 963 261 963 l 831 963 l 807 807 l 581 807 l 581 565 l 775 565 l 775 411 l 581 411 l 581 160 l 831 160 m 381 810 l 353 810 q 263 769 296 810 q 231 651 231 729 q 263 538 231 575 q 349 500 294 500 l 381 500 l 381 810 z "},"Ԛ":{"ha":833,"x_min":44,"x_max":881,"o":"m 797 482 q 596 56 797 158 q 777 -14 713 36 q 881 -176 842 -64 l 694 -240 q 626 -115 661 -161 q 538 -44 592 -68 q 403 -19 485 -19 q 135 112 225 -19 q 44 482 44 243 q 140 853 44 718 q 421 988 236 988 q 702 854 607 988 q 797 482 797 721 m 561 482 q 549 677 561 604 q 506 785 536 750 q 421 819 475 819 q 336 784 367 819 q 293 676 306 749 q 281 482 281 603 q 312 222 281 301 q 421 143 343 143 q 506 178 476 143 q 549 287 536 214 q 561 482 561 360 z "},"Ԝ":{"ha":833,"x_min":-4,"x_max":838,"o":"m 725 0 l 489 0 l 418 689 l 340 0 l 100 0 l -4 963 l 208 963 l 242 194 l 321 851 l 518 851 l 592 194 l 639 963 l 838 963 l 725 0 z "},"Ԟ":{"ha":833,"x_min":72,"x_max":844,"o":"m 844 0 l 596 0 l 386 419 l 300 419 l 300 0 l 72 0 l 72 963 l 300 963 l 300 583 l 383 583 l 465 729 l 338 789 l 392 906 l 529 842 l 597 963 l 818 963 l 706 761 l 839 700 l 785 583 l 642 649 l 574 526 l 844 0 z "},"Ԡ":{"ha":833,"x_min":-25,"x_max":807,"o":"m 649 640 q 767 585 728 640 q 807 433 807 529 l 807 -62 q 778 -196 807 -139 q 697 -284 749 -253 q 582 -315 646 -315 q 483 -299 524 -315 q 400 -253 442 -283 l 472 -146 q 561 -175 517 -175 q 615 -153 597 -175 q 633 -82 633 -132 l 633 418 q 620 470 633 451 q 581 489 607 489 q 525 467 554 489 l 525 0 l 351 0 l 351 814 l 276 814 l 264 579 q 231 255 253 367 q 171 83 210 143 q 56 -28 132 24 l -25 103 q 35 183 13 135 q 72 333 57 231 q 99 629 88 435 l 118 963 l 525 963 l 525 594 q 649 640 578 640 z "},"Ԣ":{"ha":833,"x_min":33,"x_max":807,"o":"m 638 640 q 762 583 717 640 q 807 433 807 526 l 807 -62 q 742 -247 807 -178 q 572 -315 678 -315 q 468 -299 513 -315 q 385 -253 424 -283 l 461 -140 q 550 -169 503 -169 q 624 -76 624 -169 l 624 418 q 610 470 624 451 q 571 489 596 489 q 515 467 542 489 l 515 0 l 332 0 l 332 403 l 218 403 l 218 0 l 33 0 l 33 963 l 218 963 l 218 565 l 332 565 l 332 963 l 515 963 l 515 596 q 638 640 569 640 z "},"Ҍ":{"ha":833,"x_min":42,"x_max":803,"o":"m 428 617 q 701 541 600 617 q 803 319 803 465 q 703 82 803 164 q 443 0 604 0 l 119 0 l 119 724 l 42 724 l 42 851 l 119 851 l 119 963 l 347 963 l 347 851 l 513 851 l 513 724 l 347 724 l 347 617 l 428 617 m 428 167 q 530 205 492 167 q 568 318 568 243 q 528 419 568 385 q 419 454 489 454 l 347 454 l 347 167 l 428 167 z "},"Ҏ":{"ha":833,"x_min":86,"x_max":800,"o":"m 800 649 q 758 485 800 556 q 643 374 717 415 l 729 233 l 619 233 l 556 338 q 419 321 492 321 l 314 321 l 314 0 l 86 0 l 86 963 l 389 963 q 694 884 589 963 q 800 649 800 806 m 418 485 q 464 489 443 485 l 356 665 l 465 665 l 547 531 q 579 649 579 569 q 536 763 579 725 q 406 800 493 800 l 314 800 l 314 485 l 418 485 z "},"а":{"ha":833,"x_min":49,"x_max":767,"o":"m 718 213 q 729 153 718 172 q 767 124 740 133 l 721 -21 q 610 9 654 -14 q 540 76 565 32 q 435 2 499 28 q 299 -24 371 -24 q 117 41 185 -24 q 49 208 49 106 q 143 394 49 328 q 408 460 238 460 l 507 460 l 507 486 q 361 600 507 600 q 267 590 324 600 q 158 561 211 579 l 108 707 q 256 748 179 733 q 396 763 333 763 q 718 501 718 763 l 718 213 m 374 133 q 449 155 411 133 q 507 214 488 176 l 507 335 l 453 335 q 275 224 275 335 q 301 157 275 181 q 374 133 326 133 z "},"б":{"ha":833,"x_min":61,"x_max":771,"o":"m 488 696 q 633 653 568 696 q 734 531 697 611 q 771 340 771 450 q 726 142 771 224 q 601 18 681 60 q 417 -24 521 -24 q 61 417 61 -24 q 87 678 61 576 q 176 845 113 781 q 357 944 240 910 q 494 992 442 969 q 619 1054 547 1014 l 699 915 q 593 857 644 878 q 449 807 542 836 q 354 763 389 788 q 301 699 319 739 q 275 593 282 660 q 488 696 356 696 m 417 133 q 517 178 481 133 q 554 338 554 224 q 522 494 554 447 q 422 540 490 540 q 281 453 343 540 l 281 364 q 314 191 281 249 q 417 133 347 133 z "},"в":{"ha":833,"x_min":110,"x_max":775,"o":"m 588 406 q 726 346 678 393 q 775 222 775 299 q 681 54 775 108 q 436 0 588 0 l 110 0 l 110 731 q 414 763 281 763 q 651 711 561 763 q 742 565 742 660 q 701 464 742 504 q 588 406 661 424 m 411 622 q 329 617 358 622 l 329 450 l 422 450 q 531 535 531 450 q 411 622 531 622 m 431 144 q 554 240 554 144 q 524 310 554 285 q 435 335 493 335 l 329 335 l 329 144 l 431 144 z "},"г":{"ha":833,"x_min":169,"x_max":749,"o":"m 169 0 l 169 738 l 749 738 l 724 568 l 389 568 l 389 0 l 169 0 z "},"ѓ":{"ha":833,"x_min":169,"x_max":749,"o":"m 169 0 l 169 738 l 749 738 l 724 568 l 389 568 l 389 0 l 169 0 m 661 994 l 332 864 l 272 976 l 575 1160 l 661 994 z "},"ґ":{"ha":833,"x_min":169,"x_max":749,"o":"m 749 949 l 749 738 l 724 568 l 389 568 l 389 0 l 169 0 l 169 738 l 549 738 l 549 949 l 749 949 z "},"д":{"ha":833,"x_min":18,"x_max":796,"o":"m 796 163 l 796 -242 l 631 -242 l 603 0 l 211 0 l 183 -242 l 18 -242 l 18 163 l 76 163 q 135 269 115 200 q 168 501 156 339 l 188 738 l 725 738 l 725 163 l 796 163 m 521 163 l 521 585 l 381 585 l 375 510 q 351 328 365 393 q 316 228 338 264 q 257 163 294 192 l 518 163 l 521 163 z "},"е":{"ha":833,"x_min":64,"x_max":769,"o":"m 288 304 q 465 136 308 136 q 654 197 560 136 l 742 78 q 613 3 688 31 q 447 -24 538 -24 q 238 26 324 -24 q 108 163 151 75 q 64 368 64 251 q 106 569 64 479 q 230 710 149 658 q 424 763 311 763 q 607 717 529 763 q 727 587 685 672 q 769 383 769 501 q 765 304 769 338 l 288 304 m 424 615 q 328 572 364 615 q 285 438 292 528 l 556 438 q 424 615 553 615 z "},"ѐ":{"ha":833,"x_min":64,"x_max":769,"o":"m 288 304 q 465 136 308 136 q 654 197 560 136 l 742 78 q 613 3 688 31 q 447 -24 538 -24 q 238 26 324 -24 q 108 163 151 75 q 64 368 64 251 q 106 569 64 479 q 230 710 149 658 q 424 763 311 763 q 607 717 529 763 q 727 587 685 672 q 769 383 769 501 q 765 304 769 338 l 288 304 m 424 615 q 328 572 364 615 q 285 438 292 528 l 556 438 q 424 615 553 615 m 236 994 l 321 1160 l 624 975 l 564 864 l 236 994 z "},"ё":{"ha":833,"x_min":64,"x_max":769,"o":"m 288 304 q 465 136 308 136 q 654 197 560 136 l 742 78 q 613 3 688 31 q 447 -24 538 -24 q 238 26 324 -24 q 108 163 151 75 q 64 368 64 251 q 106 569 64 479 q 230 710 149 658 q 424 763 311 763 q 607 717 529 763 q 727 587 685 672 q 769 383 769 501 q 765 304 769 338 l 288 304 m 424 615 q 328 572 364 615 q 285 438 292 528 l 556 438 q 424 615 553 615 m 265 885 q 185 917 218 885 q 151 997 151 950 q 185 1075 151 1043 q 265 1107 218 1107 q 347 1075 314 1107 q 381 997 381 1043 q 347 917 381 950 q 265 885 314 885 m 588 885 q 506 917 540 885 q 472 997 472 950 q 506 1075 472 1043 q 588 1107 540 1107 q 668 1075 635 1107 q 701 997 701 1043 q 669 917 701 950 q 588 885 636 885 z "},"ж":{"ha":833,"x_min":-7,"x_max":842,"o":"m 342 322 l 307 322 l 189 0 l -7 0 l 163 396 l -3 738 l 188 738 l 304 444 l 342 444 l 342 738 l 492 738 l 492 444 l 529 444 l 651 738 l 836 738 l 672 396 l 842 0 l 650 0 l 526 322 l 492 322 l 492 0 l 342 0 l 342 322 z "},"з":{"ha":833,"x_min":36,"x_max":744,"o":"m 368 450 q 456 472 425 450 q 486 532 486 493 q 454 590 486 571 q 363 610 422 610 q 252 596 306 610 q 154 556 199 582 l 60 672 q 205 740 124 717 q 376 763 286 763 q 615 708 524 763 q 707 557 707 654 q 531 390 707 436 q 690 336 636 378 q 744 214 744 294 q 642 38 744 100 q 372 -24 539 -24 q 36 74 165 -24 l 131 200 q 246 149 189 165 q 369 133 303 133 q 480 158 443 133 q 517 225 517 182 q 483 288 517 265 q 382 310 449 310 l 222 310 l 235 450 l 368 450 z "},"и":{"ha":833,"x_min":97,"x_max":736,"o":"m 736 0 l 529 0 l 529 235 q 565 546 529 408 l 324 0 l 97 0 l 97 738 l 304 738 l 304 500 q 267 190 304 332 l 508 738 l 736 738 l 736 0 z "},"й":{"ha":833,"x_min":97,"x_max":736,"o":"m 736 0 l 529 0 l 529 235 q 565 546 529 408 l 324 0 l 97 0 l 97 738 l 304 738 l 304 500 q 267 190 304 332 l 508 738 l 736 738 l 736 0 m 417 850 q 249 913 310 850 q 178 1065 188 975 l 299 1086 q 339 1024 308 1046 q 417 1001 369 1001 q 494 1024 464 1001 q 535 1086 525 1046 l 656 1065 q 585 913 646 975 q 417 850 524 850 z "},"ѝ":{"ha":833,"x_min":97,"x_max":736,"o":"m 736 0 l 529 0 l 529 235 q 565 546 529 408 l 324 0 l 97 0 l 97 738 l 304 738 l 304 500 q 267 190 304 332 l 508 738 l 736 738 l 736 0 m 226 994 l 311 1160 l 614 975 l 554 864 l 226 994 z "},"ҋ":{"ha":833,"x_min":90,"x_max":843,"o":"m 396 850 q 228 913 289 850 q 157 1065 167 975 l 278 1086 q 318 1024 288 1046 q 396 1001 349 1001 q 474 1024 443 1001 q 514 1086 504 1046 l 635 1065 q 564 913 625 975 q 396 850 503 850 m 843 194 l 706 -242 l 526 -242 l 582 0 l 494 0 l 494 235 q 525 533 494 400 l 314 0 l 90 0 l 90 738 l 297 738 l 297 500 q 260 190 297 332 l 478 738 l 701 738 l 701 194 l 843 194 z "},"к":{"ha":833,"x_min":101,"x_max":815,"o":"m 101 738 l 321 738 l 321 457 l 422 457 l 582 738 l 794 738 l 590 396 l 815 0 l 582 0 l 417 311 l 321 311 l 321 0 l 101 0 l 101 738 z "},"ќ":{"ha":833,"x_min":101,"x_max":815,"o":"m 101 738 l 321 738 l 321 457 l 422 457 l 582 738 l 794 738 l 590 396 l 815 0 l 582 0 l 417 311 l 321 311 l 321 0 l 101 0 l 101 738 m 636 994 l 307 864 l 247 976 l 550 1160 l 636 994 z "},"л":{"ha":833,"x_min":19,"x_max":733,"o":"m 733 0 l 514 0 l 514 576 l 356 576 l 351 486 q 319 220 343 315 q 249 71 296 125 q 111 -28 201 17 l 19 111 q 81 173 58 139 q 118 276 103 207 q 143 478 133 346 l 163 738 l 733 738 l 733 0 z "},"м":{"ha":833,"x_min":29,"x_max":804,"o":"m 804 0 l 610 0 l 600 251 q 597 375 597 332 q 603 539 597 465 l 597 539 l 497 117 l 338 117 l 229 539 l 224 539 q 232 386 232 463 q 229 296 232 357 l 228 243 l 219 0 l 29 0 l 78 738 l 314 738 l 419 283 l 511 738 l 754 738 l 804 0 z "},"н":{"ha":833,"x_min":97,"x_max":736,"o":"m 517 294 l 317 294 l 317 0 l 97 0 l 97 738 l 317 738 l 317 456 l 517 456 l 517 738 l 736 738 l 736 0 l 517 0 l 517 294 z "},"о":{"ha":833,"x_min":58,"x_max":775,"o":"m 417 763 q 680 656 585 763 q 775 371 775 550 q 681 81 775 185 q 417 -24 586 -24 q 153 80 247 -24 q 58 369 58 183 q 101 576 58 488 q 224 713 143 664 q 417 763 306 763 m 417 600 q 317 545 349 600 q 285 369 285 490 q 317 192 285 247 q 417 138 349 138 q 517 193 485 138 q 549 371 549 249 q 517 545 549 490 q 417 600 485 600 z "},"п":{"ha":833,"x_min":97,"x_max":736,"o":"m 518 575 l 315 575 l 315 0 l 97 0 l 97 738 l 736 738 l 736 0 l 518 0 l 518 575 z "},"р":{"ha":833,"x_min":97,"x_max":775,"o":"m 506 763 q 710 660 644 763 q 775 371 775 558 q 741 167 775 257 q 643 27 707 78 q 492 -24 579 -24 q 317 53 385 -24 l 317 -285 l 97 -308 l 97 738 l 292 738 l 301 656 q 398 736 344 710 q 506 763 451 763 m 438 600 q 317 514 368 600 l 317 203 q 366 153 340 169 q 425 138 392 138 q 517 192 486 138 q 549 368 549 247 q 521 549 549 499 q 438 600 493 600 z "},"с":{"ha":833,"x_min":96,"x_max":750,"o":"m 489 150 q 569 166 531 150 q 653 213 608 182 l 750 74 q 628 3 697 29 q 476 -24 558 -24 q 273 25 358 -24 q 142 161 188 74 q 96 364 96 249 q 143 569 96 479 q 277 711 190 660 q 481 763 364 763 q 628 740 563 763 q 750 669 693 717 l 656 538 q 490 593 575 593 q 325 364 325 593 q 368 199 325 249 q 489 150 411 150 z "},"т":{"ha":833,"x_min":60,"x_max":782,"o":"m 757 575 l 526 575 l 526 0 l 307 0 l 307 575 l 60 575 l 60 738 l 782 738 l 757 575 z "},"у":{"ha":833,"x_min":39,"x_max":794,"o":"m 549 0 q 400 -224 499 -149 q 136 -310 301 -300 l 111 -154 q 267 -107 217 -140 q 349 0 318 -74 l 272 0 l 39 738 l 271 738 l 414 140 l 569 738 l 794 738 l 549 0 z "},"ў":{"ha":833,"x_min":39,"x_max":794,"o":"m 549 0 q 400 -224 499 -149 q 136 -310 301 -300 l 111 -154 q 267 -107 217 -140 q 349 0 318 -74 l 272 0 l 39 738 l 271 738 l 414 140 l 569 738 l 794 738 l 549 0 m 417 850 q 249 913 310 850 q 178 1065 188 975 l 299 1086 q 339 1024 308 1046 q 417 1001 369 1001 q 494 1024 464 1001 q 535 1086 525 1046 l 656 1065 q 585 913 646 975 q 417 850 524 850 z "},"ф":{"ha":833,"x_min":19,"x_max":814,"o":"m 496 1036 l 496 694 q 556 747 524 731 q 631 763 589 763 q 745 717 706 763 q 799 586 785 671 q 814 368 814 501 q 615 -24 814 -24 q 496 40 543 -24 l 496 -290 l 339 -308 l 339 39 q 217 -24 289 -24 q 19 368 19 -24 q 63 663 19 564 q 214 763 107 763 q 283 747 253 763 q 339 696 313 731 l 339 1054 l 496 1036 m 279 613 q 239 589 253 613 q 219 514 225 565 q 214 368 214 463 q 219 224 214 276 q 239 149 225 172 q 279 125 253 125 q 308 135 296 125 q 339 168 319 144 l 339 571 q 311 603 324 594 q 279 613 299 613 m 564 613 q 528 603 543 613 q 496 571 513 593 l 496 168 q 526 135 513 144 q 557 125 539 125 q 606 178 592 125 q 619 368 619 231 q 615 515 619 463 q 599 590 611 567 q 564 613 588 613 z "},"х":{"ha":833,"x_min":31,"x_max":803,"o":"m 31 0 l 283 388 l 54 738 l 300 738 l 418 501 l 532 738 l 765 738 l 549 396 l 803 0 l 554 0 l 408 276 l 268 0 l 31 0 z "},"ч":{"ha":833,"x_min":67,"x_max":731,"o":"m 731 0 l 511 0 l 511 275 q 300 206 425 206 q 127 267 188 206 q 67 435 67 328 l 67 738 l 286 738 l 286 463 q 310 390 286 413 q 381 368 335 368 q 451 381 415 368 q 511 417 486 394 l 511 738 l 731 738 l 731 0 z "},"ц":{"ha":833,"x_min":76,"x_max":814,"o":"m 814 163 l 814 -242 l 649 -242 l 622 0 l 76 0 l 76 738 l 294 738 l 294 163 l 497 163 l 497 738 l 715 738 l 715 163 l 814 163 z "},"ш":{"ha":833,"x_min":35,"x_max":799,"o":"m 799 0 l 35 0 l 35 738 l 221 738 l 221 163 l 336 163 l 336 738 l 497 738 l 497 163 l 611 163 l 611 738 l 799 738 l 799 0 z "},"щ":{"ha":833,"x_min":35,"x_max":869,"o":"m 869 163 l 869 -242 l 704 -242 l 678 0 l 35 0 l 35 738 l 221 738 l 221 163 l 336 163 l 336 738 l 497 738 l 497 163 l 592 163 l 611 163 l 611 738 l 799 738 l 799 163 l 869 163 z "},"џ":{"ha":833,"x_min":97,"x_max":736,"o":"m 736 0 l 510 0 l 510 -242 l 344 -242 l 318 0 l 97 0 l 97 738 l 315 738 l 315 163 l 510 163 l 518 163 l 518 738 l 736 738 l 736 0 z "},"ь":{"ha":833,"x_min":122,"x_max":772,"o":"m 342 518 l 418 518 q 684 454 596 518 q 772 261 772 390 q 680 59 772 118 q 424 0 588 0 l 122 0 l 122 738 l 342 738 l 342 518 m 342 374 l 342 151 l 428 151 q 517 177 488 151 q 546 265 546 203 q 516 348 546 322 q 421 374 486 374 l 342 374 z "},"ъ":{"ha":833,"x_min":19,"x_max":793,"o":"m 383 515 l 440 515 q 793 260 793 515 q 708 65 793 129 q 464 0 622 0 l 164 0 l 164 581 l 19 581 l 19 738 l 383 738 l 383 515 m 383 371 l 383 151 l 449 151 q 538 177 508 151 q 567 264 567 203 q 537 345 567 319 q 442 371 507 371 l 383 371 z "},"ы":{"ha":833,"x_min":36,"x_max":797,"o":"m 224 513 l 236 513 q 482 451 401 513 q 563 260 563 389 q 483 66 563 132 q 260 0 404 0 l 36 0 l 36 738 l 224 738 l 224 513 m 797 0 l 610 0 l 610 738 l 797 738 l 797 0 m 224 382 l 224 136 l 256 136 q 338 166 310 136 q 365 263 365 196 q 338 353 365 325 q 249 382 310 382 l 224 382 z "},"љ":{"ha":833,"x_min":-12,"x_max":836,"o":"m 531 508 l 543 508 q 765 447 694 508 q 836 256 836 385 q 762 65 836 131 q 558 0 688 0 l 353 0 l 353 592 l 271 592 l 264 444 q 238 197 257 283 q 178 61 218 110 q 58 -28 138 13 l -12 108 q 38 163 19 132 q 69 262 57 193 q 86 461 81 331 l 97 738 l 531 738 l 531 508 m 531 379 l 531 133 l 544 133 q 622 161 599 133 q 646 258 646 189 q 623 351 646 324 q 543 379 600 379 l 531 379 z "},"њ":{"ha":833,"x_min":46,"x_max":840,"o":"m 535 478 l 549 478 q 840 240 840 478 q 763 60 840 121 q 542 0 686 0 l 356 0 l 356 342 l 225 342 l 225 0 l 46 0 l 46 738 l 225 738 l 225 478 l 356 478 l 356 738 l 535 738 l 535 478 m 535 346 l 535 139 l 539 139 q 626 163 599 139 q 654 243 654 186 q 631 321 654 296 q 556 346 607 346 l 535 346 z "},"ѕ":{"ha":833,"x_min":67,"x_max":743,"o":"m 393 133 q 483 151 450 133 q 515 203 515 168 q 502 243 515 228 q 453 273 489 258 q 340 308 417 288 q 171 390 229 338 q 113 533 113 442 q 197 699 113 635 q 432 763 281 763 q 731 672 607 763 l 643 543 q 439 606 542 606 q 359 592 385 606 q 333 549 333 578 q 347 516 333 529 q 397 489 360 503 q 507 454 433 475 q 637 406 586 432 q 715 335 688 379 q 743 221 743 290 q 696 88 743 143 q 569 4 649 32 q 394 -24 490 -24 q 208 6 292 -24 q 67 88 125 35 l 176 211 q 393 133 276 133 z "},"є":{"ha":833,"x_min":96,"x_max":750,"o":"m 478 763 q 750 669 640 763 l 658 547 q 490 603 576 603 q 318 446 339 603 l 610 446 l 610 307 l 318 307 q 493 136 335 136 q 657 192 579 136 l 750 65 q 624 0 696 24 q 475 -24 553 -24 q 271 25 357 -24 q 140 161 185 74 q 96 364 96 249 q 143 569 96 479 q 277 711 190 660 q 478 763 364 763 z "},"э":{"ha":833,"x_min":96,"x_max":750,"o":"m 385 763 q 581 713 499 763 q 707 573 664 663 q 750 367 750 483 q 705 163 750 251 q 573 26 660 75 q 365 -24 486 -24 q 215 0 281 -24 q 96 72 150 24 l 193 189 q 272 149 233 161 q 360 136 310 136 q 476 176 433 136 q 528 307 518 217 l 256 307 l 256 446 l 525 446 q 367 603 507 603 q 280 590 319 603 q 199 551 240 578 l 106 672 q 232 741 168 719 q 385 763 296 763 z "},"і":{"ha":833,"x_min":119,"x_max":736,"o":"m 415 1124 q 508 1088 472 1124 q 544 1000 544 1053 q 508 911 544 946 q 415 876 472 876 q 322 912 358 876 q 285 1000 285 947 q 322 1088 285 1053 q 415 1124 358 1124 m 547 150 l 736 150 l 736 0 l 119 0 l 119 150 l 328 150 l 328 588 l 126 588 l 126 738 l 547 738 l 547 150 z "},"ї":{"ha":833,"x_min":119,"x_max":736,"o":"m 547 150 l 736 150 l 736 0 l 119 0 l 119 150 l 328 150 l 328 588 l 126 588 l 126 738 l 547 738 l 547 150 m 254 885 q 174 917 207 885 q 140 997 140 950 q 174 1075 140 1043 q 254 1107 207 1107 q 336 1075 303 1107 q 369 997 369 1043 q 336 917 369 950 q 254 885 303 885 m 576 885 q 495 917 529 885 q 461 997 461 950 q 495 1075 461 1043 q 576 1107 529 1107 q 657 1075 624 1107 q 690 997 690 1043 q 658 917 690 950 q 576 885 625 885 z "},"ј":{"ha":833,"x_min":97,"x_max":656,"o":"m 514 1124 q 606 1088 569 1124 q 643 1000 643 1053 q 606 912 643 947 q 514 876 569 876 q 419 911 456 876 q 383 1000 383 946 q 420 1088 383 1053 q 514 1124 457 1124 m 656 214 q 597 -47 656 57 q 424 -212 539 -150 q 131 -308 310 -274 l 97 -140 q 288 -75 215 -114 q 399 30 361 -36 q 436 200 436 96 l 436 588 l 172 588 l 172 738 l 656 738 l 656 214 z "},"ћ":{"ha":833,"x_min":11,"x_max":736,"o":"m 533 763 q 683 705 631 763 q 736 542 736 647 l 736 0 l 517 0 l 517 481 q 501 574 517 547 q 446 600 486 600 q 381 577 413 600 q 317 510 350 554 l 317 0 l 97 0 l 97 824 l 11 824 l 11 951 l 97 951 l 97 1031 l 317 1053 l 317 951 l 513 951 l 513 824 l 317 824 l 317 664 q 533 763 410 763 z "},"ю":{"ha":833,"x_min":44,"x_max":815,"o":"m 553 763 q 815 371 815 763 q 753 78 815 179 q 553 -24 692 -24 q 366 59 428 -24 q 294 300 304 142 l 228 300 l 228 0 l 44 0 l 44 738 l 228 738 l 228 449 l 296 449 q 369 680 307 597 q 553 763 431 763 m 553 618 q 508 593 524 618 q 486 515 492 568 q 481 369 481 463 q 486 223 481 275 q 507 146 492 171 q 553 121 522 121 q 599 146 583 121 q 621 224 615 171 q 626 371 626 276 q 610 561 626 504 q 553 618 594 618 z "},"я":{"ha":833,"x_min":28,"x_max":729,"o":"m 729 738 l 729 0 l 510 0 l 510 258 l 399 258 l 260 0 l 28 0 l 208 304 q 116 381 149 333 q 83 492 83 428 q 172 671 83 604 q 436 738 261 738 l 729 738 m 510 392 l 510 600 l 433 600 q 338 574 368 600 q 308 499 308 549 q 438 392 308 392 l 510 392 z "},"ђ":{"ha":833,"x_min":11,"x_max":736,"o":"m 317 951 l 513 951 l 513 824 l 317 824 l 317 663 q 533 763 413 763 q 683 705 631 763 q 736 542 736 647 l 736 113 q 703 -95 736 -17 q 609 -220 671 -174 q 443 -308 547 -267 l 365 -147 q 480 -69 443 -112 q 517 60 517 -26 l 517 515 q 499 581 517 561 q 446 600 481 600 q 381 577 413 600 q 317 510 350 554 l 317 0 l 97 0 l 97 824 l 11 824 l 11 951 l 97 951 l 97 1031 l 317 1053 l 317 951 z "},"ѡ":{"ha":833,"x_min":19,"x_max":814,"o":"m 740 738 q 794 528 774 626 q 814 336 814 429 q 760 67 814 158 q 601 -24 706 -24 q 481 10 526 -24 q 415 121 436 43 q 350 10 393 44 q 238 -24 307 -24 q 75 67 131 -24 q 19 336 19 157 q 93 738 19 500 l 265 738 q 226 536 239 629 q 213 349 213 443 q 226 186 213 235 q 279 138 240 138 q 316 156 304 138 q 333 213 328 174 q 338 325 338 251 l 338 475 l 497 503 l 497 332 q 502 214 497 254 q 519 156 507 174 q 558 138 532 138 q 609 184 597 138 q 621 349 621 231 q 608 533 621 440 q 568 738 594 626 l 740 738 z "},"ѣ":{"ha":833,"x_min":50,"x_max":779,"o":"m 357 761 l 542 761 l 522 632 l 357 632 l 357 513 l 426 513 q 692 449 604 513 q 779 258 779 386 q 699 66 779 132 q 463 0 618 0 l 138 0 l 138 632 l 50 632 l 50 761 l 138 761 l 138 914 l 357 936 l 357 761 m 357 368 l 357 151 l 435 151 q 524 177 494 151 q 553 263 553 203 q 523 343 553 318 q 428 368 493 368 l 357 368 z "},"ѥ":{"ha":833,"x_min":60,"x_max":799,"o":"m 613 119 q 667 130 644 119 q 715 160 689 140 l 799 65 q 711 0 761 24 q 604 -24 661 -24 q 397 63 472 -24 q 310 300 322 149 l 244 300 l 244 0 l 60 0 l 60 738 l 244 738 l 244 449 l 313 449 q 406 677 329 592 q 611 763 483 763 q 799 682 721 763 l 710 585 q 667 610 688 601 q 619 618 646 618 q 538 577 567 618 q 501 446 508 536 l 701 446 l 701 307 l 501 307 q 613 119 507 119 z "},"ѧ":{"ha":833,"x_min":24,"x_max":811,"o":"m 532 253 l 492 253 l 492 0 l 338 0 l 338 253 l 296 253 l 221 0 l 24 0 l 279 738 l 556 738 l 811 0 l 613 0 l 532 253 m 488 393 l 410 639 l 338 393 l 488 393 z "},"ѩ":{"ha":833,"x_min":19,"x_max":864,"o":"m 639 249 l 603 249 l 603 0 l 471 0 l 471 249 l 439 249 l 378 0 l 217 0 l 285 249 l 190 249 l 190 0 l 19 0 l 19 738 l 190 738 l 190 379 l 321 379 l 419 738 l 654 738 l 864 0 l 704 0 l 639 249 m 606 379 l 538 639 l 472 379 l 606 379 z "},"ѫ":{"ha":833,"x_min":7,"x_max":828,"o":"m 828 0 l 643 0 l 575 281 l 508 281 l 508 0 l 328 0 l 328 281 l 261 281 l 192 0 l 7 0 l 151 418 l 253 418 l 101 635 l 101 738 l 724 738 l 724 635 l 574 418 l 685 418 l 828 0 m 414 418 l 532 614 l 294 614 l 414 418 z "},"ѭ":{"ha":833,"x_min":-1,"x_max":878,"o":"m 878 0 l 713 0 l 667 292 l 624 292 l 624 0 l 465 0 l 465 292 l 418 292 l 372 0 l 206 0 l 276 292 l 171 292 l 171 0 l -1 0 l -1 738 l 171 738 l 171 424 l 389 424 l 257 635 l 257 738 l 817 738 l 817 635 l 686 424 l 778 424 l 878 0 m 539 424 l 639 619 l 436 619 l 539 424 z "},"ѯ":{"ha":833,"x_min":86,"x_max":746,"o":"m 668 1043 l 472 849 l 339 849 l 142 1043 l 221 1132 l 406 1001 l 590 1132 l 668 1043 m 297 -315 q 86 -103 86 -237 q 140 15 86 -31 q 321 93 193 61 q 439 128 399 113 q 495 160 479 143 q 511 200 511 176 q 492 238 511 226 q 431 250 474 250 l 207 250 l 207 378 l 450 579 l 106 579 l 106 738 l 706 738 l 706 583 l 461 396 l 513 396 q 684 343 622 396 q 746 197 746 290 q 713 81 746 126 q 622 6 681 35 q 468 -46 563 -22 q 363 -76 397 -64 q 317 -100 328 -89 q 306 -126 306 -111 q 318 -156 306 -143 q 357 -185 331 -169 l 297 -315 z "},"ѱ":{"ha":833,"x_min":39,"x_max":806,"o":"m 501 126 q 576 162 551 138 q 611 232 601 186 q 621 361 621 278 q 613 531 621 447 q 590 738 606 614 l 767 738 q 806 356 806 553 q 735 95 806 182 q 501 -18 665 8 l 501 -285 l 333 -308 l 333 -18 q 106 76 174 -1 q 39 282 39 153 l 39 738 l 222 738 l 222 285 q 249 174 222 213 q 333 126 275 136 l 333 738 l 501 738 l 501 126 z "},"ѳ":{"ha":833,"x_min":58,"x_max":775,"o":"m 417 763 q 680 656 585 763 q 775 371 775 550 q 681 81 775 185 q 417 -24 586 -24 q 153 80 247 -24 q 58 369 58 183 q 101 576 58 488 q 224 713 143 664 q 417 763 306 763 m 417 604 q 318 563 353 604 q 275 435 283 522 l 557 435 q 514 563 549 522 q 417 604 479 604 m 274 310 q 317 176 282 217 q 417 135 351 135 q 515 176 481 135 q 558 310 550 217 l 274 310 z "},"ѵ":{"ha":833,"x_min":26,"x_max":808,"o":"m 26 738 l 264 738 l 396 168 l 489 607 q 560 757 511 713 q 696 801 610 801 q 808 785 751 801 l 772 628 q 739 633 758 633 q 710 622 721 633 q 690 583 699 611 l 522 0 l 264 0 l 26 738 z "},"ѷ":{"ha":833,"x_min":26,"x_max":808,"o":"m 26 738 l 264 738 l 396 168 l 489 607 q 560 757 511 713 q 696 801 610 801 q 808 785 751 801 l 772 628 q 739 633 758 633 q 710 622 721 633 q 690 583 699 611 l 522 0 l 264 0 l 26 738 m 249 867 l 75 1119 l 222 1190 l 361 921 l 249 867 m 474 868 l 301 1122 l 450 1190 l 588 918 l 474 868 z "},"ѹ":{"ha":833,"x_min":-8,"x_max":850,"o":"m 222 -24 q 53 80 114 -24 q -8 369 -8 183 q 19 575 -8 486 q 99 713 47 664 q 222 763 151 763 q 395 658 338 763 q 453 371 453 554 q 395 79 453 182 q 222 -24 338 -24 m 469 -208 q 574 -135 538 -181 q 625 0 610 -89 l 556 0 l 457 738 l 596 738 l 653 140 l 715 738 l 850 738 l 743 0 q 501 -310 706 -260 l 469 -208 m 222 90 q 290 155 269 90 q 311 371 311 219 q 290 584 311 521 q 222 647 269 647 q 155 583 176 647 q 133 369 133 518 q 154 154 133 218 q 222 90 175 90 z "},"ғ":{"ha":833,"x_min":101,"x_max":785,"o":"m 425 568 l 425 433 l 586 433 l 586 296 l 425 296 l 425 0 l 206 0 l 206 296 l 101 296 l 101 433 l 206 433 l 206 738 l 785 738 l 760 568 l 425 568 z "},"ҕ":{"ha":833,"x_min":114,"x_max":747,"o":"m 747 -36 q 677 -244 747 -172 q 476 -315 607 -315 q 374 -299 417 -315 q 289 -253 331 -283 l 372 -129 q 414 -147 397 -142 q 456 -153 431 -153 q 510 -131 492 -153 q 528 -60 528 -110 l 528 233 q 510 299 528 281 q 457 318 493 318 q 333 246 392 318 l 333 0 l 114 0 l 114 738 l 649 738 l 617 578 l 333 578 l 333 392 q 424 457 371 433 q 536 481 476 481 q 692 421 638 481 q 747 247 747 361 l 747 -36 z "},"җ":{"ha":833,"x_min":7,"x_max":857,"o":"m 857 163 l 857 -242 l 719 -242 l 692 0 l 636 0 l 526 322 l 492 322 l 492 0 l 342 0 l 342 322 l 307 322 l 203 0 l 7 0 l 163 396 l 11 738 l 201 738 l 304 444 l 342 444 l 342 738 l 492 738 l 492 444 l 529 444 l 638 738 l 822 738 l 672 396 l 765 163 l 857 163 z "},"ҙ":{"ha":833,"x_min":36,"x_max":744,"o":"m 744 214 q 665 55 744 115 q 451 -19 585 -6 l 451 -67 q 558 -111 522 -75 q 594 -204 594 -147 q 538 -319 594 -275 q 388 -364 481 -364 q 298 -352 340 -364 q 225 -322 256 -340 l 275 -221 q 364 -244 322 -244 q 438 -201 438 -244 q 407 -165 438 -175 q 310 -156 376 -156 l 325 -22 q 36 74 149 -12 l 131 200 q 246 149 189 165 q 369 133 303 133 q 480 158 443 133 q 517 225 517 182 q 483 288 517 265 q 382 310 449 310 l 222 310 l 235 450 l 368 450 q 456 472 425 450 q 486 532 486 493 q 454 590 486 571 q 363 610 422 610 q 252 596 306 610 q 154 556 199 582 l 60 672 q 205 740 124 717 q 376 763 286 763 q 615 708 524 763 q 707 557 707 654 q 531 390 707 436 q 690 336 636 378 q 744 214 744 294 z "},"қ":{"ha":833,"x_min":101,"x_max":831,"o":"m 831 163 l 831 -242 l 665 -242 l 639 0 l 582 0 l 417 311 l 321 311 l 321 0 l 101 0 l 101 738 l 321 738 l 321 457 l 422 457 l 582 738 l 794 738 l 590 396 l 722 163 l 831 163 z "},"ҝ":{"ha":833,"x_min":101,"x_max":815,"o":"m 101 738 l 308 738 l 308 442 l 356 442 l 356 601 l 428 601 l 428 442 l 454 442 l 583 738 l 794 738 l 625 396 l 815 0 l 586 0 l 454 325 l 428 325 l 428 163 l 356 163 l 356 325 l 308 325 l 308 0 l 101 0 l 101 738 z "},"ҟ":{"ha":833,"x_min":18,"x_max":814,"o":"m 814 0 l 582 0 l 417 311 l 347 311 l 347 0 l 128 0 l 128 785 l 18 785 l 18 913 l 128 913 l 128 1031 l 347 1054 l 347 913 l 517 913 l 517 785 l 347 785 l 347 457 l 422 457 l 582 738 l 794 738 l 590 396 l 814 0 z "},"ҡ":{"ha":833,"x_min":0,"x_max":833,"o":"m 833 0 l 600 0 l 449 311 l 365 311 l 365 0 l 146 0 l 146 581 l 0 581 l 0 738 l 365 738 l 365 457 l 454 457 l 600 738 l 813 738 l 622 396 l 833 0 z "},"ң":{"ha":833,"x_min":69,"x_max":807,"o":"m 807 163 l 807 -242 l 642 -242 l 614 0 l 489 0 l 489 294 l 289 294 l 289 0 l 69 0 l 69 738 l 289 738 l 289 456 l 489 456 l 489 738 l 708 738 l 708 163 l 807 163 z "},"ԥ":{"ha":833,"x_min":83,"x_max":821,"o":"m 821 163 l 821 -242 l 656 -242 l 628 0 l 504 0 l 504 575 l 301 575 l 301 0 l 83 0 l 83 738 l 722 738 l 722 163 l 821 163 z "},"ҧ":{"ha":833,"x_min":25,"x_max":840,"o":"m 658 481 q 790 422 739 481 q 840 263 840 364 l 840 -50 q 774 -245 840 -175 q 597 -315 707 -315 q 497 -299 540 -315 q 414 -253 454 -283 l 490 -140 q 533 -162 515 -156 q 581 -168 551 -168 q 631 -147 613 -168 q 649 -83 649 -126 l 649 263 q 593 329 649 329 q 531 310 561 329 l 531 0 l 340 0 l 340 585 l 217 585 l 217 0 l 25 0 l 25 738 l 531 738 l 531 440 q 658 481 586 481 z "},"ҩ":{"ha":833,"x_min":61,"x_max":799,"o":"m 799 293 q 761 151 799 221 q 654 36 724 82 q 776 -128 703 -35 l 683 -206 q 533 -14 594 -100 q 442 -24 485 -24 q 239 25 325 -24 q 107 161 153 74 q 61 364 61 249 q 108 569 61 479 q 242 711 156 660 q 443 763 329 763 q 626 717 543 763 l 554 567 q 453 593 504 593 q 332 538 376 593 q 288 364 288 483 q 326 206 288 256 q 436 150 365 156 q 397 301 397 233 q 451 441 397 390 q 597 492 504 492 q 743 441 688 492 q 799 293 799 390 m 594 368 q 560 351 572 368 q 549 306 549 335 q 575 179 549 243 q 624 232 607 199 q 640 307 640 265 q 594 368 640 368 z "},"ҫ":{"ha":833,"x_min":96,"x_max":750,"o":"m 544 -18 q 626 -90 599 -49 q 653 -189 653 -132 q 596 -312 653 -267 q 440 -358 539 -358 q 294 -324 360 -358 l 338 -214 q 425 -233 376 -233 q 483 -215 464 -233 q 503 -165 503 -196 q 404 -18 503 -83 q 178 105 260 3 q 96 364 96 207 q 143 569 96 479 q 277 711 190 660 q 481 763 364 763 q 628 740 563 763 q 750 669 693 717 l 656 538 q 490 593 575 593 q 325 364 325 593 q 368 199 325 249 q 489 150 411 150 q 569 166 531 150 q 653 213 608 182 l 750 74 q 544 -18 665 0 z "},"ҭ":{"ha":833,"x_min":60,"x_max":782,"o":"m 526 575 l 526 163 l 624 163 l 624 -242 l 458 -242 l 432 0 l 307 0 l 307 575 l 60 575 l 60 738 l 782 738 l 757 575 l 526 575 z "},"ү":{"ha":833,"x_min":33,"x_max":800,"o":"m 310 6 l 33 738 l 272 738 l 421 192 l 576 738 l 800 738 l 524 7 l 524 -285 l 310 -308 l 310 6 z "},"ұ":{"ha":833,"x_min":33,"x_max":800,"o":"m 558 100 l 657 100 l 657 -22 l 524 -22 l 524 -285 l 310 -308 l 310 -22 l 178 -22 l 178 100 l 274 100 l 33 738 l 272 738 l 421 192 l 576 738 l 800 738 l 558 100 z "},"ҳ":{"ha":833,"x_min":31,"x_max":803,"o":"m 554 0 l 510 85 l 510 -242 l 344 -242 l 318 0 l 31 0 l 283 388 l 54 738 l 300 738 l 418 501 l 532 738 l 765 738 l 549 396 l 803 0 l 554 0 m 468 163 l 408 276 l 350 163 l 468 163 z "},"ҷ":{"ha":833,"x_min":53,"x_max":813,"o":"m 813 163 l 813 -242 l 649 -242 l 621 0 l 497 0 l 497 275 q 286 206 411 206 q 113 267 174 206 q 53 435 53 328 l 53 738 l 272 738 l 272 463 q 297 390 272 413 q 367 368 321 368 q 437 381 401 368 q 497 417 472 394 l 497 738 l 717 738 l 717 163 l 813 163 z "},"ҹ":{"ha":833,"x_min":67,"x_max":731,"o":"m 731 738 l 731 0 l 511 0 l 511 275 q 436 231 476 247 l 436 113 l 353 113 l 353 210 q 300 206 328 206 q 127 267 188 206 q 67 435 67 328 l 67 738 l 286 738 l 286 463 q 353 371 286 382 l 353 556 l 436 556 l 436 376 q 511 417 479 389 l 511 738 l 731 738 z "},"һ":{"ha":833,"x_min":100,"x_max":733,"o":"m 522 689 q 678 628 622 689 q 733 456 733 568 l 733 0 l 514 0 l 514 442 q 497 508 514 489 q 443 526 481 526 q 319 453 379 526 l 319 0 l 100 0 l 100 1031 l 319 1053 l 319 599 q 410 665 358 642 q 522 689 463 689 z "},"ԧ":{"ha":833,"x_min":90,"x_max":822,"o":"m 822 163 l 822 -242 l 657 -242 l 629 0 l 504 0 l 504 442 q 488 508 504 489 q 433 526 471 526 q 310 454 368 526 l 310 0 l 90 0 l 90 1031 l 310 1053 l 310 599 q 401 665 349 642 q 513 689 454 689 q 668 628 613 689 q 724 456 724 568 l 724 163 l 822 163 z "},"ҽ":{"ha":833,"x_min":7,"x_max":799,"o":"m 799 383 q 794 304 799 338 l 408 304 q 546 128 414 128 q 626 141 592 128 q 696 178 661 154 l 781 69 q 539 -24 674 -24 q 306 63 388 -24 q 213 303 225 150 q 62 354 117 304 q 7 494 7 404 q 18 565 7 533 q 49 628 29 596 l 165 581 q 146 497 146 533 q 213 438 146 438 q 306 673 229 583 q 511 763 383 763 q 725 663 651 763 q 799 383 799 564 m 603 438 q 580 574 601 528 q 510 619 558 619 q 435 576 461 619 q 406 438 410 532 l 603 438 z "},"ҿ":{"ha":833,"x_min":7,"x_max":799,"o":"m 799 383 q 794 304 799 338 l 408 304 q 546 128 414 128 q 626 141 592 128 q 696 178 661 154 l 781 69 q 669 0 732 25 q 544 -68 579 -31 q 510 -153 510 -106 q 531 -203 510 -186 q 590 -221 553 -221 q 665 -211 624 -221 l 649 -340 q 567 -351 608 -351 q 416 -306 475 -351 q 357 -181 357 -261 q 447 -14 357 -78 q 282 92 340 10 q 213 303 224 175 q 62 354 117 304 q 7 494 7 404 q 18 565 7 533 q 49 628 29 596 l 165 581 q 146 497 146 533 q 213 438 146 438 q 306 673 229 583 q 511 763 383 763 q 725 663 651 763 q 799 383 799 564 m 603 438 q 580 574 601 528 q 510 619 558 619 q 435 576 461 619 q 406 438 410 532 l 603 438 z "},"ӏ":{"ha":833,"x_min":46,"x_max":733,"o":"m 482 232 q 576 150 482 150 q 682 172 628 150 l 733 25 q 521 -24 644 -24 q 327 51 392 -24 q 263 260 263 125 l 263 881 l 46 881 l 46 1031 l 482 1031 l 482 232 z "},"ӂ":{"ha":833,"x_min":-7,"x_max":842,"o":"m 342 322 l 307 322 l 189 0 l -7 0 l 163 396 l -3 738 l 188 738 l 304 444 l 342 444 l 342 738 l 492 738 l 492 444 l 529 444 l 651 738 l 836 738 l 672 396 l 842 0 l 650 0 l 526 322 l 492 322 l 492 0 l 342 0 l 342 322 m 417 850 q 249 913 310 850 q 178 1065 188 975 l 299 1086 q 339 1024 308 1046 q 417 1001 369 1001 q 494 1024 464 1001 q 535 1086 525 1046 l 656 1065 q 585 913 646 975 q 417 850 524 850 z "},"ӄ":{"ha":833,"x_min":97,"x_max":775,"o":"m 756 -36 q 685 -244 756 -172 q 485 -315 615 -315 q 381 -299 425 -315 q 296 -253 336 -283 l 381 -129 q 422 -147 406 -142 q 463 -153 439 -153 q 536 -60 536 -153 l 536 213 q 458 289 536 289 l 317 289 l 317 0 l 97 0 l 97 738 l 317 738 l 317 435 l 403 435 l 568 738 l 775 738 l 596 419 q 714 349 672 406 q 756 203 756 293 l 756 -36 z "},"ӆ":{"ha":833,"x_min":11,"x_max":821,"o":"m 821 194 l 683 -242 l 506 -242 l 560 0 l 464 0 l 464 576 l 347 576 l 343 486 q 311 220 335 315 q 240 71 288 125 q 103 -28 193 17 l 11 111 q 72 173 50 139 q 110 276 94 207 q 135 478 125 346 l 154 738 l 683 738 l 683 194 l 821 194 z "},"ӈ":{"ha":833,"x_min":97,"x_max":736,"o":"m 736 -36 q 666 -244 736 -172 q 467 -315 596 -315 q 363 -299 407 -315 q 278 -253 318 -283 l 361 -129 q 405 -147 389 -142 q 444 -153 421 -153 q 499 -131 481 -153 q 517 -60 517 -110 l 517 294 l 317 294 l 317 0 l 97 0 l 97 738 l 317 738 l 317 456 l 517 456 l 517 738 l 736 738 l 736 -36 z "},"ӊ":{"ha":833,"x_min":92,"x_max":826,"o":"m 826 194 l 689 -242 l 511 -242 l 565 0 l 471 0 l 471 294 l 311 294 l 311 0 l 92 0 l 92 738 l 311 738 l 311 456 l 471 456 l 471 738 l 690 738 l 690 194 l 826 194 z "},"ӌ":{"ha":833,"x_min":67,"x_max":731,"o":"m 731 738 l 731 0 l 599 0 l 571 -242 l 406 -242 l 406 163 l 511 163 l 511 315 q 300 247 428 247 q 127 308 188 247 q 67 476 67 369 l 67 738 l 286 738 l 286 503 q 381 408 286 408 q 450 422 415 408 q 511 457 485 435 l 511 738 l 731 738 z "},"ӎ":{"ha":833,"x_min":29,"x_max":856,"o":"m 856 194 l 717 -242 l 567 -242 l 621 0 l 542 0 l 531 251 q 521 561 525 371 l 456 117 l 297 117 l 225 561 q 226 444 226 519 q 222 243 226 346 l 213 0 l 29 0 l 78 738 l 314 738 l 379 283 l 429 738 l 679 738 l 717 194 l 856 194 z "},"ӑ":{"ha":833,"x_min":49,"x_max":767,"o":"m 718 213 q 729 153 718 172 q 767 124 740 133 l 721 -21 q 610 9 654 -14 q 540 76 565 32 q 435 2 499 28 q 299 -24 371 -24 q 117 41 185 -24 q 49 208 49 106 q 143 394 49 328 q 408 460 238 460 l 507 460 l 507 486 q 361 600 507 600 q 267 590 324 600 q 158 561 211 579 l 108 707 q 256 748 179 733 q 396 763 333 763 q 718 501 718 763 l 718 213 m 374 133 q 449 155 411 133 q 507 214 488 176 l 507 335 l 453 335 q 275 224 275 335 q 301 157 275 181 q 374 133 326 133 m 407 850 q 239 913 300 850 q 168 1065 178 975 l 289 1086 q 329 1024 299 1046 q 407 1001 360 1001 q 485 1024 454 1001 q 525 1086 515 1046 l 646 1065 q 575 913 636 975 q 407 850 514 850 z "},"ӓ":{"ha":833,"x_min":49,"x_max":767,"o":"m 718 213 q 729 153 718 172 q 767 124 740 133 l 721 -21 q 610 9 654 -14 q 540 76 565 32 q 435 2 499 28 q 299 -24 371 -24 q 117 41 185 -24 q 49 208 49 106 q 143 394 49 328 q 408 460 238 460 l 507 460 l 507 486 q 361 600 507 600 q 267 590 324 600 q 158 561 211 579 l 108 707 q 256 748 179 733 q 396 763 333 763 q 718 501 718 763 l 718 213 m 374 133 q 449 155 411 133 q 507 214 488 176 l 507 335 l 453 335 q 275 224 275 335 q 301 157 275 181 q 374 133 326 133 m 246 885 q 165 917 199 885 q 132 997 132 950 q 165 1075 132 1043 q 246 1107 199 1107 q 328 1075 294 1107 q 361 997 361 1043 q 328 917 361 950 q 246 885 294 885 m 568 885 q 487 917 521 885 q 453 997 453 950 q 487 1075 453 1043 q 568 1107 521 1107 q 649 1075 615 1107 q 682 997 682 1043 q 649 917 682 950 q 568 885 617 885 z "},"ӗ":{"ha":833,"x_min":64,"x_max":769,"o":"m 288 304 q 465 136 308 136 q 654 197 560 136 l 742 78 q 613 3 688 31 q 447 -24 538 -24 q 238 26 324 -24 q 108 163 151 75 q 64 368 64 251 q 106 569 64 479 q 230 710 149 658 q 424 763 311 763 q 607 717 529 763 q 727 587 685 672 q 769 383 769 501 q 765 304 769 338 l 288 304 m 424 615 q 328 572 364 615 q 285 438 292 528 l 556 438 q 424 615 553 615 m 426 850 q 258 913 319 850 q 188 1065 197 975 l 308 1086 q 349 1024 318 1046 q 426 1001 379 1001 q 504 1024 474 1001 q 544 1086 535 1046 l 665 1065 q 594 913 656 975 q 426 850 533 850 z "},"ә":{"ha":833,"x_min":58,"x_max":775,"o":"m 407 763 q 682 656 589 763 q 775 371 775 550 q 733 170 775 260 q 609 28 690 81 q 414 -24 528 -24 q 153 76 249 -24 q 58 356 58 176 q 63 433 58 400 l 563 433 q 516 564 558 521 q 397 607 474 607 q 201 543 288 607 l 111 665 q 407 763 232 763 m 414 132 q 522 172 485 132 q 563 301 558 213 l 264 301 l 264 294 q 304 174 267 215 q 414 132 342 132 z "},"ӛ":{"ha":833,"x_min":58,"x_max":775,"o":"m 407 763 q 682 656 589 763 q 775 371 775 550 q 733 170 775 260 q 609 28 690 81 q 414 -24 528 -24 q 153 76 249 -24 q 58 356 58 176 q 63 433 58 400 l 563 433 q 516 564 558 521 q 397 607 474 607 q 201 543 288 607 l 111 665 q 407 763 232 763 m 414 132 q 522 172 485 132 q 563 301 558 213 l 264 301 l 264 294 q 304 174 267 215 q 414 132 342 132 m 271 885 q 190 917 224 885 q 157 997 157 950 q 190 1075 157 1043 q 271 1107 224 1107 q 353 1075 319 1107 q 386 997 386 1043 q 353 917 386 950 q 271 885 319 885 m 593 885 q 512 917 546 885 q 478 997 478 950 q 512 1075 478 1043 q 593 1107 546 1107 q 674 1075 640 1107 q 707 997 707 1043 q 674 917 707 950 q 593 885 642 885 z "},"ӝ":{"ha":833,"x_min":-7,"x_max":842,"o":"m 342 322 l 307 322 l 189 0 l -7 0 l 163 396 l -3 738 l 188 738 l 304 444 l 342 444 l 342 738 l 492 738 l 492 444 l 529 444 l 651 738 l 836 738 l 672 396 l 842 0 l 650 0 l 526 322 l 492 322 l 492 0 l 342 0 l 342 322 m 256 885 q 175 917 208 885 q 142 997 142 950 q 175 1075 142 1043 q 256 1107 208 1107 q 338 1075 304 1107 q 371 997 371 1043 q 338 917 371 950 q 256 885 304 885 m 578 885 q 497 917 531 885 q 463 997 463 950 q 497 1075 463 1043 q 578 1107 531 1107 q 658 1075 625 1107 q 692 997 692 1043 q 659 917 692 950 q 578 885 626 885 z "},"ӟ":{"ha":833,"x_min":36,"x_max":744,"o":"m 368 450 q 456 472 425 450 q 486 532 486 493 q 454 590 486 571 q 363 610 422 610 q 252 596 306 610 q 154 556 199 582 l 60 672 q 205 740 124 717 q 376 763 286 763 q 615 708 524 763 q 707 557 707 654 q 531 390 707 436 q 690 336 636 378 q 744 214 744 294 q 642 38 744 100 q 372 -24 539 -24 q 36 74 165 -24 l 131 200 q 246 149 189 165 q 369 133 303 133 q 480 158 443 133 q 517 225 517 182 q 483 288 517 265 q 382 310 449 310 l 222 310 l 235 450 l 368 450 m 236 879 q 156 912 189 879 q 122 992 122 944 q 156 1069 122 1038 q 236 1101 189 1101 q 318 1069 285 1101 q 351 992 351 1038 q 318 912 351 944 q 236 879 285 879 m 558 879 q 477 912 511 879 q 443 992 443 944 q 477 1069 443 1038 q 558 1101 511 1101 q 639 1069 606 1101 q 672 992 672 1038 q 640 912 672 944 q 558 879 607 879 z "},"ӡ":{"ha":833,"x_min":50,"x_max":756,"o":"m 450 299 q 669 228 583 299 q 756 25 756 158 q 709 -145 756 -69 q 576 -265 663 -221 q 375 -308 489 -308 q 190 -278 263 -308 q 50 -189 117 -247 l 154 -68 q 251 -126 203 -107 q 363 -146 299 -146 q 483 -106 439 -146 q 528 13 528 -65 q 481 125 528 90 q 356 160 435 160 l 210 160 l 210 293 l 471 575 l 96 575 l 96 738 l 713 738 l 713 589 l 440 299 l 450 299 z "},"ӣ":{"ha":833,"x_min":97,"x_max":736,"o":"m 736 0 l 529 0 l 529 235 q 565 546 529 408 l 324 0 l 97 0 l 97 738 l 304 738 l 304 500 q 267 190 304 332 l 508 738 l 736 738 l 736 0 m 204 914 l 204 1065 l 629 1065 l 629 914 l 204 914 z "},"ӥ":{"ha":833,"x_min":97,"x_max":736,"o":"m 736 0 l 529 0 l 529 235 q 565 546 529 408 l 324 0 l 97 0 l 97 738 l 304 738 l 304 500 q 267 190 304 332 l 508 738 l 736 738 l 736 0 m 256 885 q 175 917 208 885 q 142 997 142 950 q 175 1075 142 1043 q 256 1107 208 1107 q 338 1075 304 1107 q 371 997 371 1043 q 338 917 371 950 q 256 885 304 885 m 578 885 q 497 917 531 885 q 463 997 463 950 q 497 1075 463 1043 q 578 1107 531 1107 q 658 1075 625 1107 q 692 997 692 1043 q 659 917 692 950 q 578 885 626 885 z "},"ӧ":{"ha":833,"x_min":58,"x_max":775,"o":"m 417 763 q 680 656 585 763 q 775 371 775 550 q 681 81 775 185 q 417 -24 586 -24 q 153 80 247 -24 q 58 369 58 183 q 101 576 58 488 q 224 713 143 664 q 417 763 306 763 m 417 600 q 317 545 349 600 q 285 369 285 490 q 317 192 285 247 q 417 138 349 138 q 517 193 485 138 q 549 371 549 249 q 517 545 549 490 q 417 600 485 600 m 256 885 q 175 917 208 885 q 142 997 142 950 q 175 1075 142 1043 q 256 1107 208 1107 q 338 1075 304 1107 q 371 997 371 1043 q 338 917 371 950 q 256 885 304 885 m 578 885 q 497 917 531 885 q 463 997 463 950 q 497 1075 463 1043 q 578 1107 531 1107 q 658 1075 625 1107 q 692 997 692 1043 q 659 917 692 950 q 578 885 626 885 z "},"ө":{"ha":833,"x_min":58,"x_max":775,"o":"m 417 763 q 680 656 585 763 q 775 371 775 550 q 681 81 775 185 q 417 -24 586 -24 q 153 80 247 -24 q 58 369 58 183 q 101 576 58 488 q 224 713 143 664 q 417 763 306 763 m 417 604 q 318 563 353 604 q 275 435 283 522 l 557 435 q 514 563 549 522 q 417 604 479 604 m 274 310 q 317 176 282 217 q 417 135 351 135 q 515 176 481 135 q 558 310 550 217 l 274 310 z "},"ӫ":{"ha":833,"x_min":58,"x_max":775,"o":"m 417 763 q 680 656 585 763 q 775 371 775 550 q 681 81 775 185 q 417 -24 586 -24 q 153 80 247 -24 q 58 369 58 183 q 101 576 58 488 q 224 713 143 664 q 417 763 306 763 m 417 604 q 318 563 353 604 q 275 435 283 522 l 557 435 q 514 563 549 522 q 417 604 479 604 m 274 310 q 317 176 282 217 q 417 135 351 135 q 515 176 481 135 q 558 310 550 217 l 274 310 m 257 885 q 176 917 210 885 q 143 997 143 950 q 176 1075 143 1043 q 257 1107 210 1107 q 339 1075 306 1107 q 372 997 372 1043 q 339 917 372 950 q 257 885 306 885 m 579 885 q 498 917 532 885 q 464 997 464 950 q 498 1075 464 1043 q 579 1107 532 1107 q 660 1075 626 1107 q 693 997 693 1043 q 660 917 693 950 q 579 885 628 885 z "},"ӭ":{"ha":833,"x_min":96,"x_max":750,"o":"m 385 763 q 581 713 499 763 q 707 573 664 663 q 750 367 750 483 q 705 163 750 251 q 573 26 660 75 q 365 -24 486 -24 q 215 0 281 -24 q 96 72 150 24 l 193 189 q 272 149 233 161 q 360 136 310 136 q 476 176 433 136 q 528 307 518 217 l 256 307 l 256 446 l 525 446 q 367 603 507 603 q 280 590 319 603 q 199 551 240 578 l 106 672 q 232 741 168 719 q 385 763 296 763 m 257 885 q 176 917 210 885 q 143 997 143 950 q 176 1075 143 1043 q 257 1107 210 1107 q 339 1075 306 1107 q 372 997 372 1043 q 339 917 372 950 q 257 885 306 885 m 579 885 q 498 917 532 885 q 464 997 464 950 q 498 1075 464 1043 q 579 1107 532 1107 q 660 1075 626 1107 q 693 997 693 1043 q 660 917 693 950 q 579 885 628 885 z "},"ӯ":{"ha":833,"x_min":39,"x_max":794,"o":"m 549 0 q 400 -224 499 -149 q 136 -310 301 -300 l 111 -154 q 267 -107 217 -140 q 349 0 318 -74 l 272 0 l 39 738 l 271 738 l 414 140 l 569 738 l 794 738 l 549 0 m 204 914 l 204 1065 l 629 1065 l 629 914 l 204 914 z "},"ӱ":{"ha":833,"x_min":39,"x_max":794,"o":"m 549 0 q 400 -224 499 -149 q 136 -310 301 -300 l 111 -154 q 267 -107 217 -140 q 349 0 318 -74 l 272 0 l 39 738 l 271 738 l 414 140 l 569 738 l 794 738 l 549 0 m 256 885 q 175 917 208 885 q 142 997 142 950 q 175 1075 142 1043 q 256 1107 208 1107 q 338 1075 304 1107 q 371 997 371 1043 q 338 917 371 950 q 256 885 304 885 m 578 885 q 497 917 531 885 q 463 997 463 950 q 497 1075 463 1043 q 578 1107 531 1107 q 658 1075 625 1107 q 692 997 692 1043 q 659 917 692 950 q 578 885 626 885 z "},"ӳ":{"ha":833,"x_min":39,"x_max":794,"o":"m 549 0 q 400 -224 499 -149 q 136 -310 301 -300 l 111 -154 q 267 -107 217 -140 q 349 0 318 -74 l 272 0 l 39 738 l 271 738 l 414 140 l 569 738 l 794 738 l 549 0 m 360 1190 l 508 1122 l 336 868 l 222 918 l 360 1190 m 588 1190 l 735 1119 l 561 867 l 449 921 l 588 1190 z "},"ӵ":{"ha":833,"x_min":67,"x_max":731,"o":"m 731 0 l 511 0 l 511 275 q 300 206 425 206 q 127 267 188 206 q 67 435 67 328 l 67 738 l 286 738 l 286 463 q 310 390 286 413 q 381 368 335 368 q 451 381 415 368 q 511 417 486 394 l 511 738 l 731 738 l 731 0 m 238 885 q 157 917 190 885 q 124 997 124 950 q 157 1075 124 1043 q 238 1107 190 1107 q 319 1075 286 1107 q 353 997 353 1043 q 319 917 353 950 q 238 885 286 885 m 560 885 q 478 917 513 885 q 444 997 444 950 q 478 1075 444 1043 q 560 1107 513 1107 q 640 1075 607 1107 q 674 997 674 1043 q 641 917 674 950 q 560 885 608 885 z "}}}
